<?xml version="1.0" encoding="UTF-8"?>
<svg width="64px" height="64px" viewBox="0 0 64 64" version="1.1" xmlns="http://www.w3.org/2000/svg" xmlns:xlink="http://www.w3.org/1999/xlink">
    <!-- Generator: sketchtool 51.1 (57501) - http://www.bohemiancoding.com/sketch -->
    <title>12EF5293-107E-461E-933E-35F3F8F31A24</title>
    <desc>Created with sketchtool.</desc>
    <defs>
        <linearGradient x1="100%" y1="0%" x2="0%" y2="100%" id="linearGradient-1">
            <stop stop-color="#F09819" offset="0%"></stop>
            <stop stop-color="#EDDE5D" offset="100%"></stop>
        </linearGradient>
    </defs>
    <g id="Page-1" stroke="none" stroke-width="1" fill="none" fill-rule="evenodd">
        <g id="TD-main" transform="translate(-838.000000, -768.000000)" fill="url(#linearGradient-1)">
            <g id="messanger" transform="translate(735.000000, 731.000000)">
                <path d="M107.129032,60 C107.129032,49.508 116.941677,41 129.83871,41 C140.105548,41 150.483871,49.508 150.483871,60 C150.483871,70.494 142.380645,79 129.83871,79 C127.995097,79 124.148903,78.796 122.43329,78.45 L115.387097,83 L115.387097,75.912 C110.351742,71.954 107.129032,66.668 107.129032,60 L107.129032,60 Z M122.895742,82.472 C124.499871,82.726 128.147871,83 129.83871,83 C144.661935,83 154.612903,72.314 154.612903,59.75 C154.612903,47.186 142.178323,37 129.83871,37 C114.996903,37 103,47.186 103,59.75 C103,67.03 105.863484,73.208 111.258065,77.658 L111.258065,89 L122.895742,82.472 L122.895742,82.472 Z M158.636645,55.278 C158.675871,55.85 158.741935,56.418 158.741935,57 C158.741935,58.272 158.613935,59.518 158.430194,60.748 C161.209032,63.9 162.870968,67.784 162.870968,72 C162.870968,78.668 158.758452,84.522 152.548387,87.912 L152.548387,95 L145.502194,90.45 C143.786581,90.796 142.004903,91 140.16129,91 C134.814194,91 131.973419,89.444 128.092129,86.858 C126.966968,86.946 125.831484,87 124.677419,87 C123.855742,87 123.050581,86.944 122.24129,86.898 C127.156903,91.552 132.210839,94.5 140.16129,94.5 C141.852129,94.5 143.501677,94.352 145.105806,94.098 L156.677419,101 L156.677419,89.658 C162.953548,85.492 167,79.03 167,71.75 C167,65.262 163.77729,59.422 158.636645,55.278 L158.636645,55.278 Z M141.193548,63 C142.905032,63 144.290323,61.658 144.290323,60 C144.290323,58.344 142.905032,57 141.193548,57 C139.482065,57 138.096774,58.344 138.096774,60 C138.096774,61.658 139.482065,63 141.193548,63 L141.193548,63 Z M116.419355,63 C118.130839,63 119.516129,61.658 119.516129,60 C119.516129,58.344 118.130839,57 116.419355,57 C114.707871,57 113.322581,58.344 113.322581,60 C113.322581,61.658 114.707871,63 116.419355,63 L116.419355,63 Z M128.806452,63 C130.517935,63 131.903226,61.658 131.903226,60 C131.903226,58.344 130.517935,57 128.806452,57 C127.094968,57 125.709677,58.344 125.709677,60 C125.709677,61.658 127.094968,63 128.806452,63 L128.806452,63 Z" id="ic_chat"></path>
            </g>
        </g>
    </g>
</svg>