<?xml version="1.0" encoding="UTF-8"?>
<svg width="64px" height="36px" viewBox="0 0 64 36" version="1.1" xmlns="http://www.w3.org/2000/svg" xmlns:xlink="http://www.w3.org/1999/xlink">
    <!-- Generator: sketchtool 51.1 (57501) - http://www.bohemiancoding.com/sketch -->
    <title>2CCD6ED8-810D-4FEC-AE90-60B6D72F1B98</title>
    <desc>Created with sketchtool.</desc>
    <defs>
        <linearGradient x1="0%" y1="0%" x2="101.999998%" y2="100.999999%" id="linearGradient-1">
            <stop stop-color="#3023AE" offset="0%"></stop>
            <stop stop-color="#C86DD7" offset="100%"></stop>
        </linearGradient>
    </defs>
    <g id="Page-1" stroke="none" stroke-width="1" fill="none" fill-rule="evenodd">
        <g id="TD-main" transform="translate(-538.000000, -782.000000)" fill="url(#linearGradient-1)">
            <g id="game" transform="translate(435.000000, 731.000000)">
                <path d="M150,59 C148.344,59 147,60.344 147,62 C147,63.656 148.344,65 150,65 C151.656,65 153,63.656 153,62 C153,60.344 151.656,59 150,59 L150,59 Z M156,67 C154.344,67 153,68.344 153,70 C153,71.656 154.344,73 156,73 C157.656,73 159,71.656 159,70 C159,68.344 157.656,67 156,67 L156,67 Z M163,75 C163,79.418 159.418,83 155,83 L115,83 C110.582,83 107,79.418 107,75 L107,63 C107,58.582 110.582,55 115,55 L155,55 C159.418,55 163,58.582 163,63 L163,75 L163,75 Z M155,51 L115,51 C108.374,51 103,56.374 103,63 L103,75 C103,81.626 108.374,87 115,87 L155,87 C161.626,87 167,81.626 167,75 L167,63 C167,56.374 161.626,51 155,51 L155,51 Z M148,73 C146.344,73 145,74.344 145,76 C145,77.656 146.344,79 148,79 C149.656,79 151,77.656 151,76 C151,74.344 149.656,73 148,73 L148,73 Z M129,67 L123,67 L123,61 C123,59.896 122.106,59 121,59 C119.894,59 119,59.896 119,61 L119,67 L113,67 C111.894,67 111,67.896 111,69 C111,70.106 111.894,71 113,71 L119,71 L119,77 C119,78.106 119.894,79 121,79 C122.106,79 123,78.106 123,77 L123,71 L129,71 C130.106,71 131,70.106 131,69 C131,67.896 130.106,67 129,67 L129,67 Z M142,65 C140.344,65 139,66.344 139,68 C139,69.656 140.344,71 142,71 C143.656,71 145,69.656 145,68 C145,66.344 143.656,65 142,65 L142,65 Z" id="ic_game"></path>
            </g>
        </g>
    </g>
</svg>