<?xml version="1.0" encoding="UTF-8"?>
<svg width="48px" height="64px" viewBox="0 0 48 64" version="1.1" xmlns="http://www.w3.org/2000/svg" xmlns:xlink="http://www.w3.org/1999/xlink">
    <!-- Generator: sketchtool 51.1 (57501) - http://www.bohemiancoding.com/sketch -->
    <title>1227C695-B53E-4B01-A536-9D647776A569</title>
    <desc>Created with sketchtool.</desc>
    <defs>
        <linearGradient x1="100%" y1="0%" x2="0%" y2="100%" id="linearGradient-1">
            <stop stop-color="#3A7BD5" offset="0%"></stop>
            <stop stop-color="#00D2FF" offset="100%"></stop>
        </linearGradient>
    </defs>
    <g id="Page-1" stroke="none" stroke-width="1" fill="none" fill-rule="evenodd">
        <g id="TD-main" transform="translate(-246.000000, -768.000000)" fill="url(#linearGradient-1)">
            <g id="location_tracking" transform="translate(135.000000, 731.000000)">
                <path d="M134.999995,66.9999943 C131.685996,66.9999943 128.999997,64.3139948 128.999997,60.9999955 C128.999997,57.6859961 131.685996,54.9999966 134.999995,54.9999966 C138.313995,54.9999966 140.999994,57.6859961 140.999994,60.9999955 C140.999994,64.3139948 138.313995,66.9999943 134.999995,66.9999943 L134.999995,66.9999943 Z M134.999995,50.9999974 C129.477997,50.9999974 124.999997,55.4759965 124.999997,60.9999955 C124.999997,66.5239944 129.477997,70.9999936 134.999995,70.9999936 C140.521994,70.9999936 144.999994,66.5239944 144.999994,60.9999955 C144.999994,55.4759965 140.521994,50.9999974 134.999995,50.9999974 L134.999995,50.9999974 Z M134.999995,94.999989 C131.673996,95.017989 114.999999,69.3619939 114.999999,60.9999955 C114.999999,49.9559976 123.953998,40.9999992 134.999995,40.9999992 C146.045993,40.9999992 154.999992,49.9559976 154.999992,60.9999955 C154.999992,69.2499939 138.273995,95.017989 134.999995,94.999989 L134.999995,94.999989 Z M134.999995,37 C121.745998,37 111,47.745998 111,60.9999955 C111,71.0359936 131.009996,101.021988 134.999995,100.999988 C138.927995,101.021988 158.999991,70.8999936 158.999991,60.9999955 C158.999991,47.745998 148.253993,37 134.999995,37 L134.999995,37 Z" id="ic_place"></path>
            </g>
        </g>
    </g>
</svg>