<?xml version="1.0" encoding="UTF-8"?>
<svg width="64px" height="64px" viewBox="0 0 64 64" version="1.1" xmlns="http://www.w3.org/2000/svg" xmlns:xlink="http://www.w3.org/1999/xlink">
    <!-- Generator: sketchtool 51.1 (57501) - http://www.bohemiancoding.com/sketch -->
    <title>CDC6DBE6-6F63-4BA5-80B9-5DE8E7610D6F</title>
    <desc>Created with sketchtool.</desc>
    <defs>
        <linearGradient x1="0%" y1="100%" x2="100%" y2="0%" id="linearGradient-1">
            <stop stop-color="#43CEA2" offset="0%"></stop>
            <stop stop-color="#185A9D" offset="100%"></stop>
        </linearGradient>
    </defs>
    <g id="Page-1" stroke="none" stroke-width="1" fill="none" fill-rule="evenodd">
        <g id="TD-main" transform="translate(-1138.000000, -768.000000)" fill="url(#linearGradient-1)">
            <g id="photo" transform="translate(1035.000000, 730.000000)">
                <path d="M119,58 C116.792,58 115,56.208 115,54 C115,51.792 116.792,50 119,50 C121.208,50 123,51.792 123,54 C123,56.208 121.208,58 119,58 L119,58 Z M119,46 C114.582,46 111,49.582 111,54 C111,58.418 114.582,62 119,62 C123.418,62 127,58.418 127,54 C127,49.582 123.418,46 119,46 L119,46 Z M163,72.256 L151,60 L131.118,80.222 L123,72 L107,86.674 L107,46 C107,43.792 108.792,42 111,42 L159,42 C161.208,42 163,43.792 163,46 L163,72.256 L163,72.256 Z M163,94 C163,96.208 161.208,98 159,98 L148.664,98 L133.928,83.07 L151,65.998 L163,77.998 L163,94 L163,94 Z M111,98 C108.792,98 107,96.208 107,94 L107,92.122 L122.89,77.89 L143.002,98 L111,98 L111,98 Z M159,38 L111,38 C106.582,38 103,41.582 103,46 L103,94 C103,98.418 106.582,102 111,102 L159,102 C163.418,102 167,98.418 167,94 L167,46 C167,41.582 163.418,38 159,38 L159,38 Z" id="ic_photo"></path>
            </g>
        </g>
    </g>
</svg>