<svg width="124" height="131" viewBox="0 0 124 131" fill="none" xmlns="http://www.w3.org/2000/svg">
<g clip-path="url(#clip0)">
<mask id="mask0" mask-type="alpha" maskUnits="userSpaceOnUse" x="7" y="-20" width="110" height="140">
<path d="M61.9444 119.023C91.8736 119.023 116.136 94.7651 116.136 64.8417C116.136 34.9183 89.7611 -19.0674 59.8319 -19.0674C29.9028 -19.0674 7.75293 34.9183 7.75293 64.8417C7.75293 94.7651 32.0153 119.023 61.9444 119.023Z" fill="white"/>
</mask>
<g mask="url(#mask0)">
<path d="M82.7763 85.1938C82.7763 85.1938 76.6068 82.5442 76.787 82.7244C74.7517 87.1333 66.865 89.3378 61.3527 90.9064C55.8723 89.3378 47.4131 87.1121 45.9502 82.788L40.1942 85.2786C31.1201 89.0622 25.2051 97.9437 25.2051 107.779V121.07H97.5109V107.578C97.5109 97.8483 91.7125 89.041 82.7763 85.1938Z" fill="#EFD203"/>
<path d="M74.1586 75.4962C72.7276 78.7499 74.8477 81.389 76.7875 82.7138C74.7523 87.1227 67.968 90.8958 61.3532 90.8958C54.7385 90.8958 47.3288 87.0909 45.9189 82.7138C47.8164 81.5797 50.0107 78.8241 48.5161 75.4962H74.1586Z" fill="#FFE900"/>
<g opacity="0.3">
<path opacity="0.3" d="M74.1582 75.4962H48.5157C49.5015 77.6795 48.9185 80.2549 47.0952 81.8129L50.551 84.7381C52.5333 86.4338 55.0562 87.3665 57.6639 87.3877H65.0206C67.6283 87.3771 70.1513 86.4444 72.1335 84.7381L75.6635 81.7917C73.8296 80.2655 73.2148 77.7007 74.1582 75.4962Z" fill="#534D94"/>
</g>
<g opacity="0.3">
<path opacity="0.3" d="M82.7763 85.1938C82.7763 85.1938 76.6068 82.5442 76.787 82.7244C74.7517 87.1333 67.9674 90.9064 61.3527 90.9064C54.738 90.9064 47.4131 87.1227 45.9502 82.788L40.1942 85.2786C31.1201 89.0622 25.2051 97.9437 25.2051 107.779V112.188C25.2051 102.565 32.6996 89.3378 44.8266 87.1333C46.3 91.4681 54.738 95.3047 61.3527 95.3047C67.9674 95.3047 75.8436 91.5317 77.8895 87.1227C90.0164 90.4294 97.5109 102.247 97.5109 111.987V107.578C97.5109 97.8483 91.7125 89.041 82.7763 85.1938Z" fill="white"/>
</g>
<path d="M61.3531 91.7754C54.1977 91.7754 46.5972 87.6632 45.0813 82.9575C44.9753 82.576 45.1343 82.1626 45.4736 81.9613C46.9364 81.0816 49.0459 78.8135 47.7103 75.8566C47.5407 75.4008 47.7633 74.8921 48.2191 74.7225C48.6325 74.5636 49.0989 74.7437 49.3109 75.1359C50.7738 78.3896 49.2155 81.3996 46.9894 83.0741C48.7491 86.7836 55.3002 90.0267 61.3425 90.0267C67.1515 90.0267 73.3634 86.9213 75.6425 82.9787C73.5648 81.3148 71.8899 78.4426 73.3422 75.1465C73.5648 74.7119 74.0948 74.5318 74.5294 74.7543C74.9323 74.9557 75.1231 75.4326 74.9641 75.8566C73.48 79.2481 76.6177 81.5585 77.275 82.0249C77.6354 82.2686 77.7732 82.735 77.593 83.1271C75.3351 87.9706 68.2116 91.7754 61.3531 91.7754Z" fill="black"/>
<path d="M83.4018 121.949C82.9142 121.949 82.522 121.557 82.522 121.07V104.759C82.522 104.271 82.9142 103.879 83.4018 103.879C83.8894 103.879 84.2817 104.271 84.2817 104.759V121.07C84.2817 121.557 83.8894 121.949 83.4018 121.949Z" fill="black"/>
<path d="M39.3144 121.949C38.8268 121.949 38.4346 121.557 38.4346 121.07V104.759C38.4346 104.271 38.8268 103.879 39.3144 103.879C39.802 103.879 40.1942 104.271 40.1942 104.759V121.07C40.1942 121.557 39.802 121.949 39.3144 121.949Z" fill="black"/>
<path d="M97.5111 121.949C97.0235 121.949 96.6313 121.557 96.6313 121.07V107.578C96.6419 98.1875 91.0554 89.7088 82.4266 85.9993L76.4268 83.3497C75.9815 83.1483 75.7801 82.629 75.9815 82.1839C76.1829 81.7387 76.7024 81.5374 77.1476 81.7387L83.1475 84.3883C92.4123 88.384 98.4122 97.4986 98.4016 107.578V121.07C98.391 121.557 97.9881 121.949 97.5111 121.949Z" fill="black"/>
<path d="M25.2051 121.949C24.7175 121.949 24.3253 121.557 24.3253 121.07V107.779C24.304 97.5834 30.4417 88.3839 39.855 84.4731L45.5898 81.9825C46.0456 81.8129 46.5545 82.0461 46.7241 82.5018C46.8831 82.9258 46.6923 83.4027 46.2894 83.604L40.544 86.0841C31.7774 89.7193 26.0637 98.2829 26.0849 107.779V121.07C26.0849 121.557 25.6927 121.949 25.2051 121.949Z" fill="black"/>
<path d="M61.141 98.6326C51.0706 98.6326 41.1273 93.344 38.4878 86.4974C38.3076 86.0417 38.5408 85.5329 38.9966 85.3528C39.4525 85.1726 39.9613 85.4058 40.1415 85.8615C42.4948 91.9344 51.9186 96.8733 61.1516 96.8733C71.7309 96.8733 79.8297 91.0017 82.395 85.215C82.5964 84.7699 83.1158 84.5685 83.561 84.7699C84.0062 84.9712 84.2077 85.4905 84.0062 85.9357C80.7519 93.2804 71.1373 98.6326 61.141 98.6326Z" fill="black"/>
<g opacity="0.5">
<path opacity="0.5" d="M61.1518 91.1925C60.6642 91.1925 60.272 90.8004 60.272 90.3129V83.5087C60.272 83.0212 60.6642 82.629 61.1518 82.629C61.6394 82.629 62.0317 83.0212 62.0317 83.5087V90.3129C62.0317 90.8004 61.6394 91.1925 61.1518 91.1925Z" fill="black"/>
<path opacity="0.5" d="M56.5293 90.4613C56.0416 90.4613 55.6494 90.0691 55.6494 89.5816C55.6494 89.465 55.6706 89.3485 55.7236 89.2425C56.4762 87.4407 56.7837 85.4906 56.6035 83.5511C56.5823 83.0636 56.9533 82.6502 57.4409 82.629C57.9285 82.6078 58.3419 82.9788 58.3631 83.4663C58.5645 85.6602 58.2253 87.8753 57.3879 89.9208C57.2501 90.2599 56.9003 90.4825 56.5293 90.4613Z" fill="black"/>
<path opacity="0.5" d="M52.4594 89.0836C51.9718 89.0836 51.5796 88.6808 51.5796 88.1933C51.5796 87.9601 51.675 87.727 51.8446 87.5574C52.7244 86.7413 52.9577 85.745 53.0213 82.8835C53.0213 82.3959 53.4135 82.0038 53.9011 82.0038C54.3887 82.0038 54.7809 82.3959 54.7809 82.8835C54.7173 85.4483 54.5477 87.3666 53.0213 88.7868C52.8834 88.967 52.682 89.0624 52.4594 89.0836Z" fill="black"/>
<path opacity="0.5" d="M48.4517 86.4869C47.9641 86.5081 47.5507 86.1265 47.5295 85.639C47.5189 85.3634 47.6355 85.0985 47.8475 84.9183L48.0489 84.7275C49.1619 83.8797 49.8404 82.5972 49.9146 81.1982C49.9782 80.7107 50.434 80.3716 50.9216 80.4352C51.4092 80.4987 51.7485 80.9545 51.6849 81.442C51.5471 83.2225 50.6672 84.8653 49.268 85.9782L49.0135 86.2325C48.8545 86.3915 48.6531 86.4763 48.4517 86.4869Z" fill="black"/>
<path opacity="0.5" d="M65.7625 90.4613C65.4126 90.4613 65.084 90.2493 64.9462 89.9208C64.1194 87.8753 63.7908 85.6602 63.9922 83.4663C64.0134 82.9788 64.4268 82.5973 64.9144 82.629C65.402 82.6502 65.7837 83.0636 65.7519 83.5511C65.5717 85.4906 65.8791 87.4513 66.6317 89.2425C66.8225 89.6876 66.5999 90.2069 66.1547 90.3977C66.0381 90.4507 65.9003 90.4719 65.7625 90.4613Z" fill="black"/>
<path opacity="0.5" d="M69.9598 88.967C69.7372 88.967 69.5146 88.8822 69.3556 88.7338C67.8821 87.3454 67.5959 85.692 67.5005 82.9364C67.5005 82.4489 67.8927 82.0568 68.3803 82.0568C68.8679 82.0568 69.2602 82.4489 69.2602 82.9364C69.3238 85.586 69.6312 86.6247 70.5534 87.4938C70.9138 87.8223 70.9244 88.384 70.5958 88.7444C70.4262 88.9246 70.193 89.02 69.9492 89.02L69.9598 88.967Z" fill="black"/>
<path opacity="0.5" d="M73.7552 86.3703C73.5326 86.3703 73.3206 86.2855 73.151 86.1371L72.939 85.9464C71.5927 84.8653 70.7553 83.265 70.6493 81.5374C70.5857 81.0499 70.9249 80.6048 71.4125 80.5306C71.9001 80.4564 72.3453 80.8061 72.4195 81.2937C72.4726 82.6185 73.1192 83.8585 74.1792 84.664L74.3912 84.8653C74.7517 85.1939 74.7623 85.7556 74.4336 86.1159C74.264 86.2961 74.0308 86.3915 73.7976 86.3915L73.7552 86.3703Z" fill="black"/>
</g>
<path d="M39.3141 57.5955V49.6573C39.3141 47.0077 37.353 46.128 36.1445 47.0077C34.2152 48.3537 36.6745 54.0556 36.6745 54.0556C35.2329 54.9565 36.8547 58.2526 39.3141 57.5955Z" fill="#FFE900"/>
<path d="M38.6572 58.5706C37.2791 58.5282 36.0601 57.6803 35.5301 56.4085C35.1166 55.603 35.159 54.6386 35.6361 53.8649C34.947 52.1055 33.5266 47.7602 35.6361 46.287C36.4629 45.7041 37.5441 45.6405 38.4346 46.128C39.643 46.8805 40.3215 48.2371 40.1943 49.6573V57.5955C40.2049 58.0089 39.9292 58.3692 39.537 58.4752C39.2508 58.5494 38.954 58.5706 38.6572 58.5706ZM37.1307 47.58C36.9505 47.58 36.7809 47.633 36.6325 47.739C35.8481 48.2901 36.4417 51.3319 37.4699 53.7165C37.6395 54.1086 37.5017 54.575 37.1307 54.8081C36.9399 54.9353 36.9823 55.3593 37.1307 55.6878C37.3639 56.2283 37.841 56.6311 38.4134 56.7689V49.6573C38.4982 48.8942 38.159 48.1417 37.5335 47.6966C37.4169 47.6224 37.2791 47.5906 37.1307 47.58Z" fill="black"/>
<path d="M36.664 54.9564C36.1764 54.9564 35.7842 54.5643 35.7842 54.0768C35.7842 53.78 35.9326 53.5044 36.187 53.3349L36.5262 53.1229C36.9184 52.8367 37.4697 52.9321 37.7559 53.3243C38.0421 53.7164 37.9467 54.2675 37.5545 54.5537C37.5333 54.5749 37.5015 54.5855 37.4803 54.6067L37.1516 54.8186C37.0032 54.9034 36.8336 54.9564 36.664 54.9564Z" fill="black"/>
<path d="M83.4019 57.5955V49.6573C83.4019 47.0077 85.363 46.128 86.5714 47.0077C88.5007 48.3537 86.0414 54.0556 86.0414 54.0556C87.4831 54.9565 85.8612 58.2526 83.4019 57.5955Z" fill="#FFE900"/>
<path d="M64.1095 80.5198H58.6078C55.4277 80.5198 52.3747 79.248 50.138 76.9905L42.8449 69.6988C40.587 67.452 39.3255 64.4102 39.3149 61.2307V39.6098C39.3149 17.7559 83.4023 17.7559 83.4023 39.6098V61.2307C83.4023 64.4102 82.1303 67.4625 79.8724 69.6988L72.5792 76.9905C70.3319 79.248 67.2896 80.5092 64.1095 80.5198Z" fill="#FFE900"/>
<g opacity="0.3">
<path opacity="0.3" d="M72.5792 72.5817C70.3319 74.8391 67.2896 76.1003 64.1095 76.1109H58.6078C55.4277 76.1109 52.3747 74.8391 50.138 72.5817L42.8449 65.2899C40.587 63.0431 39.3255 60.0013 39.3149 56.8218V61.2307C39.3149 64.4103 40.587 67.4626 42.8449 69.6989L50.138 76.9906C52.3853 79.2481 55.4277 80.5093 58.6078 80.5199H64.1201C67.3002 80.5199 70.3531 79.2481 72.5898 76.9906L79.8724 69.6989C82.1303 67.452 83.3917 64.4103 83.4023 61.2307V56.8218C83.4023 60.0013 82.1303 63.0537 79.8724 65.2899L72.5792 72.5817Z" fill="#CC7E54"/>
</g>
<path d="M84.0482 58.5706C83.7514 58.5706 83.4546 58.5282 83.1683 58.454C82.7867 58.348 82.5111 57.9983 82.5111 57.5955V49.6573C82.3839 48.2477 83.0729 46.8805 84.2708 46.128C85.1506 45.6617 86.2107 45.7147 87.0269 46.287C89.147 47.7602 87.7159 52.1161 87.0269 53.8649C87.5039 54.6386 87.5463 55.5924 87.1329 56.4085C86.6135 57.6591 85.4156 58.507 84.0482 58.5706ZM85.564 47.58C85.405 47.58 85.2566 47.6224 85.1188 47.6966C84.504 48.1523 84.1754 48.9048 84.2708 49.6573V56.7688C84.8432 56.6311 85.3202 56.2283 85.5534 55.6878C85.7018 55.3487 85.7443 54.9247 85.5534 54.8081C85.193 54.575 85.0446 54.1086 85.2142 53.7165C86.2425 51.3319 86.8361 48.2901 86.0517 47.739C85.9245 47.6436 85.7549 47.58 85.564 47.58Z" fill="black"/>
<path d="M86.0417 54.9565C85.8721 54.9565 85.7025 54.9035 85.5647 54.8187L85.2361 54.6067C84.8121 54.363 84.6637 53.8224 84.9075 53.4091C85.1513 52.9852 85.6919 52.8368 86.1053 53.0805C86.1371 53.0911 86.1583 53.1123 86.1795 53.1335L86.5188 53.3455C86.9322 53.6105 87.0488 54.151 86.7838 54.5643C86.6248 54.7975 86.3491 54.9565 86.0417 54.9565Z" fill="black"/>
<path d="M64.1093 81.3996H58.6077C55.1943 81.4102 51.9188 80.0536 49.5125 77.6371L42.1981 70.3242C39.7706 67.9184 38.4138 64.6435 38.4244 61.2308V39.6099C38.4244 34.2365 40.9473 29.7322 45.7069 26.5845C49.8835 23.8501 55.4063 22.3451 61.3532 22.3451C67.3001 22.3451 72.8123 23.8501 76.9995 26.5845C81.7591 29.7428 84.282 34.2471 84.282 39.6099V61.2308C84.2926 64.6435 82.9358 67.9184 80.5189 70.3242L73.2045 77.6371C70.7982 80.0536 67.5227 81.4102 64.1093 81.3996ZM61.3532 24.0938C51.1556 24.0938 40.1947 28.9479 40.1947 39.5993V61.2202C40.1947 64.1559 41.3607 66.9751 43.449 69.0524L50.7739 76.3759C52.841 78.4638 55.6608 79.6296 58.6077 79.6296H64.1199C67.0563 79.6296 69.876 78.4638 71.9431 76.3759L79.268 69.0524C81.3563 66.9857 82.5224 64.1665 82.5224 61.2202V39.5993C82.5224 34.883 80.0631 30.4953 76.0349 28.0471C72.1657 25.5034 66.9609 24.0938 61.3532 24.0938Z" fill="black"/>
<g opacity="0.3">
<path opacity="0.3" d="M83.4011 43.4889V39.1754C83.4647 32.0108 77.7192 26.1499 70.5533 26.0863C70.5215 26.0863 70.4791 26.0863 70.4473 26.0863H52.5325C45.303 26.0863 39.4409 31.9366 39.4409 39.1648C39.4409 39.1754 39.4409 39.1754 39.4409 39.186V43.0332C41.6458 40.3836 43.8507 38.2215 44.9532 34.9148C57.0801 42.6093 72.5038 38.6137 79.8711 39.4085C82.9029 39.7371 83.3163 41.6342 83.4011 43.4889Z" fill="#CC7E54"/>
</g>
<path d="M75.8115 19.4729C83.6452 23.0976 88.9031 27.1886 85.9773 41.5071C85.5745 43.4784 83.3908 42.5987 83.3908 42.5987C83.3908 42.5987 83.9632 36.123 79.8608 35.6779C72.5253 34.883 54.8861 39.292 42.7698 29.3718C42.7698 33.7808 41.6673 35.9853 39.4624 39.292C39.4624 39.292 36.3989 39.292 36.1551 37.0875C35.0526 27.1674 38.36 22.7584 42.7698 23.8606C53.7731 12.8701 71.9317 17.6712 75.8115 19.4729Z" fill="white"/>
<g opacity="0.3">
<path opacity="0.3" d="M42.7494 28.0894C53.7739 17.0458 71.9325 21.8787 75.8123 23.6804C81.6319 26.383 86.0417 29.3824 86.6884 36.6529C87.5682 26.1922 82.6708 22.6524 75.8123 19.4834C71.9007 17.6711 53.7739 12.87 42.7494 23.8924C38.5622 22.8431 35.3714 26.7964 36.0181 35.7096C36.5163 29.7745 39.3148 27.2309 42.7494 28.0894Z" fill="white"/>
</g>
<path d="M84.4404 43.7009C83.9634 43.6903 83.497 43.6055 83.0518 43.4254C82.702 43.277 82.4794 42.9272 82.5112 42.5457C82.5112 42.4927 82.9564 36.9179 79.7444 36.5788C77.3911 36.441 75.0378 36.4622 72.6951 36.653C64.1935 37.0875 52.7026 37.6704 43.5438 31.1312C43.2894 34.5333 42.2081 36.7165 40.1516 39.8007C39.9926 40.0657 39.717 40.214 39.4096 40.1928C38.074 40.1928 35.498 39.5569 35.233 37.2041C34.5334 30.9404 35.5192 26.2983 38.0209 24.1256C39.2294 23.0658 40.8513 22.6206 42.4307 22.928C53.8899 11.948 72.1863 16.8551 76.1403 18.6886C83.815 22.2179 89.9209 26.4149 86.7937 41.7084C86.6983 42.4503 86.2531 43.1074 85.5959 43.4678C85.2355 43.6373 84.8327 43.7221 84.4404 43.7009ZM84.3026 41.9416C84.4722 41.9628 84.6525 41.9416 84.8115 41.8674C84.8645 41.8674 85.0235 41.7508 85.1083 41.3481C87.9704 27.3051 82.6702 23.6275 75.4088 20.289C71.1156 18.6144 66.5468 17.7559 61.9356 17.7559H61.6706C56.381 17.7559 48.9394 18.9536 43.3742 24.5177C43.1516 24.7403 42.8336 24.8251 42.5368 24.7509C41.3813 24.4012 40.1198 24.6661 39.2082 25.461C37.1941 27.2203 36.3991 31.4279 37.0245 37.0133C37.1411 37.999 38.3284 38.2957 39.0068 38.4017C41.0209 35.2964 41.8689 33.2615 41.8689 29.3824C41.8689 28.8949 42.2717 28.5028 42.7594 28.5028C42.9608 28.5028 43.1516 28.5769 43.3106 28.7041C52.1302 35.9323 63.9921 35.3282 72.6315 34.8724C75.059 34.6711 77.5077 34.6499 79.9458 34.7982C83.974 35.2434 84.3344 40.0233 84.292 41.931H84.3026V41.9416Z" fill="black"/>
<path d="M46.0564 25.8637C45.9292 25.8637 45.802 25.8425 45.6854 25.7895C44.7313 25.302 43.7137 24.9523 42.6642 24.7721C42.1766 24.7191 41.8268 24.2846 41.8692 23.8076C41.9222 23.3201 42.3568 22.9704 42.8338 23.0128C44.0847 23.2141 45.2931 23.6169 46.4274 24.1892C46.8726 24.3906 47.0634 24.9099 46.862 25.355C46.7242 25.6624 46.4062 25.8637 46.0564 25.8637Z" fill="black"/>
<path d="M75.3554 39.08C67.4157 38.9952 61.5854 36.229 55.9565 35.2858L75.3554 39.08Z" fill="white"/>
<path d="M75.3558 39.9703C70.7446 39.8007 66.1758 38.9953 61.7766 37.5963C59.8261 37.0134 57.8332 36.5364 55.8297 36.1549C55.3421 36.0701 55.0135 35.6144 55.0983 35.1268C55.1831 34.6393 55.6389 34.3107 56.1265 34.3955C58.183 34.7877 60.2183 35.2752 62.2324 35.8687C66.4832 37.2359 70.9036 38.0308 75.3664 38.211C75.854 38.211 76.2463 38.6031 76.2463 39.0906C76.2463 39.5782 75.854 39.9703 75.3664 39.9703H75.3558Z" fill="black"/>
<path d="M39.3144 45.259C38.8268 45.259 38.4346 44.8668 38.4346 44.3793V39.1861C38.4346 38.6985 38.8268 38.3064 39.3144 38.3064C39.802 38.3064 40.1942 38.6985 40.1942 39.1861V44.3793C40.1942 44.8562 39.802 45.259 39.3144 45.259Z" fill="black"/>
<path d="M77.222 47.8979C77.0523 47.8979 76.8827 47.8449 76.7343 47.7495C75.2609 46.7744 73.1408 47.1242 70.9041 47.4951C69.7168 47.7283 68.519 47.8661 67.3105 47.8979C66.8229 47.8979 66.4307 47.5057 66.4307 47.0182C66.4307 46.5307 66.8229 46.1385 67.3105 46.1385C68.4236 46.0961 69.526 45.969 70.6179 45.757C73.109 45.3436 75.6637 44.8773 77.7202 46.2869C78.123 46.5625 78.229 47.103 77.964 47.5057C77.7944 47.7495 77.5188 47.8979 77.222 47.8979Z" fill="black"/>
<path d="M55.1829 48.343C54.9497 48.343 54.7271 48.2476 54.5575 48.0886C53.243 46.785 47.5929 46.1809 45.653 47.1559C45.2078 47.3573 44.6884 47.1665 44.487 46.7214C44.2962 46.2975 44.4658 45.7993 44.8686 45.5768C47.3173 44.3473 53.826 44.8667 55.7977 46.8486C56.1369 47.1983 56.1369 47.7494 55.7871 48.0992C55.6281 48.2476 55.4055 48.3324 55.1829 48.343Z" fill="black"/>
<path d="M50.3387 53.6317C51.0705 53.6317 51.6638 53.0385 51.6638 52.3069C51.6638 51.5752 51.0705 50.9821 50.3387 50.9821C49.6069 50.9821 49.0137 51.5752 49.0137 52.3069C49.0137 53.0385 49.6069 53.6317 50.3387 53.6317Z" fill="black"/>
<path d="M50.3387 54.5112C49.1196 54.5112 48.1338 53.5256 48.1338 52.3068C48.1338 51.0879 49.1196 50.1023 50.3387 50.1023C51.5577 50.1023 52.5436 51.0879 52.5436 52.3068C52.5436 53.5256 51.5471 54.5112 50.3387 54.5112ZM50.3387 51.8616C50.0949 51.8616 49.8935 52.063 49.8935 52.3068C49.8935 52.5505 50.0949 52.7519 50.3387 52.7519C50.5825 52.7519 50.7839 52.5505 50.7839 52.3068C50.7839 52.063 50.5719 51.8616 50.3387 51.8616Z" fill="black"/>
<path d="M54.3035 51.4271H46.3637C45.8761 51.4271 45.4839 51.0349 45.4839 50.5474C45.4839 50.0599 45.8761 49.6677 46.3637 49.6677H54.3035C54.7911 49.6677 55.1833 50.0599 55.1833 50.5474C55.1833 51.0349 54.7911 51.4271 54.3035 51.4271Z" fill="black"/>
<path d="M61.3527 60.2451C60.5364 60.1709 59.7626 59.8848 59.0842 59.429C58.6919 59.1323 58.6177 58.5812 58.9145 58.1996C59.1796 57.8393 59.6778 57.7439 60.07 57.9665C60.4516 58.2314 60.8968 58.4116 61.3527 58.4858C61.8191 58.4116 62.2537 58.2314 62.6353 57.9665C63.0593 57.7227 63.6 57.8605 63.8438 58.2738C64.077 58.6554 63.971 59.1535 63.6106 59.429C62.9533 59.8848 62.1689 60.1709 61.3527 60.2451Z" fill="black"/>
<path d="M72.5047 53.6317C73.2366 53.6317 73.8298 53.0385 73.8298 52.3069C73.8298 51.5752 73.2366 50.9821 72.5047 50.9821C71.7729 50.9821 71.1797 51.5752 71.1797 52.3069C71.1797 53.0385 71.7729 53.6317 72.5047 53.6317Z" fill="black"/>
<path d="M72.5042 54.5112C71.2852 54.5112 70.2993 53.5256 70.2993 52.3068C70.2993 51.0879 71.2852 50.1023 72.5042 50.1023C73.7232 50.1023 74.7091 51.0879 74.7091 52.3068C74.7091 53.5256 73.7126 54.5112 72.5042 54.5112ZM72.5042 51.8616C72.2604 51.8616 72.059 52.063 72.059 52.3068C72.059 52.5505 72.2604 52.7519 72.5042 52.7519C72.748 52.7519 72.9494 52.5505 72.9494 52.3068C72.9494 52.063 72.748 51.8616 72.5042 51.8616Z" fill="black"/>
<path d="M76.3421 51.4271H68.4023C67.9147 51.4271 67.5225 51.0349 67.5225 50.5474C67.5225 50.0599 67.9147 49.6677 68.4023 49.6677H76.3421C76.8297 49.6677 77.2219 50.0599 77.2219 50.5474C77.2219 51.0349 76.8297 51.4271 76.3421 51.4271Z" fill="black"/>
<g opacity="0.3">
<path opacity="0.3" d="M80.8476 69.4552L72.1552 76.8211C70.1729 78.5168 67.65 79.4495 65.0423 79.4707H57.675C55.0672 79.4601 52.5443 78.5274 50.562 76.8211L41.8697 69.4552C40.2478 68.088 39.3149 66.0743 39.3149 63.9546V68.3635C39.3149 70.4832 40.2478 72.4969 41.8591 73.8641L50.5514 81.23C52.5337 82.9258 55.0567 83.8585 57.6644 83.8797H65.0211C67.6288 83.8691 70.1517 82.9364 72.134 81.23L80.8264 73.8641C82.4483 72.4969 83.3917 70.4832 83.3917 68.3635V63.9546C83.4023 66.0743 82.4695 68.088 80.8476 69.4552Z" fill="#CC7E54"/>
</g>
<g opacity="0.3">
<path opacity="0.3" d="M76.6392 66.0849C75.4944 67.3673 73.5545 67.5157 72.2294 66.424L70.6182 65.0886C68.9115 63.6685 66.7596 62.8842 64.5335 62.8842H58.1838C55.9683 62.8842 53.8164 63.6685 52.1097 65.0886L50.509 66.4134C49.184 67.5051 47.2441 67.3567 46.0992 66.0743L39.3149 58.4752V61.7819L46.078 69.3916C47.2229 70.674 49.1628 70.8224 50.4878 69.7308L52.0885 68.3954C53.7952 66.9752 55.9471 66.1909 58.1626 66.1909H64.5123C66.7278 66.1909 68.8797 66.9752 70.5864 68.3954L72.187 69.7308C73.5121 70.8224 75.452 70.674 76.5968 69.3916L83.4129 61.7819V58.4752L76.6392 66.0849Z" fill="white"/>
</g>
<path d="M61.3526 69.8896C60.0487 69.9638 58.7343 69.7095 57.5576 69.1265C57.1548 68.8616 57.0382 68.3105 57.3138 67.8971C57.5788 67.4944 58.13 67.3778 58.5434 67.6534C59.4339 68.0137 60.3985 68.1833 61.3632 68.1197C62.3278 68.1727 63.2925 68.0137 64.1829 67.6534C64.5857 67.3884 65.1369 67.4944 65.4126 67.8971C65.6776 68.2999 65.5716 68.851 65.1687 69.1265C63.9815 69.7095 62.667 69.9638 61.3526 69.8896Z" fill="black"/>
</g>
</g>
<defs>
<clipPath id="clip0">
<rect width="123.868" height="129.974" fill="white" transform="translate(0 0.978394)"/>
</clipPath>
</defs>
</svg>
