<svg width="155" height="196" viewBox="0 0 155 196" fill="none" xmlns="http://www.w3.org/2000/svg">
<mask id="mask0" mask-type="alpha" maskUnits="userSpaceOnUse" x="0" y="0" width="155" height="196">
<path d="M77.5 196C120.302 196 155 161.57 155 119.097C155 76.6252 117.281 0 74.4789 0C31.6768 0 0 76.6252 0 119.097C0 161.57 34.6979 196 77.5 196Z" fill="white"/>
</mask>
<g mask="url(#mask0)">
<path d="M104.579 153.101C104.579 153.101 96.813 149.766 97.0398 149.993C94.4778 155.543 84.5499 158.318 77.6111 160.292C70.7123 158.318 60.0639 155.516 58.2224 150.073L50.9767 153.208C39.5543 157.971 32.1084 169.151 32.1084 181.532V198.262H123.127V181.278C123.127 169.031 115.828 157.944 104.579 153.101Z" fill="#EFD203"/>
<path d="M93.7303 140.894C91.9289 144.99 94.5977 148.312 97.0396 149.98C94.4776 155.529 85.9375 160.279 77.6109 160.279C69.2843 160.279 59.9569 155.489 58.1821 149.98C60.5707 148.552 63.3329 145.083 61.4514 140.894H93.7303Z" fill="#FFE900"/>
<g opacity="0.3">
<path opacity="0.3" d="M93.7296 140.894H61.4507C62.6917 143.642 61.9577 146.884 59.6626 148.845L64.0127 152.528C66.508 154.662 69.6839 155.836 72.9665 155.863H82.2271C85.5097 155.85 88.6856 154.676 91.1809 152.528L95.6244 148.819C93.3159 146.898 92.542 143.669 93.7296 140.894Z" fill="#534D94"/>
</g>
<g opacity="0.3">
<path opacity="0.3" d="M104.579 153.102C104.579 153.102 96.8125 149.766 97.0393 149.993C94.4773 155.543 85.9372 160.293 77.6106 160.293C69.284 160.293 60.0634 155.53 58.2219 150.073L50.9762 153.208C39.5538 157.971 32.1079 169.151 32.1079 181.532V187.082C32.1079 174.968 41.5421 158.318 56.8075 155.543C58.6623 161 69.284 165.829 77.6106 165.829C85.9372 165.829 95.8517 161.08 98.4271 155.53C113.693 159.692 123.127 174.568 123.127 186.828V181.278C123.127 169.031 115.828 157.944 104.579 153.102Z" fill="white"/>
</g>
<path d="M77.6097 161.386C68.6026 161.386 59.035 156.21 57.1269 150.286C56.9934 149.806 57.1936 149.286 57.6206 149.032C59.462 147.925 62.1175 145.07 60.4362 141.348C60.2226 140.774 60.5029 140.134 61.0767 139.92C61.5971 139.72 62.1842 139.947 62.4511 140.44C64.2925 144.536 62.331 148.325 59.5288 150.433C61.7439 155.103 69.9904 159.185 77.5964 159.185C84.9089 159.185 92.7284 155.276 95.5973 150.313C92.9819 148.218 90.8736 144.603 92.7017 140.454C92.9819 139.907 93.6491 139.68 94.1962 139.96C94.7033 140.214 94.9435 140.814 94.7433 141.348C92.8752 145.617 96.825 148.525 97.6523 149.112C98.106 149.419 98.2794 150.006 98.0526 150.5C95.2103 156.597 86.2432 161.386 77.6097 161.386Z" fill="black"/>
<path d="M105.365 199.369C104.752 199.369 104.258 198.875 104.258 198.262V177.729C104.258 177.116 104.752 176.622 105.365 176.622C105.979 176.622 106.473 177.116 106.473 177.729V198.262C106.473 198.875 105.979 199.369 105.365 199.369Z" fill="black"/>
<path d="M49.8683 199.369C49.2545 199.369 48.7607 198.875 48.7607 198.262V177.729C48.7607 177.116 49.2545 176.622 49.8683 176.622C50.4821 176.622 50.9758 177.116 50.9758 177.729V198.262C50.9758 198.875 50.4821 199.369 49.8683 199.369Z" fill="black"/>
<path d="M123.127 199.369C122.513 199.369 122.019 198.875 122.019 198.262V181.278C122.032 169.458 115 158.785 104.138 154.115L96.5857 150.78C96.0252 150.526 95.7717 149.873 96.0252 149.312C96.2788 148.752 96.9326 148.499 97.493 148.752L105.046 152.087C116.708 157.117 124.261 168.591 124.248 181.278V198.262C124.234 198.875 123.727 199.369 123.127 199.369Z" fill="black"/>
<path d="M32.1076 199.369C31.4938 199.369 31.0001 198.876 31.0001 198.262V181.532C30.9734 168.697 38.6995 157.117 50.5489 152.194L57.7679 149.059C58.3417 148.845 58.9822 149.139 59.1957 149.713C59.3959 150.246 59.1557 150.847 58.6486 151.1L51.4162 154.222C40.3808 158.798 33.1885 169.578 33.2152 181.532V198.262C33.2152 198.876 32.7214 199.369 32.1076 199.369Z" fill="black"/>
<path d="M77.3437 170.018C64.667 170.018 52.1505 163.361 48.8278 154.742C48.601 154.169 48.8946 153.528 49.4683 153.301C50.0421 153.075 50.6826 153.368 50.9095 153.942C53.8718 161.586 65.7346 167.803 77.3571 167.803C90.6743 167.803 100.869 160.412 104.098 153.128C104.352 152.568 105.006 152.314 105.566 152.568C106.127 152.821 106.38 153.475 106.127 154.035C102.03 163.281 89.927 170.018 77.3437 170.018Z" fill="black"/>
<g opacity="0.5">
<path opacity="0.5" d="M77.3575 160.652C76.7437 160.652 76.25 160.159 76.25 159.545V150.98C76.25 150.366 76.7437 149.873 77.3575 149.873C77.9714 149.873 78.4651 150.366 78.4651 150.98V159.545C78.4651 160.159 77.9714 160.652 77.3575 160.652Z" fill="black"/>
<path opacity="0.5" d="M71.5397 159.732C70.9259 159.732 70.4321 159.238 70.4321 158.625C70.4321 158.478 70.4588 158.331 70.5255 158.198C71.473 155.93 71.8599 153.475 71.6331 151.033C71.6064 150.42 72.0734 149.899 72.6872 149.873C73.3011 149.846 73.8215 150.313 73.8482 150.927C74.1017 153.688 73.6747 156.477 72.6205 159.052C72.4471 159.478 72.0067 159.759 71.5397 159.732Z" fill="black"/>
<path opacity="0.5" d="M66.4152 157.997C65.8013 157.997 65.3076 157.491 65.3076 156.877C65.3076 156.583 65.4277 156.29 65.6412 156.076C66.7488 155.049 67.0423 153.795 67.1224 150.193C67.1224 149.579 67.6161 149.085 68.2299 149.085C68.8437 149.085 69.3375 149.579 69.3375 150.193C69.2574 153.421 69.0439 155.836 67.1224 157.624C66.9489 157.851 66.6954 157.971 66.4152 157.997Z" fill="black"/>
<path opacity="0.5" d="M61.3707 154.729C60.7569 154.756 60.2365 154.275 60.2098 153.662C60.1965 153.315 60.3433 152.981 60.6101 152.754L60.8637 152.514C62.2648 151.447 63.1188 149.833 63.2122 148.072C63.2923 147.458 63.866 147.031 64.4799 147.111C65.0937 147.191 65.5207 147.765 65.4406 148.378C65.2672 150.62 64.1596 152.688 62.3982 154.089L62.078 154.409C61.8778 154.609 61.6243 154.716 61.3707 154.729Z" fill="black"/>
<path opacity="0.5" d="M83.1623 159.732C82.7219 159.732 82.3083 159.465 82.1348 159.052C81.094 156.477 80.6803 153.688 80.9339 150.927C80.9605 150.313 81.481 149.833 82.0948 149.873C82.7086 149.899 83.189 150.42 83.1489 151.033C82.9221 153.475 83.3091 155.943 84.2565 158.198C84.4967 158.758 84.2164 159.412 83.656 159.652C83.5092 159.719 83.3357 159.745 83.1623 159.732Z" fill="black"/>
<path opacity="0.5" d="M88.4464 157.851C88.1661 157.851 87.8859 157.744 87.6858 157.557C85.831 155.81 85.4707 153.728 85.3506 150.26C85.3506 149.646 85.8443 149.152 86.4581 149.152C87.0719 149.152 87.5657 149.646 87.5657 150.26C87.6457 153.595 88.0327 154.902 89.1936 155.996C89.6473 156.41 89.6606 157.117 89.247 157.571C89.0335 157.797 88.7399 157.917 88.433 157.917L88.4464 157.851Z" fill="black"/>
<path opacity="0.5" d="M93.2231 154.582C92.9429 154.582 92.676 154.475 92.4625 154.289L92.1956 154.048C90.501 152.688 89.4468 150.673 89.3134 148.498C89.2333 147.885 89.6603 147.324 90.2741 147.231C90.8879 147.138 91.4484 147.578 91.5418 148.192C91.6085 149.859 92.4225 151.42 93.7569 152.434L94.0238 152.688C94.4775 153.101 94.4908 153.808 94.0771 154.262C93.8636 154.489 93.5701 154.609 93.2765 154.609L93.2231 154.582Z" fill="black"/>
</g>
<path d="M49.8685 118.36V108.368C49.8685 105.032 47.3999 103.925 45.8787 105.032C43.4501 106.727 46.5459 113.904 46.5459 113.904C44.7311 115.038 46.7727 119.188 49.8685 118.36Z" fill="#FFE900"/>
<path d="M49.0413 119.588C47.3066 119.534 45.7721 118.467 45.1049 116.866C44.5845 115.852 44.6378 114.638 45.2383 113.664C44.371 111.45 42.5829 105.98 45.2383 104.125C46.2791 103.391 47.6402 103.311 48.7611 103.925C50.2823 104.872 51.1363 106.58 50.9762 108.368V118.36C50.9895 118.881 50.6426 119.334 50.1489 119.468C49.7886 119.561 49.415 119.588 49.0413 119.588ZM47.1198 105.753C46.893 105.753 46.6795 105.82 46.4926 105.953C45.5052 106.647 46.2525 110.476 47.5468 113.478C47.7603 113.971 47.5868 114.558 47.1198 114.852C46.8796 115.012 46.933 115.545 47.1198 115.959C47.4134 116.639 48.0138 117.146 48.7344 117.32V108.368C48.8412 107.407 48.4142 106.46 47.6269 105.9C47.4801 105.806 47.3066 105.766 47.1198 105.753Z" fill="black"/>
<path d="M46.5323 115.038C45.9185 115.038 45.4248 114.545 45.4248 113.931C45.4248 113.558 45.6116 113.211 45.9319 112.997L46.3589 112.73C46.8526 112.37 47.5465 112.49 47.9068 112.984C48.267 113.477 48.147 114.171 47.6532 114.531C47.6265 114.558 47.5865 114.571 47.5598 114.598L47.1462 114.865C46.9594 114.972 46.7458 115.038 46.5323 115.038Z" fill="black"/>
<path d="M105.365 118.36V108.368C105.365 105.032 107.834 103.925 109.355 105.032C111.784 106.727 108.688 113.904 108.688 113.904C110.503 115.038 108.461 119.188 105.365 118.36Z" fill="#FFE900"/>
<path d="M81.0795 147.218H74.1541C70.1509 147.218 66.3078 145.617 63.4923 142.775L54.3117 133.596C51.4694 130.768 49.8815 126.939 49.8682 122.936V95.7201C49.8682 68.2103 105.365 68.2103 105.365 95.7201V122.936C105.365 126.939 103.764 130.781 100.922 133.596L91.7413 142.775C88.9124 145.617 85.0827 147.204 81.0795 147.218Z" fill="#FFE900"/>
<g opacity="0.3">
<path opacity="0.3" d="M91.7413 137.225C88.9124 140.067 85.0827 141.654 81.0795 141.668H74.1541C70.1509 141.668 66.3078 140.067 63.4923 137.225L54.3117 128.046C51.4694 125.218 49.8815 121.389 49.8682 117.386V122.936C49.8682 126.939 51.4694 130.781 54.3117 133.596L63.4923 142.775C66.3212 145.617 70.1509 147.204 74.1541 147.218H81.0929C85.0961 147.218 88.9391 145.617 91.7547 142.775L100.922 133.596C103.764 130.768 105.352 126.939 105.365 122.936V117.386C105.365 121.389 103.764 125.231 100.922 128.046L91.7413 137.225Z" fill="#CC7E54"/>
</g>
<path d="M106.18 119.588C105.807 119.588 105.433 119.534 105.073 119.441C104.592 119.308 104.245 118.867 104.245 118.36V108.368C104.085 106.593 104.953 104.872 106.461 103.925C107.568 103.338 108.902 103.405 109.93 104.125C112.599 105.98 110.797 111.463 109.93 113.664C110.53 114.638 110.584 115.839 110.063 116.866C109.41 118.44 107.902 119.508 106.18 119.588ZM108.089 105.753C107.888 105.753 107.702 105.806 107.528 105.9C106.754 106.473 106.34 107.421 106.461 108.368V117.32C107.181 117.146 107.782 116.639 108.075 115.959C108.262 115.532 108.315 114.998 108.075 114.852C107.621 114.558 107.435 113.971 107.648 113.478C108.943 110.476 109.69 106.647 108.702 105.953C108.542 105.833 108.329 105.753 108.089 105.753Z" fill="black"/>
<path d="M108.688 115.039C108.474 115.039 108.261 114.972 108.087 114.865L107.674 114.598C107.14 114.291 106.953 113.611 107.26 113.091C107.567 112.557 108.248 112.37 108.768 112.677C108.808 112.69 108.835 112.717 108.861 112.744L109.288 113.011C109.809 113.344 109.956 114.025 109.622 114.545C109.422 114.838 109.075 115.039 108.688 115.039Z" fill="black"/>
<path d="M81.0794 148.325H74.1539C69.8572 148.338 65.7339 146.631 62.7049 143.589L53.4976 134.383C50.4418 131.355 48.7338 127.232 48.7471 122.937V95.7202C48.7471 88.9562 51.923 83.2861 57.9144 79.3237C63.1719 75.8817 70.1241 73.9872 77.61 73.9872C85.0959 73.9872 92.0348 75.8817 97.3056 79.3237C103.297 83.2994 106.473 88.9695 106.473 95.7202V122.937C106.486 127.232 104.778 131.355 101.736 134.383L92.5285 143.589C89.4994 146.631 85.3762 148.338 81.0794 148.325ZM77.61 76.1885C64.7732 76.1885 50.9756 82.2988 50.9756 95.7069V122.923C50.9756 126.619 52.4434 130.168 55.0722 132.782L64.2928 142.001C66.8949 144.63 70.4443 146.097 74.1539 146.097H81.0928C84.789 146.097 88.3385 144.63 90.9406 142.001L100.161 132.782C102.79 130.181 104.258 126.632 104.258 122.923V95.7069C104.258 89.77 101.162 84.2467 96.0913 81.1648C91.2208 77.9629 84.6689 76.1885 77.61 76.1885Z" fill="black"/>
<g opacity="0.3">
<path opacity="0.3" d="M105.365 100.603V95.1733C105.446 86.1546 98.2132 78.7768 89.1927 78.6968C89.1526 78.6968 89.0993 78.6968 89.0592 78.6968H66.508C57.4075 78.6968 50.0283 86.0612 50.0283 95.16C50.0283 95.1733 50.0283 95.1733 50.0283 95.1867V100.03C52.8039 96.6942 55.5794 93.9726 56.9672 89.8101C72.2326 99.4959 91.648 94.4662 100.922 95.4668C104.738 95.8804 105.259 98.2685 105.365 100.603Z" fill="#CC7E54"/>
</g>
<path d="M95.8106 70.3717C105.672 74.9344 112.29 80.0842 108.607 98.1083C108.1 100.59 105.351 99.4825 105.351 99.4825C105.351 99.4825 106.072 91.3309 100.908 90.7706C91.674 89.77 69.4697 95.32 54.2176 82.8325C54.2176 88.3825 52.8299 91.1575 50.0543 95.32C50.0543 95.32 46.1979 95.32 45.891 92.545C44.5033 80.0575 48.6666 74.5075 54.2176 75.895C68.0686 62.06 90.9267 68.1036 95.8106 70.3717Z" fill="white"/>
<g opacity="0.3">
<path opacity="0.3" d="M54.1913 81.2183C68.069 67.3166 90.9271 73.4003 95.8109 75.6683C103.137 79.0703 108.688 82.8459 109.502 91.9981C110.609 78.8302 104.444 74.3742 95.8109 70.3851C90.887 68.1038 68.069 62.0601 54.1913 75.9351C48.9204 74.6143 44.9039 79.5907 45.7179 90.8107C46.3451 83.3396 49.8679 80.1377 54.1913 81.2183Z" fill="white"/>
</g>
<path d="M106.674 100.87C106.073 100.857 105.486 100.75 104.926 100.523C104.485 100.336 104.205 99.8961 104.245 99.4158C104.245 99.3491 104.805 92.3315 100.762 91.9046C97.7999 91.7312 94.8375 91.7578 91.8885 91.998C81.1867 92.545 66.7219 93.2788 55.1928 85.0472C54.8726 89.3297 53.5115 92.078 50.9228 95.9604C50.7226 96.2939 50.3757 96.4807 49.9887 96.454C48.3074 96.454 45.0648 95.6535 44.7312 92.6917C43.8505 84.807 45.0915 78.9635 48.2406 76.2285C49.7618 74.8944 51.8035 74.3341 53.7917 74.721C68.2165 60.8993 91.248 67.0764 96.2253 69.3844C105.886 73.8271 113.572 79.1103 109.636 98.3618C109.516 99.2957 108.955 100.123 108.128 100.576C107.674 100.79 107.167 100.897 106.674 100.87ZM106.5 98.6553C106.714 98.682 106.94 98.6553 107.141 98.5619C107.207 98.5619 107.407 98.4152 107.514 97.9082C111.117 80.2309 104.445 75.6015 95.3046 71.399C89.9003 69.291 84.1491 68.2104 78.3445 68.2104H78.0109C71.3523 68.2104 61.9849 69.718 54.9793 76.7222C54.6991 77.0023 54.2988 77.1091 53.9251 77.0157C52.4707 76.5754 50.8827 76.9089 49.7352 77.9095C47.1998 80.1242 46.199 85.4207 46.9863 92.4516C47.1331 93.6923 48.6276 94.0659 49.4816 94.1993C52.017 90.2903 53.0845 87.7288 53.0845 82.8458C53.0845 82.2321 53.5915 81.7385 54.2054 81.7385C54.4589 81.7385 54.6991 81.8319 54.8992 81.992C66.0014 91.0908 80.9332 90.3303 91.8085 89.7566C94.8642 89.5032 97.9467 89.4765 101.016 89.6633C106.086 90.2236 106.54 96.2405 106.487 98.642H106.5V98.6553Z" fill="black"/>
<path d="M58.3553 78.4166C58.1952 78.4166 58.035 78.3899 57.8883 78.3232C56.6873 77.7095 55.4063 77.2692 54.0852 77.0424C53.4714 76.9757 53.0311 76.4287 53.0845 75.8283C53.1512 75.2146 53.6983 74.7744 54.2987 74.8277C55.8733 75.0812 57.3945 75.5882 58.8223 76.3086C59.3828 76.5621 59.623 77.2158 59.3694 77.7762C59.196 78.1631 58.7956 78.4166 58.3553 78.4166Z" fill="black"/>
<path d="M95.2377 95.0532C85.2431 94.9464 77.904 91.4644 70.8184 90.277L95.2377 95.0532Z" fill="white"/>
<path d="M95.2377 96.1739C89.4331 95.9604 83.6819 94.9465 78.1441 93.1854C75.6889 92.4516 73.1802 91.8513 70.6582 91.371C70.0444 91.2642 69.6307 90.6906 69.7375 90.0769C69.8442 89.4632 70.418 89.0496 71.0318 89.1563C73.6206 89.6499 76.1826 90.2636 78.7179 91.0108C84.0688 92.7318 89.6332 93.7324 95.251 93.9592C95.8648 93.9592 96.3586 94.4528 96.3586 95.0665C96.3586 95.6802 95.8648 96.1739 95.251 96.1739H95.2377Z" fill="black"/>
<path d="M49.8683 102.831C49.2545 102.831 48.7607 102.338 48.7607 101.724V95.1866C48.7607 94.5729 49.2545 94.0792 49.8683 94.0792C50.4821 94.0792 50.9758 94.5729 50.9758 95.1866V101.724C50.9758 102.324 50.4821 102.831 49.8683 102.831Z" fill="black"/>
<path d="M97.5861 106.153C97.3725 106.153 97.159 106.086 96.9722 105.966C95.1174 104.739 92.4486 105.179 89.6331 105.646C88.1386 105.94 86.6307 106.113 85.1095 106.153C84.4957 106.153 84.002 105.659 84.002 105.046C84.002 104.432 84.4957 103.938 85.1095 103.938C86.5106 103.885 87.8984 103.725 89.2728 103.458C92.4086 102.938 95.6245 102.351 98.2132 104.125C98.7203 104.472 98.8537 105.153 98.5201 105.659C98.3066 105.966 97.9597 106.153 97.5861 106.153Z" fill="black"/>
<path d="M69.8438 106.714C69.5503 106.714 69.27 106.593 69.0565 106.393C67.4019 104.752 60.2896 103.992 57.8476 105.219C57.2872 105.473 56.6334 105.233 56.3798 104.672C56.1396 104.139 56.3531 103.512 56.8602 103.231C59.9426 101.684 68.1358 102.338 70.6178 104.832C71.0448 105.273 71.0448 105.966 70.6044 106.407C70.4043 106.593 70.124 106.7 69.8438 106.714Z" fill="black"/>
<path d="M63.7461 113.371C64.6673 113.371 65.4141 112.624 65.4141 111.703C65.4141 110.782 64.6673 110.036 63.7461 110.036C62.8249 110.036 62.0781 110.782 62.0781 111.703C62.0781 112.624 62.8249 113.371 63.7461 113.371Z" fill="black"/>
<path d="M63.7462 114.478C62.2117 114.478 60.9707 113.237 60.9707 111.703C60.9707 110.169 62.2117 108.928 63.7462 108.928C65.2808 108.928 66.5218 110.169 66.5218 111.703C66.5218 113.237 65.2674 114.478 63.7462 114.478ZM63.7462 111.143C63.4393 111.143 63.1858 111.396 63.1858 111.703C63.1858 112.01 63.4393 112.263 63.7462 112.263C64.0531 112.263 64.3067 112.01 64.3067 111.703C64.3067 111.396 64.0398 111.143 63.7462 111.143Z" fill="black"/>
<path d="M68.7369 110.596H58.7423C58.1285 110.596 57.6348 110.102 57.6348 109.489C57.6348 108.875 58.1285 108.381 58.7423 108.381H68.7369C69.3507 108.381 69.8444 108.875 69.8444 109.489C69.8444 110.102 69.3507 110.596 68.7369 110.596Z" fill="black"/>
<path d="M77.6107 121.696C76.5832 121.602 75.6091 121.242 74.7551 120.669C74.2614 120.295 74.168 119.601 74.5416 119.121C74.8752 118.667 75.5024 118.547 75.9961 118.827C76.4765 119.161 77.0369 119.388 77.6107 119.481C78.1979 119.388 78.745 119.161 79.2253 118.827C79.7591 118.521 80.4396 118.694 80.7465 119.214C81.0401 119.695 80.9067 120.322 80.453 120.669C79.6257 121.242 78.6382 121.602 77.6107 121.696Z" fill="black"/>
<path d="M91.6475 113.371C92.5687 113.371 93.3155 112.624 93.3155 111.703C93.3155 110.782 92.5687 110.036 91.6475 110.036C90.7263 110.036 89.9795 110.782 89.9795 111.703C89.9795 112.624 90.7263 113.371 91.6475 113.371Z" fill="black"/>
<path d="M91.6486 114.478C90.114 114.478 88.873 113.237 88.873 111.703C88.873 110.169 90.114 108.928 91.6486 108.928C93.1831 108.928 94.4241 110.169 94.4241 111.703C94.4241 113.237 93.1698 114.478 91.6486 114.478ZM91.6486 111.143C91.3417 111.143 91.0881 111.396 91.0881 111.703C91.0881 112.01 91.3417 112.263 91.6486 112.263C91.9555 112.263 92.209 112.01 92.209 111.703C92.209 111.396 91.9555 111.143 91.6486 111.143Z" fill="black"/>
<path d="M96.4786 110.596H86.484C85.8702 110.596 85.3765 110.102 85.3765 109.489C85.3765 108.875 85.8702 108.381 86.484 108.381H96.4786C97.0924 108.381 97.5862 108.875 97.5862 109.489C97.5862 110.102 97.0924 110.596 96.4786 110.596Z" fill="black"/>
<path d="M105.365 119.468V131.902C105.365 134.57 104.191 137.105 102.162 138.826L91.2203 148.098C88.725 150.233 85.5491 151.407 82.2665 151.434H72.9925C69.7099 151.42 66.534 150.246 64.0387 148.098L53.0967 138.826C51.0551 137.105 49.8809 134.57 49.8809 131.902V119.468L58.3943 129.047C59.8354 130.661 62.2773 130.848 63.9453 129.474L65.9736 127.793C68.122 126.005 70.8308 125.018 73.633 125.018H81.6127C84.4015 125.018 87.1103 126.005 89.2587 127.793L91.2736 129.46C92.9416 130.835 95.3836 130.648 96.8247 129.034L105.365 119.468Z" fill="white"/>
<g opacity="0.3">
<path opacity="0.3" d="M102.15 133.29L91.2076 142.562C88.7123 144.696 85.5364 145.871 82.2538 145.897H72.9798C69.6972 145.884 66.5213 144.71 64.026 142.562L53.084 133.29C51.0424 131.569 49.8682 129.034 49.8682 126.365V131.915C49.8682 134.584 51.0424 137.119 53.0707 138.84L64.0127 148.112C66.508 150.246 69.6839 151.421 72.9665 151.447H82.2271C85.5097 151.434 88.6856 150.26 91.1809 148.112L102.123 138.84C104.164 137.119 105.352 134.584 105.352 131.915V126.365C105.365 129.034 104.191 131.569 102.15 133.29Z" fill="#CC7E54"/>
</g>
<g opacity="0.3">
<path opacity="0.3" d="M96.8521 129.047C95.4109 130.661 92.969 130.848 91.301 129.474L89.2727 127.793C87.1243 126.005 84.4155 125.018 81.6133 125.018H73.6203C70.8314 125.018 68.1226 126.005 65.9743 127.793L63.9593 129.46C62.2913 130.835 59.8494 130.648 58.4083 129.034L49.8682 119.468V123.63L58.3816 133.209C59.8227 134.824 62.2647 135.01 63.9326 133.636L65.9476 131.955C68.0959 130.168 70.8047 129.18 73.5936 129.18H81.5866C84.3755 129.18 87.0843 130.168 89.2327 131.955L91.2476 133.636C92.9156 135.01 95.3575 134.824 96.7987 133.209L105.379 123.63V119.468L96.8521 129.047Z" fill="white"/>
</g>
<path d="M82.2406 152.488H72.9799C69.4304 152.488 66.0144 151.233 63.3056 148.952L52.3636 139.68C50.0684 137.745 48.7607 134.904 48.7607 131.915V119.481C48.7607 118.867 49.2545 118.374 49.8683 118.374C50.1885 118.374 50.4954 118.507 50.6956 118.747L59.209 128.353C60.2498 129.527 62.0379 129.661 63.2389 128.647L65.2538 126.966C67.6023 124.991 70.5647 123.91 73.6204 123.897H81.6134C84.6692 123.897 87.6315 124.964 89.9801 126.926L92.0484 128.607C93.236 129.594 94.984 129.474 96.0248 128.34L104.538 118.761C104.939 118.307 105.646 118.254 106.099 118.667C106.326 118.867 106.46 119.161 106.473 119.468V131.902C106.473 134.89 105.152 137.745 102.87 139.667L91.9283 148.939C89.2194 151.233 85.7901 152.488 82.2406 152.488ZM50.9758 122.39V131.915C50.9758 134.25 52.0033 136.478 53.7914 137.986L64.7334 147.218C67.0419 149.166 69.9642 150.233 72.9799 150.233H82.2406C85.2563 150.233 88.1786 149.166 90.4871 147.218L101.429 137.946C103.204 136.438 104.245 134.237 104.245 131.915V122.39L97.6661 129.794C95.838 131.875 92.6755 132.115 90.5672 130.328L88.5523 128.647C86.604 127.019 84.1488 126.125 81.6001 126.125H73.6071C71.0717 126.125 68.6165 127.019 66.6683 128.633L64.6667 130.314C62.545 132.089 59.3958 131.849 57.5677 129.781L50.9758 122.39Z" fill="black"/>
<path d="M77.61 133.836C75.9687 133.93 74.3141 133.61 72.8329 132.876C72.3258 132.542 72.1791 131.848 72.526 131.328C72.8596 130.821 73.5535 130.674 74.0739 131.021C75.1948 131.475 76.4091 131.688 77.6234 131.608C78.8377 131.675 80.052 131.475 81.1729 131.021C81.6799 130.688 82.3738 130.821 82.7207 131.328C83.0543 131.835 82.9209 132.529 82.4138 132.876C80.9193 133.61 79.2647 133.93 77.61 133.836Z" fill="black"/>
</g>
</svg>
