<svg width="160" height="169" viewBox="0 0 160 169" fill="none" xmlns="http://www.w3.org/2000/svg">
<g clip-path="url(#clip0)">
<mask id="mask0" mask-type="alpha" maskUnits="userSpaceOnUse" x="10" y="-25" width="141" height="179">
<path d="M80.5478 153.306C119.063 153.306 150.286 122.089 150.286 83.5813C150.286 45.0733 116.345 -24.4 77.8293 -24.4C39.3139 -24.4 10.8096 45.0733 10.8096 83.5813C10.8096 122.089 42.0325 153.306 80.5478 153.306Z" fill="white"/>
</mask>
<g mask="url(#mask0)">
<path d="M97.3769 105.047C102.475 105.024 107.55 104.274 112.438 102.846C120.53 100.551 125.231 92.0967 122.939 83.9939C122.869 83.7831 122.822 83.5723 122.752 83.385C118.659 70.7623 121.933 60.5752 119.08 48.1867C115.245 31.6297 100.558 19.171 80.7721 19.171C60.9867 19.171 45.294 31.0677 42.0666 48.1165C39.7512 60.4347 42.8851 70.4813 39.0029 82.8463C36.3835 90.9258 40.7803 99.5907 48.8488 102.214C48.919 102.237 49.0125 102.26 49.0827 102.284C53.6665 103.853 58.4375 104.79 63.2786 105.024H97.3769V105.047Z" fill="white"/>
<g opacity="0.3">
<path opacity="0.3" d="M112.438 97.0145C107.55 98.4665 102.475 99.1925 97.3769 99.2159L63.2552 99.2393C58.4141 99.0051 53.6431 98.0918 49.0359 96.5228C43.6101 94.8835 39.5407 90.3402 38.5117 84.7432C37.0149 92.4245 41.5754 99.9887 49.0359 102.284C53.6197 103.853 58.4141 104.79 63.2552 105.024H97.3769C102.475 105 107.55 104.251 112.438 102.822C120.039 100.668 124.74 93.0334 123.22 85.2818C122.167 90.9491 117.957 95.4923 112.438 97.0145Z" fill="#CC7E54"/>
</g>
<g opacity="0.3">
<path opacity="0.3" d="M120.367 65.3526H120.437C120.437 59.779 120.437 54.2053 119.057 48.1165C115.245 31.6297 100.558 19.171 80.7729 19.171C60.9874 19.171 45.2947 31.0677 42.0673 48.1165C41.202 53.573 40.8746 59.0998 41.1085 64.6032C41.1085 61.0202 41.4359 57.4371 42.0673 53.9009C45.2947 36.8521 61.0108 24.9554 80.7729 24.9554C100.535 24.9554 115.245 37.3673 119.104 53.8775C119.899 57.6713 120.344 61.512 120.367 65.3526Z" fill="white"/>
</g>
<path d="M65.384 106.218C59.7477 105.984 54.1582 105.047 48.7324 103.455C44.5695 102.213 41.0848 99.3564 39.0501 95.4923C36.9453 91.5111 36.5243 86.8508 37.8808 82.5418C40.009 75.7738 39.9856 69.7786 39.9388 63.4556C39.7518 58.2567 40.0792 53.0577 40.9211 47.929C44.2655 30.2948 60.6598 18 80.7726 18C100.231 18 116.064 29.9903 120.18 47.8588C121.256 53.1982 121.723 58.6548 121.56 64.1113C121.56 70.3641 121.63 76.289 123.828 82.9868C125.231 87.2958 124.81 92.0029 122.659 96.0075C120.577 99.895 116.976 102.752 112.719 103.9C107.013 105.398 101.119 106.195 95.2258 106.218C94.5944 106.218 94.0565 105.703 94.0565 105.047C94.0565 104.415 94.571 103.876 95.2258 103.876C100.932 103.829 106.615 103.08 112.135 101.651C115.783 100.668 118.847 98.2089 120.624 94.86C122.472 91.4175 122.846 87.3895 121.653 83.6659C119.338 76.6169 119.338 70.247 119.338 64.0645C119.478 58.7953 119.01 53.5027 117.935 48.3272C114.052 31.6062 99.1315 20.3184 80.7726 20.3184C61.7824 20.3184 46.3235 31.8404 43.1896 48.3272C42.3711 53.3153 42.0437 58.3738 42.2308 63.4088C42.2308 69.6381 42.3009 76.1017 40.0792 83.2209C38.8864 86.9211 39.2606 90.9491 41.0848 94.3682C42.8155 97.6703 45.809 100.129 49.3872 101.183C54.6025 102.729 59.9816 103.619 65.4073 103.853C66.0388 103.853 66.5767 104.368 66.5767 105.024C66.5767 105.703 66.0622 106.218 65.384 106.218Z" fill="black"/>
<path d="M104.393 110.504C102.756 114.907 93.4712 121.3 80.9123 121.3C68.3535 121.3 59.6535 115.492 57.4785 110.574V110.504C59.1624 109.497 60.9164 108.63 62.7406 107.881C65.0325 106.804 66.5059 104.509 66.5527 101.979C66.5527 100.996 66.3422 100.036 65.968 99.1458C75.2293 104.532 86.6656 104.532 95.9034 99.1458C94.4067 102.448 95.8333 106.359 99.1308 107.881C100.955 108.63 102.709 109.497 104.393 110.504Z" fill="#FFE900"/>
<g opacity="0.3">
<path opacity="0.3" d="M80.8419 110.293C86.3847 110.293 91.5064 106.476 95.6927 103.548C94.9677 102.026 94.9677 100.27 95.6927 98.771H65.9678C66.7162 100.27 66.7395 102.026 66.0379 103.572C70.2242 106.476 75.346 110.293 80.8419 110.293Z" fill="#CC7E54"/>
</g>
<path d="M107.901 159.613H38.4648V144.109C38.4882 130.269 45.8084 117.482 57.7124 110.457C60.6358 116.148 69.6866 121.3 81.1462 121.3C90.8284 121.3 100.604 116.944 104.136 110.504C109.117 113.478 113.397 117.506 116.648 122.33C120.998 128.747 123.336 136.334 123.313 144.086V159.589H107.901V159.613Z" fill="#EFD203"/>
<g opacity="0.3">
<path opacity="0.3" d="M116.648 122.33C113.397 117.506 109.117 113.478 104.136 110.504C100.557 116.944 90.8283 121.3 81.1461 121.3C69.6865 121.3 60.6357 116.148 57.6655 110.48C45.7615 117.506 38.4414 130.292 38.418 144.133V148.77C38.4414 134.929 45.7615 122.143 57.6655 115.117C60.6357 120.784 69.6865 125.937 81.1461 125.937C90.8283 125.937 100.604 121.581 104.136 115.141C109.117 118.115 113.397 122.143 116.648 126.967C120.998 133.384 123.336 140.971 123.313 148.723V144.086C123.336 136.334 120.998 128.77 116.648 122.33Z" fill="white"/>
</g>
<path d="M37.9506 160.76C37.3192 160.76 36.7812 160.245 36.7812 159.589V144.086C36.828 129.918 44.2417 116.803 56.3328 109.473C58.0167 108.443 59.7941 107.553 61.6183 106.804C64.1909 105.094 65.2199 101.839 64.1207 98.935C63.8868 98.3495 64.1675 97.6704 64.7755 97.4362C65.3602 97.202 66.0384 97.483 66.2723 98.0919C67.7925 102.12 66.2255 106.663 62.5538 108.888C60.8231 109.614 59.1393 110.457 57.5256 111.441C46.1127 118.372 39.1433 130.738 39.0966 144.11V159.613C39.12 160.245 38.6054 160.76 37.9506 160.76Z" fill="black"/>
<path d="M123.734 160.76C123.103 160.76 122.565 160.245 122.565 159.589V144.086C122.565 136.545 120.296 129.192 116.063 122.962C111.807 116.686 105.82 111.815 98.8034 108.911C94.9446 106.85 93.2841 102.167 94.9679 98.1387C95.1784 97.5298 95.8333 97.2019 96.4413 97.4127C97.0494 97.6235 97.3768 98.2792 97.1663 98.8881C97.1663 98.9115 97.1429 98.9583 97.1195 98.9817C95.8566 101.862 96.9792 105.235 99.7389 106.804C101.61 107.553 103.411 108.466 105.141 109.497C110.24 112.565 114.636 116.733 117.957 121.674C122.448 128.278 124.833 136.077 124.833 144.086V159.613C124.88 160.245 124.365 160.76 123.734 160.76Z" fill="black"/>
<path d="M54.1806 160.76C53.5491 160.76 53.0112 160.245 53.0112 159.589V144.508C53.0112 139.028 53.8999 135.21 55.7709 132.564C56.0282 131.979 56.7064 131.698 57.2911 131.955C57.8757 132.213 58.1564 132.892 57.8991 133.477C57.8289 133.618 57.7588 133.735 57.6419 133.829C56.0515 136.147 55.3265 139.473 55.3265 144.437V159.519C55.3499 160.151 54.8588 160.69 54.204 160.737C54.204 160.76 54.204 160.76 54.1806 160.76Z" fill="black"/>
<path d="M107.504 160.76C106.873 160.76 106.335 160.245 106.335 159.589V144.508C106.335 139.543 105.586 136.171 104.019 133.899C103.622 133.407 103.692 132.681 104.183 132.26C104.674 131.861 105.399 131.932 105.82 132.424C105.867 132.47 105.89 132.517 105.914 132.564C107.785 135.234 108.65 138.981 108.65 144.508V159.589C108.673 160.245 108.136 160.76 107.504 160.76Z" fill="black"/>
<path d="M80.8428 122.471C70.4121 122.471 60.9872 118.185 56.1694 111.277C55.7952 110.761 55.9355 110.035 56.4501 109.661C56.9646 109.286 57.6896 109.426 58.0638 109.942C62.3904 116.241 71.1371 120.152 80.8194 120.152C90.5016 120.152 99.2717 116.218 103.645 109.871C104.043 109.356 104.768 109.263 105.282 109.661C105.75 110.035 105.867 110.691 105.563 111.183C100.722 118.138 91.2734 122.471 80.8428 122.471Z" fill="black"/>
<path d="M51.8657 53.9945C51.8657 21.4895 109.725 21.4895 109.725 53.9945V73.7365C109.702 84.1109 104.183 93.6657 95.2487 98.8881L88.4898 102.869C83.7189 105.68 77.8254 105.68 73.0544 102.869L66.3189 98.8881C57.4085 93.6657 51.9125 84.1344 51.8657 73.7833V53.9945Z" fill="#FFE900"/>
<g opacity="0.3">
<path opacity="0.3" d="M109.819 68.0691C109.772 78.4201 104.276 87.9984 95.3189 93.1973L88.56 97.1785C83.789 99.9887 77.8721 99.9887 73.1012 97.1785L66.3657 93.1973C57.4318 87.9984 51.9125 78.4201 51.8657 68.0691V73.7598C51.9125 84.1109 57.4318 93.6657 66.3891 98.888L73.1246 102.869C77.8955 105.679 83.8124 105.679 88.5834 102.869L95.3422 98.888C104.299 93.6657 109.795 84.0875 109.819 73.713V68.0691Z" fill="#CC7E54"/>
</g>
<path d="M80.7722 106.124C77.8488 106.101 74.9722 105.305 72.4698 103.806L65.8045 99.8716C56.5432 94.4385 50.8134 84.5324 50.7432 73.7833V53.9711C50.5795 46.4068 54.1343 39.2173 60.2383 34.7678C66.2722 30.5056 73.4988 28.2808 80.8657 28.4447C88.2326 28.3042 95.4359 30.5056 101.446 34.7678C107.55 39.2407 111.082 46.4068 110.895 53.9711V73.713C110.825 84.4622 105.095 94.3917 95.8334 99.8248L89.098 103.9C86.5488 105.375 83.6722 106.148 80.7722 106.124ZM53.0118 53.9945V73.8067C53.0819 83.7362 58.3674 92.8695 66.927 97.8811L73.6625 101.862C78.0593 104.462 83.5319 104.462 87.9286 101.862L94.6875 97.8811C103.247 92.846 108.509 83.6659 108.556 73.7364V53.9945C108.696 47.1562 105.492 40.6693 99.9729 36.6413C94.3834 32.7069 87.6714 30.6461 80.8423 30.7866C67.4649 30.7632 53.0118 38.0464 53.0118 53.9945Z" fill="black"/>
<path d="M51.8658 74.7668V64.322C51.8658 60.8327 49.2699 59.6852 47.7029 60.8327C45.1537 62.6125 48.4045 70.1299 48.4045 70.1299C46.5102 71.3476 48.6384 75.6098 51.8658 74.7668Z" fill="#FFE900"/>
<path d="M51.001 76.0314C49.2002 75.9612 47.5865 74.8605 46.8848 73.1978C46.3469 72.1439 46.3937 70.8793 47.0252 69.8489C46.1131 67.5305 44.2655 61.8163 47.0252 59.8726C48.101 59.0997 49.5276 59.0295 50.6969 59.6618C52.2872 60.6454 53.176 62.4486 53.0122 64.2987V74.7434C53.0356 75.282 52.6614 75.7738 52.1469 75.9143C51.7727 76.008 51.3985 76.0549 51.001 76.0314ZM48.9897 61.5821C48.7558 61.5821 48.5219 61.6524 48.3348 61.7929C47.3058 62.5189 48.0776 66.5235 49.434 69.6616C49.6679 70.1768 49.4808 70.7857 48.9897 71.0901C48.7324 71.254 48.8026 71.8161 48.9897 72.261C49.2937 72.987 49.9252 73.5256 50.6735 73.713V64.3221C50.7905 63.3151 50.3461 62.3315 49.5042 61.7226C49.3873 61.629 49.2002 61.5821 48.9897 61.5821Z" fill="black"/>
<path d="M48.3811 71.2774C47.7496 71.2774 47.2117 70.7622 47.2351 70.1065C47.2351 69.7084 47.4456 69.3571 47.773 69.1229L48.2174 68.8419C48.7319 68.4672 49.4569 68.5843 49.8311 69.0995C50.2053 69.6147 50.0883 70.3407 49.5738 70.7154C49.5504 70.7388 49.5037 70.7622 49.4803 70.7857L49.0593 71.0667C48.8254 71.2072 48.6149 71.2774 48.3811 71.2774Z" fill="black"/>
<path d="M109.819 74.7668V64.322C109.819 60.8327 112.392 59.6852 113.982 60.8327C116.531 62.6125 113.281 70.1299 113.281 70.1299C115.198 71.3476 113.047 75.6098 109.819 74.7668Z" fill="#FFE900"/>
<path d="M110.684 76.0315C110.287 76.0315 109.913 75.9846 109.515 75.891C109 75.7505 108.626 75.2821 108.65 74.72V64.2753C108.486 62.4252 109.375 60.622 110.965 59.6384C112.111 59.0295 113.514 59.0998 114.59 59.8492C117.373 61.7929 115.502 67.5305 114.59 69.8255C115.221 70.8325 115.268 72.0971 114.73 73.1744C114.052 74.8371 112.485 75.9378 110.684 76.0315ZM112.672 61.5822C112.462 61.5822 112.275 61.629 112.088 61.7227C111.269 62.3082 110.825 63.2917 110.918 64.3222V73.713C111.667 73.5257 112.298 73.0105 112.602 72.2845C112.789 71.8395 112.859 71.2775 112.602 71.1136C112.111 70.8091 111.947 70.2002 112.158 69.685C113.514 66.5469 114.286 62.5423 113.257 61.8164C113.117 61.6758 112.906 61.6056 112.672 61.5822Z" fill="black"/>
<path d="M113.304 71.2774C113.093 71.2774 112.86 71.2071 112.672 71.09L112.252 70.809C111.69 70.4811 111.503 69.7786 111.831 69.2165C112.158 68.6545 112.86 68.4671 113.421 68.795C113.468 68.8184 113.491 68.8418 113.514 68.8653L113.959 69.1463C114.497 69.4976 114.66 70.2235 114.31 70.7622C114.076 71.09 113.702 71.2774 113.304 71.2774Z" fill="black"/>
<g opacity="0.3">
<path opacity="0.3" d="M64.0273 87.6471C66.9077 87.6471 69.2426 85.309 69.2426 82.4248C69.2426 79.5405 66.9077 77.2024 64.0273 77.2024C61.147 77.2024 58.812 79.5405 58.812 82.4248C58.812 85.309 61.147 87.6471 64.0273 87.6471Z" fill="#FF9797"/>
</g>
<g opacity="0.3">
<path opacity="0.3" d="M97.6577 87.6471C100.538 87.6471 102.873 85.309 102.873 82.4248C102.873 79.5405 100.538 77.2024 97.6577 77.2024C94.7774 77.2024 92.4424 79.5405 92.4424 82.4248C92.4424 85.309 94.7774 87.6471 97.6577 87.6471Z" fill="#FF9797"/>
</g>
<path d="M80.8426 78.9587C79.7902 78.865 78.7611 78.5138 77.8958 77.9049C77.3579 77.5536 77.2176 76.8276 77.5684 76.289C77.9192 75.7504 78.6442 75.6098 79.1821 75.9611C79.6732 76.3124 80.2345 76.5232 80.8426 76.6403C81.4273 76.5466 82.0119 76.3124 82.5031 75.9611C83.041 75.6098 83.766 75.7504 84.1168 76.289C84.4676 76.8276 84.3273 77.5536 83.7894 77.9049C82.924 78.5138 81.895 78.865 80.8426 78.9587Z" fill="black"/>
<path d="M60.3081 63.2682C59.6766 63.2682 59.1621 62.753 59.1621 62.0973C59.1621 61.7929 59.279 61.4884 59.5129 61.2776C61.5944 59.2168 66.2484 59.9662 70.0137 60.5985C70.9258 60.7624 71.8379 60.8795 72.75 60.9498C73.3814 60.9498 73.9193 61.465 73.9193 62.1207C73.9193 62.753 73.4048 63.2917 72.75 63.2917C71.6976 63.2448 70.6685 63.1043 69.6395 62.917C67.0903 62.5188 62.3895 61.746 61.15 62.917C60.9161 63.1277 60.6355 63.2682 60.3081 63.2682Z" fill="black"/>
<path d="M101.282 63.2683C100.978 63.2683 100.698 63.1512 100.464 62.9404C98.6631 61.1606 91.5534 61.1606 89.776 62.9404C89.3317 63.3854 88.5833 63.3854 88.1389 62.9404C87.6946 62.4954 87.6946 61.746 88.1389 61.3011C90.8752 58.5845 99.3647 58.5845 102.054 61.3011C102.499 61.746 102.522 62.4954 102.054 62.9404C101.844 63.1512 101.54 63.2917 101.236 63.2917H101.282V63.2683Z" fill="black"/>
<path d="M100.558 67.9051H90.1274C89.4959 67.9051 88.958 67.3899 88.958 66.7342C88.958 66.1019 89.4725 65.5632 90.1274 65.5632H100.558C101.189 65.5632 101.727 66.0784 101.727 66.7342C101.704 67.3899 101.189 67.9051 100.558 67.9051Z" fill="black"/>
<path d="M71.5575 67.9051H61.1269C60.4954 67.9051 59.9575 67.3899 59.9575 66.7342C59.9575 66.1019 60.472 65.5632 61.1269 65.5632H71.5575C72.1889 65.5632 72.7268 66.0784 72.7268 66.7342C72.7268 67.3899 72.2123 67.9051 71.5575 67.9051Z" fill="black"/>
<path d="M67.5124 70.809C68.4682 70.809 69.243 70.0331 69.243 69.076C69.243 68.1189 68.4682 67.343 67.5124 67.343C66.5566 67.343 65.7817 68.1189 65.7817 69.076C65.7817 70.0331 66.5566 70.809 67.5124 70.809Z" fill="black"/>
<path d="M67.5123 71.9801C65.922 71.9801 64.6123 70.692 64.6123 69.0762C64.6123 67.4837 65.8986 66.1722 67.5123 66.1722C69.126 66.1722 70.4123 67.4603 70.4123 69.0762C70.4123 70.6686 69.1026 71.9801 67.5123 71.9801ZM67.5123 68.4907C67.1849 68.4907 66.9276 68.7483 66.9276 69.0762C66.9276 69.404 67.1849 69.6616 67.5123 69.6616C67.8397 69.6616 68.097 69.404 68.097 69.0762C68.097 68.7483 67.8397 68.4907 67.5123 68.4907Z" fill="black"/>
<path d="M94.173 70.809C95.1288 70.809 95.9037 70.0331 95.9037 69.076C95.9037 68.1189 95.1288 67.343 94.173 67.343C93.2172 67.343 92.4424 68.1189 92.4424 69.076C92.4424 70.0331 93.2172 70.809 94.173 70.809Z" fill="black"/>
<path d="M94.1729 71.9801C92.5826 71.9801 91.2729 70.692 91.2729 69.0762C91.2729 67.4837 92.5592 66.1722 94.1729 66.1722C95.7633 66.1722 97.073 67.4603 97.073 69.0762C97.073 70.6686 95.7633 71.9801 94.1729 71.9801ZM94.1729 68.4907C93.8455 68.4907 93.5883 68.7483 93.5883 69.0762C93.5883 69.404 93.8455 69.6616 94.1729 69.6616C94.5004 69.6616 94.7576 69.404 94.7576 69.0762C94.7576 68.7483 94.5004 68.4907 94.1729 68.4907Z" fill="black"/>
<path d="M80.8423 89.7079C77.1472 89.7079 73.8262 88.2325 72.3294 85.9609C71.9786 85.4223 72.1423 84.6963 72.6802 84.3451C73.2181 83.9938 73.9431 84.1577 74.2939 84.6963C75.3464 86.3122 77.9891 87.3895 80.8657 87.3895C83.7423 87.3895 86.385 86.3122 87.4375 84.6963C87.7883 84.1577 88.5133 83.9938 89.0512 84.3451C89.5891 84.6963 89.7528 85.4223 89.402 85.9609C87.8584 88.2325 84.5375 89.7079 80.8423 89.7079Z" fill="black"/>
<g opacity="0.3">
<path opacity="0.3" d="M51.8657 53.9945C51.8657 53.9945 77.2173 64.4392 99.3882 44.6973C102.733 56.7813 109.819 54.5799 109.819 54.5565V50.2943C109.819 50.2943 102.499 53.3388 99.1543 41.2079C77.3576 59.7789 51.8657 49.3342 51.8657 49.3342V53.9945Z" fill="#CC7E54"/>
</g>
<path d="M51.8656 49.2171C51.8656 49.2171 76.9365 60.3175 99.084 40.5288C99.1308 51.9102 109.819 50.4817 109.819 50.4817L112.461 50.2944C109.819 21.0445 55.2567 20.2951 49.5503 48.1633L51.8656 49.2171Z" fill="white"/>
<path d="M68.7981 53.4325C62.8577 53.4794 56.9642 52.4021 51.4215 50.2944L49.1062 49.264C48.5215 49.0064 48.2642 48.3272 48.5215 47.7418C48.7787 47.1563 49.457 46.8987 50.0416 47.1563L52.357 48.1867C52.5908 48.2804 77.0303 58.7251 98.3359 39.7092C98.8036 39.2876 99.552 39.3111 99.973 39.8029C100.16 40.0136 100.277 40.2946 100.277 40.5991C100.277 43.7138 101.142 46.0322 102.826 47.5544C104.791 49.0064 107.223 49.6621 109.632 49.3811L111.152 49.264C111.783 49.2172 112.345 49.6855 112.415 50.3178C112.462 50.9501 111.994 51.5122 111.362 51.5824L109.842 51.6995C109.702 51.6995 104.767 52.3318 101.259 49.264C99.4585 47.6247 98.3359 45.3765 98.0786 42.9644C89.8464 49.7558 79.4859 53.4794 68.7981 53.4325Z" fill="black"/>
<path d="M109.725 55.142C109.094 55.142 108.556 54.6268 108.556 53.971C108.556 52.8704 108.486 51.7697 108.345 50.6924C108.252 50.0601 108.696 49.4512 109.351 49.381C109.983 49.2873 110.591 49.7323 110.661 50.388C110.824 51.5823 110.895 52.7767 110.895 53.9945C110.895 54.6268 110.357 55.142 109.725 55.142Z" fill="black"/>
<path d="M51.8656 55.142C51.2342 55.142 50.6963 54.6267 50.6963 53.971C50.6963 52.4254 50.8366 50.8563 51.0939 49.3341C51.2108 48.7018 51.8189 48.2569 52.4503 48.374C53.0818 48.4911 53.5261 49.0999 53.4092 49.7322C53.1519 51.1374 53.0116 52.5425 53.0116 53.9476C53.0116 54.6267 52.4971 55.142 51.8656 55.142Z" fill="black"/>
</g>
</g>
<defs>
<clipPath id="clip0">
<rect width="159.404" height="167.262" fill="white" transform="translate(0 0.980469)"/>
</clipPath>
</defs>
</svg>
