<svg width="231" height="82" viewBox="0 0 231 82" fill="none" xmlns="http://www.w3.org/2000/svg">
<path d="M98.4573 0H103.829L104.921 4.7471H111.607V10.6278H105.721V24.0898C105.721 26.8247 106.876 28.1921 109.2 28.1921H111.607V34.0587H105.693C100.865 34.0587 98.4526 31.4253 98.4573 26.1586V0Z" fill="#13100D"/>
<path d="M114.036 24.9187C114.036 18.9104 118.21 15.9063 126.559 15.9063C128.803 15.8825 131.043 16.0698 133.253 16.466V14.5389C133.253 11.9173 130.757 10.6066 125.766 10.6066C122.592 10.6189 119.435 11.0961 116.394 12.0236V6.14287C119.435 5.21198 122.591 4.73467 125.766 4.72583C135.595 4.72583 140.509 7.94252 140.509 14.3759V34.0516H136.843L133.712 31.9827C131.258 33.3474 128.506 34.059 125.711 34.0516C117.927 34.0516 114.036 31.0073 114.036 24.9187ZM126.559 21.4895C123.076 21.4895 121.332 22.6066 121.327 24.8408C121.323 27.075 122.784 28.1897 125.711 28.185C128.401 28.2673 131.045 27.4648 133.253 25.8965V22.0492C131.036 21.6395 128.784 21.4521 126.532 21.4895H126.559Z" fill="#13100D"/>
<path d="M152.595 0V34.0516H145.331V0H152.595Z" fill="#13100D"/>
<path d="M182.067 22.2688H163.24C163.24 26.2129 166.401 28.185 172.723 28.185C175.648 28.184 178.567 27.9041 181.441 27.3489V33.2084C178.208 33.8326 174.921 34.1151 171.631 34.0515C161.194 34.0515 155.976 29.0541 155.976 19.0592C155.976 9.51779 160.754 4.74707 170.309 4.74707C179.864 4.74707 183.783 10.5877 182.067 22.2688ZM163.24 16.8557H175.249C175.499 12.6565 173.579 10.5546 169.488 10.5499C165.656 10.5499 163.574 12.6518 163.24 16.8557Z" fill="#13100D"/>
<path d="M185.838 34.0516V4.74707H191.46L192.364 8.48098C195.857 5.99643 199.364 4.75179 202.884 4.74707C209.517 4.74707 212.834 8.38415 212.834 15.6583V34.0799H205.57V15.5875C205.57 12.3519 203.991 10.7341 200.832 10.7341C198.295 10.7341 195.718 11.9693 193.102 14.4397V34.0657L185.838 34.0516Z" fill="#13100D"/>
<path d="M217.676 0H223.055L224.147 4.7471H230.833V10.6278H224.947V24.0898C224.947 26.8247 226.102 28.1921 228.426 28.1921H230.833V34.0587H224.919C220.091 34.0587 217.676 31.4253 217.676 26.1586V0Z" fill="#13100D"/>
<path d="M98.4575 67.9048C98.4575 61.8965 102.62 58.8924 110.946 58.8924C113.19 58.8685 115.43 59.0559 117.64 59.4521V57.5249C117.64 54.9034 115.144 53.5903 110.153 53.5855C106.979 53.595 103.822 54.0723 100.781 55.0026V49.1218C103.823 48.1947 106.979 47.7175 110.153 47.7048C119.982 47.7048 124.896 50.9215 124.896 57.3549V77.0022H121.23L118.106 74.9404C115.649 76.3024 112.895 77.0115 110.098 77.0022C102.333 77.0211 98.4529 73.9886 98.4575 67.9048ZM110.946 64.4755C107.463 64.4755 105.719 65.5926 105.714 67.8268C105.714 70.0516 107.175 71.1711 110.098 71.1711C112.788 71.2533 115.432 70.4508 117.64 68.8825V65.0353C115.432 64.6274 113.19 64.44 110.946 64.4755Z" fill="#13100D"/>
<path d="M137.33 42.9861V77.0306H130.066V43.0215L137.33 42.9861Z" fill="#13100D"/>
<path d="M142.499 48.9305C146.669 48.0966 150.912 47.6954 155.162 47.7331C165.297 47.7331 170.364 52.374 170.364 61.6556C170.364 71.9103 165.726 77.0353 156.449 77.0305C154.147 77.0269 151.869 76.5447 149.756 75.6135V81.7564H142.499V48.9305ZM149.756 69.3856C151.832 70.4101 154.114 70.9269 156.421 70.8947C160.93 70.8947 163.186 67.7961 163.191 61.5989C163.191 56.337 160.614 53.706 155.461 53.706C153.552 53.6679 151.643 53.7959 149.756 54.0886V69.3856Z" fill="#13100D"/>
<path d="M173.753 77.0305V43.0215H181.016V50.9073C183.872 48.8354 187.293 47.7254 190.799 47.7331C197.436 47.7331 200.753 51.3678 200.748 58.6373V77.0589H193.484V58.5593C193.484 55.319 191.905 53.7012 188.746 53.706C186.209 53.706 183.633 54.9412 181.016 57.4115V77.0305H173.753Z" fill="#13100D"/>
<path d="M204.561 67.9048C204.561 61.8965 208.736 58.8924 217.085 58.8924C219.326 58.8685 221.564 59.0559 223.771 59.4521V57.5249C223.771 54.9034 221.278 53.5903 216.292 53.5855C213.117 53.5945 209.96 54.0718 206.92 55.0026V49.1218C209.961 48.1942 213.117 47.717 216.292 47.7048C226.097 47.7237 231 50.9522 231 57.3903V77.0376H227.326L224.202 74.9758C221.748 76.3383 218.996 77.0475 216.201 77.0376C208.441 77.0329 204.561 73.9886 204.561 67.9048ZM217.085 64.4755C213.592 64.4755 211.848 65.5926 211.853 67.8268C211.853 70.0516 213.314 71.1711 216.236 71.1711C218.924 71.2518 221.566 70.4494 223.771 68.8825V65.0353C221.552 64.6246 219.298 64.4372 217.043 64.4755H217.085Z" fill="#13100D"/>
<path d="M75.6573 0.191315H64.2607V77.229H75.6573V0.191315Z" fill="#FFE900"/>
<path d="M37.8355 77.2289C30.3535 77.2303 23.039 74.9722 16.8172 70.7402C10.5954 66.5082 5.74577 60.4923 2.88154 53.4534C0.0173208 46.4144 -0.732804 38.6687 0.726034 31.1956C2.18487 23.7225 5.78715 16.8578 11.0773 11.4697C16.3674 6.08151 23.1078 2.4119 30.446 0.924936C37.7843 -0.562032 45.3907 0.200426 52.3034 3.11588C59.216 6.03134 65.1245 10.9688 69.2814 17.304C73.4384 23.6391 75.6572 31.0873 75.6572 38.7066C75.6461 48.9187 71.658 58.7094 64.5677 65.9311C57.4774 73.1528 47.8637 77.2158 37.8355 77.2289ZM37.8355 13.1927C32.8816 13.1927 28.039 14.6886 23.9199 17.4914C19.8009 20.2941 16.5905 24.2777 14.6947 28.9385C12.799 33.5992 12.3029 38.7278 13.2694 43.6756C14.2359 48.6235 16.6214 53.1683 20.1243 56.7355C23.6273 60.3027 28.0903 62.732 32.949 63.7162C37.8078 64.7004 42.844 64.1953 47.4208 62.2647C51.9976 60.3342 55.9095 57.0649 58.6617 52.8703C61.414 48.6757 62.883 43.7443 62.883 38.6995C62.8738 31.9375 60.2319 25.4552 55.5366 20.6738C50.8413 15.8924 44.4757 13.2021 37.8355 13.1927Z" fill="#13100D"/>
</svg>
