<svg width="346" height="664" viewBox="0 0 346 664" fill="none" xmlns="http://www.w3.org/2000/svg">
<g filter="url(#filter0_d)">
<rect x="32.2937" y="28.2937" width="281.413" height="278.413" rx="7.70625" fill="#F8F8F8" stroke="#E1E1E1" stroke-width="0.5875"/>
<path d="M250.179 206.15C249.739 206.15 249.302 206.107 248.869 206.02C248.435 205.94 248.079 205.827 247.799 205.68V204.09C248.159 204.277 248.532 204.417 248.919 204.51C249.312 204.603 249.685 204.65 250.039 204.65C250.365 204.65 250.612 204.6 250.779 204.5C250.945 204.4 251.029 204.257 251.029 204.07C251.029 203.93 250.982 203.81 250.889 203.71C250.802 203.603 250.672 203.507 250.499 203.42C250.325 203.333 250.055 203.213 249.689 203.06C249.042 202.787 248.572 202.483 248.279 202.15C247.985 201.817 247.839 201.407 247.839 200.92C247.839 200.52 247.949 200.163 248.169 199.85C248.395 199.537 248.709 199.293 249.109 199.12C249.509 198.947 249.969 198.86 250.489 198.86C250.915 198.86 251.295 198.893 251.629 198.96C251.962 199.027 252.282 199.133 252.589 199.28V200.83C252.002 200.523 251.412 200.37 250.819 200.37C250.499 200.37 250.242 200.423 250.049 200.53C249.862 200.63 249.769 200.777 249.769 200.97C249.769 201.163 249.865 201.32 250.059 201.44C250.252 201.56 250.609 201.723 251.129 201.93C251.602 202.123 251.969 202.313 252.229 202.5C252.495 202.687 252.689 202.903 252.809 203.15C252.929 203.397 252.989 203.71 252.989 204.09C252.989 204.737 252.752 205.243 252.279 205.61C251.812 205.97 251.112 206.15 250.179 206.15ZM255.476 206.15C254.816 206.15 254.319 205.967 253.986 205.6C253.659 205.233 253.496 204.75 253.496 204.15V201.2H255.256V203.95C255.256 204.503 255.506 204.78 256.006 204.78C256.232 204.78 256.439 204.727 256.626 204.62C256.812 204.513 256.966 204.357 257.086 204.15V201.2H258.846V206H257.146V205.48C256.939 205.7 256.689 205.867 256.396 205.98C256.102 206.093 255.796 206.15 255.476 206.15ZM259.747 201.2H261.377V201.72C261.577 201.507 261.807 201.343 262.067 201.23C262.327 201.11 262.604 201.05 262.897 201.05C263.257 201.05 263.544 201.103 263.757 201.21C263.977 201.317 264.154 201.477 264.287 201.69C264.487 201.49 264.73 201.333 265.017 201.22C265.304 201.107 265.594 201.05 265.887 201.05C266.52 201.05 266.97 201.213 267.237 201.54C267.504 201.86 267.637 202.323 267.637 202.93V206H265.957V203.18C265.957 202.913 265.907 202.72 265.807 202.6C265.707 202.48 265.54 202.42 265.307 202.42C265.007 202.42 264.764 202.527 264.577 202.74C264.584 202.853 264.587 203.027 264.587 203.26V206H262.907V203.11C262.907 202.863 262.864 202.687 262.777 202.58C262.69 202.473 262.537 202.42 262.317 202.42C261.977 202.42 261.684 202.61 261.437 202.99V206H259.747V201.2ZM268.487 201.2H270.117V201.72C270.317 201.507 270.547 201.343 270.807 201.23C271.067 201.11 271.344 201.05 271.637 201.05C271.997 201.05 272.284 201.103 272.497 201.21C272.717 201.317 272.894 201.477 273.027 201.69C273.227 201.49 273.47 201.333 273.757 201.22C274.044 201.107 274.334 201.05 274.627 201.05C275.26 201.05 275.71 201.213 275.977 201.54C276.244 201.86 276.377 202.323 276.377 202.93V206H274.697V203.18C274.697 202.913 274.647 202.72 274.547 202.6C274.447 202.48 274.28 202.42 274.047 202.42C273.747 202.42 273.504 202.527 273.317 202.74C273.324 202.853 273.327 203.027 273.327 203.26V206H271.647V203.11C271.647 202.863 271.604 202.687 271.517 202.58C271.43 202.473 271.277 202.42 271.057 202.42C270.717 202.42 270.424 202.61 270.177 202.99V206H268.487V201.2ZM278.891 206.15C278.291 206.15 277.804 206.007 277.431 205.72C277.064 205.427 276.881 205.02 276.881 204.5C276.881 203.96 277.058 203.547 277.411 203.26C277.771 202.967 278.284 202.82 278.951 202.82C279.211 202.82 279.471 202.85 279.731 202.91C279.991 202.963 280.214 203.037 280.401 203.13V203.03C280.401 202.517 279.981 202.26 279.141 202.26C278.554 202.26 278.018 202.373 277.531 202.6V201.39C277.744 201.29 278.024 201.21 278.371 201.15C278.718 201.083 279.078 201.05 279.451 201.05C280.344 201.05 281.018 201.23 281.471 201.59C281.931 201.943 282.161 202.44 282.161 203.08V206H280.511V205.59C280.331 205.763 280.104 205.9 279.831 206C279.558 206.1 279.244 206.15 278.891 206.15ZM279.411 205.07C279.618 205.07 279.811 205.03 279.991 204.95C280.171 204.863 280.308 204.753 280.401 204.62V204.2C280.114 204.007 279.788 203.91 279.421 203.91C279.188 203.91 279.008 203.96 278.881 204.06C278.754 204.16 278.691 204.307 278.691 204.5C278.691 204.68 278.751 204.82 278.871 204.92C278.998 205.02 279.178 205.07 279.411 205.07ZM283.009 201.2H284.709V201.8C284.895 201.587 285.159 201.423 285.499 201.31C285.839 201.19 286.215 201.13 286.629 201.13V202.48C286.189 202.48 285.799 202.543 285.459 202.67C285.125 202.797 284.895 202.987 284.769 203.24V206H283.009V201.2ZM288.463 207.98C288.25 207.98 288.027 207.963 287.793 207.93C287.56 207.903 287.387 207.863 287.273 207.81V206.5C287.467 206.58 287.687 206.62 287.933 206.62C288.153 206.62 288.323 206.57 288.443 206.47C288.57 206.377 288.67 206.227 288.743 206.02L288.863 205.7L286.783 201.2H288.543L289.793 204.32L290.973 201.2H292.733L290.753 206.22C290.52 206.82 290.22 207.263 289.853 207.55C289.493 207.837 289.03 207.98 288.463 207.98ZM293.893 202.73C293.66 202.73 293.457 202.647 293.283 202.48C293.117 202.307 293.033 202.103 293.033 201.87C293.033 201.637 293.117 201.437 293.283 201.27C293.457 201.097 293.66 201.01 293.893 201.01C294.127 201.01 294.327 201.097 294.493 201.27C294.667 201.437 294.753 201.637 294.753 201.87C294.753 202.103 294.667 202.307 294.493 202.48C294.327 202.647 294.127 202.73 293.893 202.73ZM293.893 205.91C293.66 205.91 293.457 205.827 293.283 205.66C293.117 205.487 293.033 205.283 293.033 205.05C293.033 204.817 293.117 204.617 293.283 204.45C293.457 204.277 293.66 204.19 293.893 204.19C294.127 204.19 294.327 204.277 294.493 204.45C294.667 204.617 294.753 204.817 294.753 205.05C294.753 205.283 294.667 205.487 294.493 205.66C294.327 205.827 294.127 205.91 293.893 205.91ZM249.332 221.99L250.442 220.98L250.922 220.55C251.315 220.203 251.615 219.927 251.822 219.72C252.035 219.513 252.209 219.303 252.342 219.09C252.482 218.877 252.552 218.667 252.552 218.46C252.552 217.84 252.202 217.53 251.502 217.53C251.162 217.53 250.825 217.59 250.492 217.71C250.165 217.83 249.862 217.997 249.582 218.21V216.52C249.882 216.313 250.232 216.153 250.632 216.04C251.032 215.92 251.459 215.86 251.912 215.86C252.432 215.86 252.882 215.957 253.262 216.15C253.642 216.343 253.932 216.61 254.132 216.95C254.332 217.29 254.432 217.673 254.432 218.1C254.432 218.613 254.312 219.063 254.072 219.45C253.839 219.83 253.459 220.26 252.932 220.74L252.042 221.55H254.652V223H249.332V221.99ZM258.951 216.01H263.561V216.87H259.971V219.08H262.651V219.93H259.971V222.15H263.561V223H258.951V216.01ZM266.221 220.49L264.341 218.2H265.491L266.791 219.79L268.101 218.2H269.251L267.371 220.49L269.431 223H268.291L266.791 221.19L265.301 223H264.161L266.221 220.49ZM270.533 218.2H271.513V218.91C272.006 218.337 272.673 218.05 273.513 218.05C273.993 218.05 274.423 218.157 274.803 218.37C275.189 218.583 275.489 218.883 275.703 219.27C275.923 219.65 276.033 220.093 276.033 220.6C276.033 221.1 275.923 221.543 275.703 221.93C275.489 222.317 275.193 222.617 274.813 222.83C274.433 223.043 273.999 223.15 273.513 223.15C273.113 223.15 272.739 223.083 272.393 222.95C272.046 222.817 271.763 222.62 271.543 222.36V225.19H270.533V218.2ZM273.283 222.35C273.609 222.35 273.903 222.28 274.163 222.14C274.429 221.993 274.636 221.787 274.783 221.52C274.936 221.253 275.013 220.947 275.013 220.6C275.013 220.253 274.936 219.95 274.783 219.69C274.636 219.423 274.429 219.22 274.163 219.08C273.903 218.933 273.609 218.86 273.283 218.86C272.876 218.86 272.516 218.967 272.203 219.18C271.896 219.393 271.676 219.687 271.543 220.06V221.14C271.656 221.507 271.873 221.8 272.193 222.02C272.513 222.24 272.876 222.35 273.283 222.35ZM279.774 223.15C278.888 223.15 278.191 222.93 277.684 222.49C277.184 222.043 276.934 221.417 276.934 220.61C276.934 219.823 277.158 219.2 277.604 218.74C278.058 218.28 278.701 218.05 279.534 218.05C280.088 218.05 280.558 218.157 280.944 218.37C281.331 218.577 281.621 218.867 281.814 219.24C282.014 219.607 282.114 220.027 282.114 220.5V221H277.894C277.928 221.453 278.118 221.793 278.464 222.02C278.818 222.24 279.294 222.35 279.894 222.35C280.201 222.35 280.511 222.323 280.824 222.27C281.138 222.21 281.414 222.133 281.654 222.04V222.85C281.441 222.937 281.158 223.007 280.804 223.06C280.458 223.12 280.114 223.15 279.774 223.15ZM281.164 220.29C281.151 219.837 281.001 219.487 280.714 219.24C280.434 218.987 280.034 218.86 279.514 218.86C279.008 218.86 278.614 218.99 278.334 219.25C278.054 219.51 277.908 219.857 277.894 220.29H281.164ZM283.218 218.2H284.198V219.06C284.398 218.767 284.678 218.55 285.038 218.41C285.405 218.27 285.828 218.2 286.308 218.2V218.99C285.795 218.99 285.355 219.073 284.988 219.24C284.622 219.407 284.368 219.67 284.228 220.03V223H283.218V218.2ZM289.062 223.15C288.576 223.15 288.199 223.01 287.933 222.73C287.673 222.45 287.543 222.053 287.543 221.54V218.98H286.813V218.2H287.543V216.76H288.563V218.2H289.743V218.98H288.563V221.47C288.563 221.79 288.623 222.017 288.743 222.15C288.869 222.283 289.096 222.35 289.423 222.35C289.616 222.35 289.809 222.307 290.003 222.22V223.02C289.749 223.107 289.436 223.15 289.062 223.15ZM292.527 223.15C292.194 223.15 291.841 223.107 291.467 223.02C291.094 222.94 290.801 222.83 290.587 222.69V221.83C290.847 221.983 291.147 222.11 291.487 222.21C291.827 222.303 292.157 222.35 292.477 222.35C292.837 222.35 293.101 222.307 293.267 222.22C293.434 222.133 293.517 221.993 293.517 221.8C293.517 221.653 293.477 221.537 293.397 221.45C293.324 221.357 293.194 221.273 293.007 221.2C292.827 221.127 292.554 221.04 292.187 220.94C291.794 220.827 291.481 220.713 291.247 220.6C291.021 220.48 290.847 220.33 290.727 220.15C290.614 219.97 290.557 219.737 290.557 219.45C290.557 218.99 290.737 218.643 291.097 218.41C291.464 218.17 291.954 218.05 292.567 218.05C292.887 218.05 293.201 218.08 293.507 218.14C293.814 218.2 294.061 218.283 294.247 218.39V219.23C294.054 219.117 293.814 219.027 293.527 218.96C293.247 218.893 292.961 218.86 292.667 218.86C292.314 218.86 292.044 218.903 291.857 218.99C291.671 219.077 291.577 219.23 291.577 219.45C291.577 219.59 291.617 219.703 291.697 219.79C291.777 219.877 291.904 219.953 292.077 220.02C292.257 220.08 292.541 220.16 292.927 220.26C293.534 220.427 293.954 220.623 294.187 220.85C294.427 221.077 294.547 221.39 294.547 221.79C294.547 222.203 294.377 222.533 294.037 222.78C293.697 223.027 293.194 223.15 292.527 223.15ZM227.14 238.15C226.7 238.15 226.277 238.113 225.87 238.04C225.47 237.967 225.127 237.857 224.84 237.71V236.31C225.513 236.617 226.193 236.77 226.88 236.77C227.807 236.77 228.27 236.493 228.27 235.94C228.27 235.66 228.157 235.46 227.93 235.34C227.703 235.213 227.35 235.15 226.87 235.15H225.9V233.8H226.83C227.223 233.8 227.527 233.733 227.74 233.6C227.96 233.467 228.07 233.27 228.07 233.01C228.07 232.763 227.973 232.573 227.78 232.44C227.587 232.307 227.313 232.24 226.96 232.24C226.233 232.24 225.573 232.427 224.98 232.8V231.37C225.28 231.21 225.623 231.087 226.01 231C226.397 230.907 226.797 230.86 227.21 230.86C228.123 230.86 228.797 231.043 229.23 231.41C229.663 231.77 229.88 232.28 229.88 232.94C229.88 233.24 229.807 233.523 229.66 233.79C229.52 234.057 229.31 234.283 229.03 234.47C229.73 234.777 230.08 235.297 230.08 236.03C230.08 236.703 229.85 237.227 229.39 237.6C228.93 237.967 228.18 238.15 227.14 238.15ZM234.38 231.01H235.41V238H234.38V231.01ZM236.714 233.2H237.694V233.89C237.921 233.603 238.198 233.393 238.524 233.26C238.858 233.12 239.204 233.05 239.564 233.05C240.204 233.05 240.681 233.22 240.994 233.56C241.308 233.9 241.464 234.357 241.464 234.93V238H240.454V235.03C240.454 234.25 240.081 233.86 239.334 233.86C239.014 233.86 238.714 233.937 238.434 234.09C238.161 234.237 237.924 234.463 237.724 234.77V238H236.714V233.2ZM244.561 238.15C244.074 238.15 243.697 238.01 243.431 237.73C243.171 237.45 243.041 237.053 243.041 236.54V233.98H242.311V233.2H243.041V231.76H244.061V233.2H245.241V233.98H244.061V236.47C244.061 236.79 244.121 237.017 244.241 237.15C244.367 237.283 244.594 237.35 244.921 237.35C245.114 237.35 245.307 237.307 245.501 237.22V238.02C245.247 238.107 244.934 238.15 244.561 238.15ZM249.091 238.15C248.204 238.15 247.507 237.93 247.001 237.49C246.501 237.043 246.251 236.417 246.251 235.61C246.251 234.823 246.474 234.2 246.921 233.74C247.374 233.28 248.017 233.05 248.851 233.05C249.404 233.05 249.874 233.157 250.261 233.37C250.647 233.577 250.937 233.867 251.131 234.24C251.331 234.607 251.431 235.027 251.431 235.5V236H247.211C247.244 236.453 247.434 236.793 247.781 237.02C248.134 237.24 248.611 237.35 249.211 237.35C249.517 237.35 249.827 237.323 250.141 237.27C250.454 237.21 250.731 237.133 250.971 237.04V237.85C250.757 237.937 250.474 238.007 250.121 238.06C249.774 238.12 249.431 238.15 249.091 238.15ZM250.481 235.29C250.467 234.837 250.317 234.487 250.031 234.24C249.751 233.987 249.351 233.86 248.831 233.86C248.324 233.86 247.931 233.99 247.651 234.25C247.371 234.51 247.224 234.857 247.211 235.29H250.481ZM252.535 233.2H253.515V234.06C253.715 233.767 253.995 233.55 254.355 233.41C254.721 233.27 255.145 233.2 255.625 233.2V233.99C255.111 233.99 254.671 234.073 254.305 234.24C253.938 234.407 253.685 234.67 253.545 235.03V238H252.535V233.2ZM256.529 233.2H257.489V233.89C257.716 233.61 257.972 233.4 258.259 233.26C258.546 233.12 258.842 233.05 259.149 233.05C259.536 233.05 259.842 233.117 260.069 233.25C260.296 233.377 260.462 233.573 260.569 233.84C260.782 233.58 261.042 233.383 261.349 233.25C261.662 233.117 261.976 233.05 262.289 233.05C262.876 233.05 263.299 233.2 263.559 233.5C263.819 233.793 263.949 234.23 263.949 234.81V238H262.969V234.94C262.969 234.547 262.896 234.27 262.749 234.11C262.602 233.943 262.352 233.86 261.999 233.86C261.492 233.86 261.079 234.08 260.759 234.52C260.772 234.62 260.779 234.783 260.779 235.01V238H259.799V234.94C259.799 234.547 259.732 234.27 259.599 234.11C259.466 233.943 259.226 233.86 258.879 233.86C258.372 233.86 257.919 234.147 257.519 234.72V238H256.529V233.2ZM267.841 238.15C266.954 238.15 266.257 237.93 265.751 237.49C265.251 237.043 265.001 236.417 265.001 235.61C265.001 234.823 265.224 234.2 265.671 233.74C266.124 233.28 266.767 233.05 267.601 233.05C268.154 233.05 268.624 233.157 269.011 233.37C269.397 233.577 269.687 233.867 269.881 234.24C270.081 234.607 270.181 235.027 270.181 235.5V236H265.961C265.994 236.453 266.184 236.793 266.531 237.02C266.884 237.24 267.361 237.35 267.961 237.35C268.267 237.35 268.577 237.323 268.891 237.27C269.204 237.21 269.481 237.133 269.721 237.04V237.85C269.507 237.937 269.224 238.007 268.871 238.06C268.524 238.12 268.181 238.15 267.841 238.15ZM269.231 235.29C269.217 234.837 269.067 234.487 268.781 234.24C268.501 233.987 268.101 233.86 267.581 233.86C267.074 233.86 266.681 233.99 266.401 234.25C266.121 234.51 265.974 234.857 265.961 235.29H269.231ZM273.605 238.15C273.125 238.15 272.691 238.047 272.305 237.84C271.925 237.627 271.625 237.33 271.405 236.95C271.191 236.563 271.085 236.117 271.085 235.61C271.085 235.11 271.191 234.667 271.405 234.28C271.625 233.893 271.925 233.593 272.305 233.38C272.691 233.16 273.125 233.05 273.605 233.05C274.471 233.05 275.128 233.313 275.575 233.84V230.61H276.585V238H275.605V237.3C275.338 237.593 275.045 237.81 274.725 237.95C274.411 238.083 274.038 238.15 273.605 238.15ZM273.835 237.35C274.248 237.35 274.608 237.243 274.915 237.03C275.228 236.81 275.448 236.517 275.575 236.15V235.07C275.461 234.703 275.245 234.41 274.925 234.19C274.611 233.97 274.248 233.86 273.835 233.86C273.508 233.86 273.211 233.933 272.945 234.08C272.685 234.227 272.478 234.433 272.325 234.7C272.178 234.967 272.105 235.27 272.105 235.61C272.105 235.95 272.178 236.253 272.325 236.52C272.478 236.787 272.685 236.993 272.945 237.14C273.211 237.28 273.508 237.35 273.835 237.35ZM278.476 232.26C278.31 232.26 278.17 232.203 278.056 232.09C277.943 231.977 277.886 231.837 277.886 231.67C277.886 231.503 277.943 231.363 278.056 231.25C278.17 231.137 278.31 231.08 278.476 231.08C278.65 231.08 278.793 231.137 278.906 231.25C279.026 231.363 279.086 231.503 279.086 231.67C279.086 231.837 279.026 231.977 278.906 232.09C278.793 232.203 278.65 232.26 278.476 232.26ZM277.966 233.2H278.996V238H277.966V233.2ZM282.106 238.15C281.526 238.15 281.06 238.003 280.706 237.71C280.36 237.41 280.186 237.007 280.186 236.5C280.186 235.967 280.353 235.557 280.686 235.27C281.026 234.977 281.506 234.83 282.126 234.83C282.786 234.83 283.346 234.963 283.806 235.23V234.98C283.806 234.6 283.69 234.32 283.456 234.14C283.23 233.953 282.87 233.86 282.376 233.86C282.083 233.86 281.796 233.89 281.516 233.95C281.243 234.003 280.996 234.08 280.776 234.18V233.36C280.976 233.267 281.236 233.193 281.556 233.14C281.876 233.08 282.186 233.05 282.486 233.05C283.28 233.05 283.866 233.227 284.246 233.58C284.633 233.927 284.826 234.41 284.826 235.03V238H283.876V237.46C283.67 237.687 283.423 237.86 283.136 237.98C282.856 238.093 282.513 238.15 282.106 238.15ZM282.356 237.38C282.676 237.38 282.966 237.317 283.226 237.19C283.486 237.063 283.68 236.887 283.806 236.66V236.01C283.373 235.73 282.89 235.59 282.356 235.59C281.97 235.59 281.68 235.667 281.486 235.82C281.3 235.967 281.206 236.193 281.206 236.5C281.206 237.087 281.59 237.38 282.356 237.38ZM287.676 238.15C287.189 238.15 286.812 238.01 286.546 237.73C286.286 237.45 286.156 237.053 286.156 236.54V233.98H285.426V233.2H286.156V231.76H287.176V233.2H288.356V233.98H287.176V236.47C287.176 236.79 287.236 237.017 287.356 237.15C287.482 237.283 287.709 237.35 288.036 237.35C288.229 237.35 288.422 237.307 288.616 237.22V238.02C288.362 238.107 288.049 238.15 287.676 238.15ZM292.206 238.15C291.319 238.15 290.623 237.93 290.116 237.49C289.616 237.043 289.366 236.417 289.366 235.61C289.366 234.823 289.589 234.2 290.036 233.74C290.489 233.28 291.133 233.05 291.966 233.05C292.519 233.05 292.989 233.157 293.376 233.37C293.763 233.577 294.053 233.867 294.246 234.24C294.446 234.607 294.546 235.027 294.546 235.5V236H290.326C290.359 236.453 290.549 236.793 290.896 237.02C291.249 237.24 291.726 237.35 292.326 237.35C292.633 237.35 292.943 237.323 293.256 237.27C293.569 237.21 293.846 237.133 294.086 237.04V237.85C293.873 237.937 293.589 238.007 293.236 238.06C292.889 238.12 292.546 238.15 292.206 238.15ZM293.596 235.29C293.583 234.837 293.433 234.487 293.146 234.24C292.866 233.987 292.466 233.86 291.946 233.86C291.439 233.86 291.046 233.99 290.766 234.25C290.486 234.51 290.339 234.857 290.326 235.29H293.596Z" fill="black"/>
<rect x="50" y="256" width="246" height="31" rx="15.5" fill="black"/>
<path d="M134.255 276.059C133.804 276.059 133.356 276.016 132.912 275.932C132.468 275.847 132.105 275.734 131.823 275.593V274.176C132.197 274.36 132.584 274.497 132.986 274.589C133.388 274.68 133.772 274.726 134.139 274.726C134.548 274.726 134.858 274.656 135.07 274.515C135.281 274.374 135.387 274.176 135.387 273.922C135.387 273.739 135.334 273.584 135.228 273.457C135.122 273.33 134.967 273.217 134.763 273.119C134.566 273.013 134.259 272.876 133.843 272.706C133.152 272.424 132.651 272.111 132.341 271.765C132.031 271.413 131.876 270.979 131.876 270.464C131.876 270.048 131.989 269.682 132.214 269.365C132.44 269.04 132.757 268.79 133.166 268.614C133.575 268.438 134.047 268.349 134.583 268.349C135.02 268.349 135.408 268.385 135.746 268.455C136.085 268.526 136.416 268.635 136.74 268.783V270.158C136.12 269.848 135.5 269.692 134.879 269.692C134.484 269.692 134.174 269.763 133.949 269.904C133.723 270.038 133.61 270.232 133.61 270.486C133.61 270.669 133.663 270.82 133.769 270.94C133.875 271.06 134.023 271.166 134.213 271.258C134.403 271.349 134.714 271.483 135.144 271.659C135.644 271.871 136.035 272.075 136.317 272.273C136.599 272.463 136.807 272.692 136.941 272.96C137.075 273.221 137.142 273.545 137.142 273.933C137.142 274.603 136.899 275.124 136.413 275.498C135.933 275.872 135.214 276.059 134.255 276.059ZM140.964 276.059C139.991 276.059 139.226 275.826 138.669 275.361C138.112 274.888 137.833 274.229 137.833 273.383C137.833 272.544 138.08 271.881 138.574 271.395C139.074 270.909 139.786 270.665 140.71 270.665C141.316 270.665 141.831 270.778 142.254 271.004C142.677 271.229 142.998 271.543 143.216 271.945C143.435 272.34 143.544 272.787 143.544 273.288V273.933H139.356C139.469 274.582 140.075 274.906 141.175 274.906C141.499 274.906 141.834 274.878 142.18 274.821C142.525 274.765 142.825 274.687 143.079 274.589V275.71C142.832 275.815 142.515 275.9 142.127 275.963C141.739 276.027 141.351 276.059 140.964 276.059ZM142.032 272.897C142.011 272.558 141.884 272.297 141.651 272.114C141.418 271.924 141.098 271.829 140.689 271.829C140.287 271.829 139.97 271.924 139.737 272.114C139.504 272.304 139.377 272.565 139.356 272.897H142.032ZM146.32 276.059C145.7 276.059 145.192 275.904 144.797 275.593C144.41 275.276 144.216 274.846 144.216 274.303C144.216 273.739 144.402 273.302 144.776 272.992C145.15 272.675 145.679 272.516 146.362 272.516C146.666 272.516 146.955 272.548 147.23 272.611C147.504 272.675 147.748 272.763 147.959 272.876V272.749C147.959 272.431 147.846 272.199 147.621 272.051C147.395 271.903 147.05 271.829 146.584 271.829C145.964 271.829 145.393 271.945 144.871 272.178V271.014C145.097 270.916 145.389 270.835 145.749 270.771C146.109 270.701 146.468 270.665 146.828 270.665C147.744 270.665 148.428 270.856 148.879 271.236C149.33 271.61 149.556 272.135 149.556 272.812V275.9H148.054V275.435C147.624 275.851 147.046 276.059 146.32 276.059ZM146.754 275.001C147.015 275.001 147.251 274.952 147.462 274.853C147.674 274.754 147.839 274.617 147.959 274.441V273.933C147.6 273.693 147.205 273.573 146.775 273.573C146.479 273.573 146.25 273.637 146.087 273.764C145.932 273.884 145.855 274.063 145.855 274.303C145.855 274.529 145.932 274.701 146.087 274.821C146.243 274.941 146.465 275.001 146.754 275.001ZM150.613 270.824H152.157V271.554C152.362 271.307 152.647 271.12 153.014 270.993C153.38 270.859 153.796 270.792 154.261 270.792V272.008C153.775 272.008 153.345 272.082 152.971 272.23C152.605 272.379 152.351 272.604 152.21 272.907V275.9H150.613V270.824ZM157.68 276.059C156.764 276.059 156.034 275.826 155.491 275.361C154.948 274.888 154.677 274.226 154.677 273.373C154.677 272.52 154.948 271.857 155.491 271.384C156.041 270.905 156.774 270.665 157.691 270.665C158.523 270.665 159.186 270.82 159.679 271.131V272.389C159.453 272.227 159.189 272.107 158.886 272.03C158.59 271.952 158.276 271.913 157.945 271.913C157.451 271.913 157.056 272.033 156.76 272.273C156.464 272.512 156.316 272.879 156.316 273.373C156.316 273.866 156.461 274.233 156.75 274.472C157.046 274.705 157.441 274.821 157.934 274.821C158.618 274.821 159.221 274.656 159.742 274.324V275.572C159.221 275.896 158.533 276.059 157.68 276.059ZM160.63 268.085H162.227V271.406C162.467 271.159 162.738 270.976 163.042 270.856C163.345 270.729 163.669 270.665 164.014 270.665C164.705 270.665 165.22 270.852 165.558 271.226C165.904 271.592 166.077 272.089 166.077 272.717V275.9H164.48V272.897C164.48 272.241 164.177 271.913 163.57 271.913C163.302 271.913 163.052 271.98 162.819 272.114C162.587 272.241 162.389 272.431 162.227 272.685V275.9H160.63V268.085ZM171.14 271.977H170.411V270.824H171.14V270.073C171.14 269.418 171.341 268.913 171.743 268.561C172.145 268.208 172.667 268.032 173.308 268.032C173.675 268.032 173.992 268.089 174.26 268.201V269.481C174.056 269.389 173.84 269.343 173.615 269.343C173.319 269.343 173.097 269.41 172.949 269.544C172.808 269.678 172.737 269.897 172.737 270.2V270.824H173.943V271.977H172.737V275.9H171.14V271.977ZM177.21 276.059C176.597 276.059 176.058 275.949 175.592 275.731C175.134 275.505 174.778 275.191 174.524 274.79C174.277 274.381 174.154 273.905 174.154 273.362C174.154 272.833 174.277 272.364 174.524 271.956C174.778 271.547 175.134 271.229 175.592 271.004C176.058 270.778 176.597 270.665 177.21 270.665C177.817 270.665 178.349 270.778 178.807 271.004C179.272 271.229 179.628 271.547 179.875 271.956C180.129 272.364 180.256 272.833 180.256 273.362C180.256 273.905 180.129 274.381 179.875 274.79C179.628 275.191 179.276 275.505 178.818 275.731C178.359 275.949 177.824 276.059 177.21 276.059ZM177.21 274.811C177.64 274.811 177.982 274.68 178.236 274.419C178.49 274.152 178.617 273.799 178.617 273.362C178.617 272.911 178.49 272.558 178.236 272.304C177.989 272.044 177.647 271.913 177.21 271.913C176.773 271.913 176.428 272.044 176.174 272.304C175.92 272.558 175.793 272.911 175.793 273.362C175.793 273.799 175.92 274.152 176.174 274.419C176.435 274.68 176.78 274.811 177.21 274.811ZM181.15 270.824H182.694V271.554C182.899 271.307 183.184 271.12 183.551 270.993C183.918 270.859 184.334 270.792 184.799 270.792V272.008C184.312 272.008 183.882 272.082 183.509 272.23C183.142 272.379 182.888 272.604 182.747 272.907V275.9H181.15V270.824ZM191.3 276.059C190.708 276.059 190.257 275.896 189.947 275.572C189.644 275.241 189.492 274.783 189.492 274.197V271.977H188.752V270.824H189.492V269.301H191.089V270.824H192.284V271.977H191.089V273.986C191.089 274.282 191.145 274.497 191.258 274.631C191.371 274.758 191.572 274.821 191.861 274.821C192.093 274.821 192.315 274.765 192.527 274.652V275.847C192.203 275.988 191.794 276.059 191.3 276.059ZM196.183 276.059C195.21 276.059 194.445 275.826 193.888 275.361C193.331 274.888 193.053 274.229 193.053 273.383C193.053 272.544 193.299 271.881 193.793 271.395C194.294 270.909 195.006 270.665 195.929 270.665C196.535 270.665 197.05 270.778 197.473 271.004C197.896 271.229 198.217 271.543 198.435 271.945C198.654 272.34 198.763 272.787 198.763 273.288V273.933H194.576C194.688 274.582 195.295 274.906 196.394 274.906C196.719 274.906 197.054 274.878 197.399 274.821C197.745 274.765 198.044 274.687 198.298 274.589V275.71C198.051 275.815 197.734 275.9 197.346 275.963C196.958 276.027 196.571 276.059 196.183 276.059ZM197.251 272.897C197.23 272.558 197.103 272.297 196.87 272.114C196.638 271.924 196.317 271.829 195.908 271.829C195.506 271.829 195.189 271.924 194.956 272.114C194.724 272.304 194.597 272.565 194.576 272.897H197.251ZM201.539 276.059C200.919 276.059 200.411 275.904 200.017 275.593C199.629 275.276 199.435 274.846 199.435 274.303C199.435 273.739 199.622 273.302 199.995 272.992C200.369 272.675 200.898 272.516 201.582 272.516C201.885 272.516 202.174 272.548 202.449 272.611C202.724 272.675 202.967 272.763 203.178 272.876V272.749C203.178 272.431 203.066 272.199 202.84 272.051C202.614 271.903 202.269 271.829 201.804 271.829C201.183 271.829 200.612 271.945 200.091 272.178V271.014C200.316 270.916 200.609 270.835 200.968 270.771C201.328 270.701 201.687 270.665 202.047 270.665C202.963 270.665 203.647 270.856 204.098 271.236C204.55 271.61 204.775 272.135 204.775 272.812V275.9H203.274V275.435C202.844 275.851 202.265 276.059 201.539 276.059ZM201.973 275.001C202.234 275.001 202.47 274.952 202.681 274.853C202.893 274.754 203.059 274.617 203.178 274.441V273.933C202.819 273.693 202.424 273.573 201.994 273.573C201.698 273.573 201.469 273.637 201.307 273.764C201.152 273.884 201.074 274.063 201.074 274.303C201.074 274.529 201.152 274.701 201.307 274.821C201.462 274.941 201.684 275.001 201.973 275.001ZM205.832 270.824H207.323V271.437C207.542 271.191 207.796 271 208.085 270.866C208.374 270.732 208.674 270.665 208.984 270.665C209.371 270.665 209.682 270.729 209.914 270.856C210.147 270.976 210.33 271.155 210.464 271.395C210.683 271.162 210.947 270.983 211.257 270.856C211.575 270.729 211.888 270.665 212.199 270.665C212.847 270.665 213.309 270.831 213.584 271.162C213.866 271.494 214.007 271.973 214.007 272.601V275.9H212.484V272.823C212.484 272.498 212.421 272.266 212.294 272.125C212.167 271.984 211.962 271.913 211.68 271.913C211.286 271.913 210.968 272.068 210.729 272.379C210.743 272.604 210.75 272.787 210.75 272.928V275.9H209.216V272.77C209.216 272.46 209.16 272.241 209.047 272.114C208.941 271.98 208.755 271.913 208.487 271.913C208.071 271.913 207.701 272.149 207.376 272.622V275.9H205.832V270.824Z" fill="white"/>
<rect x="49.9187" y="68.3062" width="246.163" height="54.6375" rx="0.88125" fill="white" stroke="#E2E2E2" stroke-width="0.5875"/>
<path d="M62.6014 80.9632L68.3002 80.977L68.2962 82.481L64.3835 82.4715L64.3784 84.3868L67.2572 84.3937L67.2535 85.7685L64.3748 85.7615L64.3658 89.1808L62.5798 89.1764L62.6014 80.9632ZM68.5155 83.5508L70.231 83.5549L70.2289 84.3657C70.4568 84.0921 70.7746 83.8853 71.1823 83.7452C71.59 83.5974 72.0524 83.5241 72.5694 83.5253L72.5658 84.8766C72.0253 84.8753 71.5473 84.9564 71.1317 85.1199C70.7239 85.2834 70.4412 85.5334 70.2837 85.8698L70.2749 89.1951L68.5007 89.1908L68.5155 83.5508ZM76.2967 89.3859C75.6152 89.3842 75.0163 89.2614 74.4999 89.0173C73.9914 88.7654 73.5967 88.4158 73.3159 87.9687C73.043 87.5137 72.9073 86.9846 72.9088 86.3814C72.9104 85.7939 73.0488 85.2733 73.3242 84.8197C73.6074 84.366 74.0039 84.0145 74.5137 83.765C75.0314 83.5156 75.631 83.3918 76.3125 83.3934C76.9861 83.395 77.5772 83.5218 78.0857 83.7737C78.6021 84.0256 78.9967 84.3791 79.2697 84.8341C79.5505 85.2891 79.6901 85.8103 79.6886 86.3978C79.687 87.001 79.5446 87.5294 79.2614 87.9831C78.9861 88.4289 78.5935 88.7765 78.0837 89.026C77.5739 89.2676 76.9782 89.3875 76.2967 89.3859ZM76.3004 87.9994C76.7782 88.0005 77.1585 87.8565 77.4412 87.5674C77.724 87.2704 77.8661 86.8791 77.8673 86.3934C77.8686 85.8921 77.7287 85.5001 77.4474 85.2174C77.174 84.9269 76.7945 84.7811 76.3088 84.7799C75.8232 84.7787 75.4389 84.9227 75.1562 85.2119C74.8734 85.4932 74.7314 85.8845 74.7301 86.3858C74.7288 86.8715 74.8688 87.2635 75.15 87.5619C75.4391 87.8524 75.8225 87.9982 76.3004 87.9994ZM80.6901 83.5802L82.4056 83.5844L82.4037 84.2776C82.663 83.9884 82.9691 83.7738 83.3219 83.6336C83.6826 83.4857 84.0588 83.4121 84.4505 83.4131C85.2182 83.415 85.7895 83.6239 86.1644 84.04C86.5471 84.4483 86.7376 85.001 86.7358 85.6981L86.7265 89.2349L84.9522 89.2306L84.961 85.8936C84.9629 85.1651 84.627 84.8 83.9534 84.7984C83.6557 84.7977 83.3774 84.8714 83.1185 85.0196C82.8597 85.16 82.6398 85.371 82.4589 85.6525L82.4495 89.2245L80.6752 89.2202L80.6901 83.5802ZM90.2655 89.4197C89.6075 89.4181 89.1066 89.2367 88.7629 88.8756C88.427 88.5066 88.26 87.997 88.2617 87.3468L88.2682 84.8793L87.4457 84.8774L87.449 83.5966L88.2715 83.5986L88.276 81.9066L90.0502 81.9109L90.0458 83.6029L91.3735 83.6061L91.3702 84.8868L90.0424 84.8836L90.0365 87.1161C90.0357 87.4451 90.0977 87.6842 90.2227 87.8333C90.3476 87.9746 90.5707 88.0457 90.8919 88.0465C91.1503 88.0471 91.3973 87.985 91.6326 87.8602L91.6291 89.188C91.2684 89.3438 90.8138 89.421 90.2655 89.4197ZM92.2243 85.0064L96.2663 85.0162L96.2626 86.4262L92.2206 86.4164L92.2243 85.0064ZM100.499 89.4445C99.4175 89.4418 98.5683 89.1813 97.9508 88.6628C97.3334 88.1365 97.0259 87.4033 97.0283 86.4633C97.0308 85.5311 97.3069 84.7955 97.8566 84.2563C98.4142 83.7171 99.2061 83.4488 100.232 83.4513C100.906 83.4529 101.477 83.5796 101.947 83.8314C102.416 84.0832 102.772 84.4327 103.013 84.8798C103.255 85.319 103.375 85.8167 103.374 86.3729L103.372 87.0897L98.7187 87.0784C98.8422 87.7994 99.5149 88.1613 100.737 88.1643C101.097 88.1652 101.469 88.1347 101.853 88.073C102.237 88.0112 102.571 87.9259 102.853 87.8169L102.85 89.0624C102.575 89.1792 102.222 89.2724 101.791 89.3418C101.36 89.4113 100.929 89.4455 100.499 89.4445ZM101.694 85.9341C101.672 85.558 101.532 85.2679 101.274 85.0636C101.016 84.8514 100.66 84.7448 100.205 84.7437C99.7589 84.7427 99.4061 84.8475 99.147 85.0584C98.888 85.2693 98.7462 85.5588 98.7218 85.9269L101.694 85.9341ZM104.362 83.6375L106.078 83.6417L106.076 84.3349C106.335 84.0457 106.641 83.8311 106.994 83.6909C107.355 83.5429 107.731 83.4694 108.123 83.4704C108.89 83.4722 109.462 83.6812 109.836 84.0973C110.219 84.5056 110.41 85.0583 110.408 85.7554L110.399 89.2922L108.624 89.2879L108.633 85.9509C108.635 85.2224 108.299 84.8573 107.625 84.8557C107.328 84.855 107.049 84.9287 106.791 85.0769C106.532 85.2173 106.312 85.4283 106.131 85.7098L106.122 89.2818L104.347 89.2775L104.362 83.6375ZM114.325 89.4779C113.746 89.4765 113.229 89.3539 112.775 89.1099C112.329 88.8582 111.978 88.5087 111.721 88.0616C111.471 87.6067 111.347 87.0815 111.349 86.4862C111.35 85.8987 111.477 85.3781 111.729 84.9244C111.981 84.4706 112.334 84.119 112.789 83.8694C113.244 83.612 113.761 83.484 114.341 83.4854C114.764 83.4865 115.152 83.5462 115.504 83.6645C115.856 83.7829 116.153 83.952 116.395 84.1719L116.405 80.6234L118.179 80.6277L118.156 89.3109L116.441 89.3068L116.442 88.6958C116.152 88.9693 115.834 89.1682 115.489 89.2927C115.152 89.4173 114.764 89.479 114.325 89.4779ZM114.787 88.1043C115.155 88.1052 115.481 88.008 115.763 87.8129C116.054 87.6178 116.262 87.3559 116.388 87.0272L116.391 85.9579C116.282 85.6365 116.079 85.3775 115.782 85.1809C115.493 84.9766 115.164 84.8739 114.796 84.873C114.318 84.8719 113.926 85.0198 113.619 85.3167C113.321 85.6136 113.171 86.005 113.17 86.4906C113.169 86.9763 113.316 87.3683 113.613 87.6667C113.918 87.9573 114.309 88.1031 114.787 88.1043ZM126.575 81.118L128.326 81.1223L131.582 89.3434L129.761 89.339L129.061 87.5513L125.806 87.5435L125.096 89.3277L123.263 89.3233L126.575 81.118ZM128.595 86.1284L127.439 83.0001L126.268 86.1228L128.595 86.1284ZM132.59 83.7059L134.305 83.71L134.303 84.4033C134.562 84.1141 134.869 83.8994 135.221 83.7592C135.582 83.6113 135.958 83.5378 136.35 83.5387C137.118 83.5406 137.689 83.7495 138.064 84.1656C138.447 84.5739 138.637 85.1266 138.635 85.8237L138.626 89.3605L136.852 89.3562L136.86 86.0192C136.862 85.2907 136.527 84.9256 135.853 84.924C135.555 84.9233 135.277 84.997 135.018 85.1452C134.759 85.2856 134.539 85.4966 134.358 85.7781L134.349 89.3501L132.575 89.3458L132.59 83.7059ZM142.828 92.0732C142.452 92.0723 142.072 92.0361 141.689 91.9647C141.313 91.8932 140.996 91.7985 140.738 91.6804L140.741 90.3761C141.344 90.6439 142.04 90.7788 142.831 90.7807C143.466 90.7822 143.921 90.6541 144.196 90.3962C144.47 90.1384 144.608 89.751 144.61 89.234L144.611 88.8815C144.367 89.1002 144.069 89.264 143.716 89.3728C143.364 89.4895 142.987 89.5473 142.588 89.5463C142.008 89.5449 141.488 89.4183 141.026 89.1665C140.573 88.9069 140.217 88.5497 139.96 88.0947C139.702 87.6398 139.575 87.1224 139.576 86.5428C139.578 85.9474 139.704 85.4229 139.956 84.9692C140.216 84.5155 140.569 84.1678 141.017 83.926C141.472 83.6764 141.989 83.5524 142.569 83.5538C143.007 83.5548 143.395 83.6184 143.731 83.7446C144.068 83.8707 144.384 84.0712 144.681 84.3461L144.683 83.7351L146.399 83.7393L146.385 89.015C146.382 89.9942 146.09 90.7494 145.509 91.2806C144.928 91.8119 144.034 92.0761 142.828 92.0732ZM143.015 88.1726C143.383 88.1735 143.712 88.0764 144.002 87.8812C144.301 87.6783 144.505 87.4125 144.615 87.0837L144.618 86.0262C144.494 85.6969 144.287 85.434 143.998 85.2375C143.716 85.041 143.391 84.9423 143.023 84.9414C142.545 84.9402 142.153 85.0842 141.847 85.3733C141.549 85.6624 141.399 86.0498 141.397 86.5354C141.396 87.0289 141.544 87.4249 141.841 87.7233C142.146 88.0217 142.537 88.1714 143.015 88.1726ZM149.862 89.5639C149.094 89.5621 148.519 89.3531 148.136 88.937C147.753 88.5131 147.563 87.9525 147.565 87.2554L147.574 83.7421L149.348 83.7464L149.339 87.0717C149.338 87.808 149.677 88.177 150.359 88.1786C150.656 88.1793 150.935 88.1095 151.194 87.9691C151.452 87.8288 151.668 87.6178 151.842 87.3362L151.851 83.7525L153.625 83.7568L153.61 89.3968L151.895 89.3926L151.897 88.7111C151.645 89.0003 151.339 89.215 150.978 89.3551C150.626 89.4953 150.253 89.5649 149.862 89.5639ZM154.87 80.7165L156.644 80.7208L156.621 89.404L154.847 89.3997L154.87 80.7165ZM159.956 89.5884C159.267 89.5867 158.703 89.413 158.265 89.0673C157.835 88.7137 157.621 88.2354 157.623 87.6322C157.625 87.0055 157.833 86.5204 158.249 86.1767C158.666 85.8252 159.254 85.6504 160.013 85.6522C160.35 85.6531 160.671 85.6891 160.977 85.7603C161.282 85.8316 161.552 85.9301 161.787 86.056L161.787 85.915C161.788 85.5625 161.663 85.3037 161.413 85.1386C161.163 84.9735 160.779 84.8903 160.262 84.8891C159.573 84.8874 158.938 85.0151 158.358 85.2722L158.361 83.9797C158.612 83.8707 158.937 83.7814 159.337 83.7118C159.737 83.6345 160.136 83.5963 160.536 83.5972C161.554 83.5997 162.313 83.813 162.814 84.2373C163.314 84.6536 163.563 85.2378 163.561 85.9898L163.552 89.4208L161.883 89.4168L161.885 88.8998C161.406 89.3608 160.763 89.5903 159.956 89.5884ZM160.441 88.4145C160.731 88.4152 160.993 88.361 161.229 88.2519C161.464 88.1428 161.648 87.9905 161.782 87.795L161.783 87.231C161.385 86.9637 160.946 86.8295 160.469 86.8283C160.14 86.8275 159.885 86.8974 159.704 87.038C159.532 87.1707 159.445 87.3703 159.444 87.6366C159.443 87.8873 159.529 88.0794 159.701 88.213C159.873 88.3466 160.12 88.4138 160.441 88.4145ZM164.741 83.7837L166.457 83.7878L166.455 84.5986C166.683 84.325 167 84.1181 167.408 83.9781C167.816 83.8303 168.278 83.757 168.795 83.7582L168.792 85.1095C168.251 85.1082 167.773 85.1893 167.357 85.3528C166.95 85.5163 166.667 85.7663 166.509 86.1027L166.501 89.4279L164.726 89.4237L164.741 83.7837Z" fill="#13100D"/>
<path d="M255.919 98.5438L257.539 97.0743C257.867 96.7821 258.113 96.5673 258.277 96.4298C258.77 96.0002 259.145 95.6564 259.405 95.3986C259.664 95.1321 259.876 94.8569 260.04 94.5729C260.205 94.289 260.287 93.9962 260.288 93.6946C260.289 93.2724 260.165 92.9403 259.916 92.6985C259.675 92.4566 259.296 92.3351 258.779 92.3338C258.348 92.3328 257.917 92.4093 257.486 92.5633C257.055 92.7088 256.658 92.9189 256.295 93.1938L256.3 91.3197C256.68 91.0535 257.112 90.852 257.594 90.7153C258.086 90.57 258.616 90.4981 259.185 90.4994C259.84 90.501 260.404 90.623 260.877 90.8655C261.35 91.1079 261.711 91.4491 261.96 91.8892C262.209 92.3292 262.332 92.8336 262.331 93.4023C262.329 94.0399 262.164 94.6082 261.835 95.1072C261.515 95.5976 260.992 96.1779 260.267 96.8483L258.88 98.1116L262.629 98.1206L262.624 99.7363L255.916 99.72L255.919 98.5438Z" fill="#13100D"/>
<rect x="272.843" y="89.2504" width="11.6941" height="11.3143" rx="5.65714" fill="#FFE900"/>
<line x1="275.92" y1="94.7941" x2="281.479" y2="94.7941" stroke="black" stroke-width="0.8225"/>
<rect x="232.837" y="89.2503" width="11.6941" height="11.3143" rx="5.65714" fill="#FFE900"/>
<line x1="235.915" y1="94.794" x2="241.473" y2="94.794" stroke="black" stroke-width="0.8225"/>
<line x1="238.788" y1="92.2277" x2="238.788" y2="97.6061" stroke="black" stroke-width="0.8225"/>
<rect x="61.9624" y="95.625" width="54.05" height="16.45" rx="8.225" fill="#1D1578"/>
<path d="M69.9667 100.697H73.3859V101.592H71.0383V102.734H72.7655V103.595H71.0383V104.73H73.3859V105.625H69.9667V100.697ZM75.0371 103.877L73.6835 102.241H74.8749L75.6293 103.157L76.3907 102.241H77.5821L76.2215 103.877L77.6738 105.625H76.4964L75.6293 104.589L74.7692 105.625H73.5848L75.0371 103.877ZM78.2697 102.241H79.299V102.615C79.6421 102.295 80.0651 102.135 80.568 102.135C80.9205 102.135 81.2307 102.21 81.4986 102.361C81.7712 102.507 81.9827 102.716 82.1331 102.988C82.2835 103.256 82.3587 103.569 82.3587 103.926C82.3587 104.278 82.2835 104.591 82.1331 104.864C81.9827 105.136 81.7712 105.35 81.4986 105.505C81.2307 105.656 80.9205 105.731 80.568 105.731C80.3283 105.731 80.1004 105.695 79.8842 105.625C79.668 105.555 79.4847 105.453 79.3343 105.322V107.169H78.2697V102.241ZM80.3001 104.899C80.5868 104.899 80.8195 104.81 80.9981 104.631C81.1814 104.452 81.273 104.217 81.273 103.926C81.273 103.635 81.1814 103.402 80.9981 103.228C80.8195 103.054 80.5868 102.967 80.3001 102.967C80.0792 102.967 79.8818 103.026 79.7079 103.143C79.534 103.261 79.4095 103.416 79.3343 103.609V104.25C79.4048 104.448 79.527 104.605 79.7009 104.723C79.8795 104.84 80.0792 104.899 80.3001 104.899ZM84.904 105.731C84.2555 105.731 83.7455 105.576 83.3742 105.265C83.0029 104.951 82.8173 104.511 82.8173 103.947C82.8173 103.388 82.9818 102.946 83.3108 102.622C83.6445 102.297 84.1192 102.135 84.7349 102.135C85.1391 102.135 85.4822 102.21 85.7642 102.361C86.0462 102.511 86.26 102.72 86.4057 102.988C86.5514 103.251 86.6243 103.55 86.6243 103.884V104.314H83.8325C83.9076 104.746 84.3118 104.962 85.0451 104.962C85.2613 104.962 85.4845 104.943 85.7148 104.906C85.9451 104.868 86.1448 104.817 86.314 104.751V105.498C86.1496 105.569 85.9381 105.625 85.6796 105.667C85.4211 105.71 85.1626 105.731 84.904 105.731ZM85.6161 103.623C85.602 103.397 85.5174 103.223 85.3623 103.101C85.2072 102.974 84.9934 102.911 84.7208 102.911C84.4528 102.911 84.2413 102.974 84.0863 103.101C83.9312 103.228 83.8466 103.402 83.8325 103.623H85.6161ZM87.213 102.241H88.2423V102.727C88.3786 102.563 88.569 102.438 88.8134 102.354C89.0578 102.265 89.3351 102.22 89.6453 102.22V103.031C89.321 103.031 89.0343 103.08 88.7852 103.179C88.5408 103.277 88.3716 103.428 88.2776 103.63V105.625H87.213V102.241ZM91.5148 105.731C91.12 105.731 90.8192 105.623 90.6124 105.406C90.4103 105.186 90.3093 104.88 90.3093 104.49V103.009H89.8158V102.241H90.3093V101.226H91.3738V102.241H92.1705V103.009H91.3738V104.349C91.3738 104.546 91.4114 104.69 91.4866 104.779C91.5618 104.864 91.6958 104.906 91.8885 104.906C92.0436 104.906 92.1916 104.868 92.3326 104.793V105.59C92.1164 105.684 91.8438 105.731 91.5148 105.731Z" fill="white"/>
<path d="M106.562 102.891L108.325 104.653L110.087 102.891" stroke="white" stroke-width="0.705"/>
<rect x="49.9187" y="129.406" width="246.163" height="54.6375" rx="0.88125" fill="white" stroke="#E2E2E2" stroke-width="0.5875"/>
<path d="M62.6014 142.063L66.6317 142.073C67.4072 142.075 68.0137 142.268 68.4514 142.653C68.889 143.038 69.1069 143.595 69.105 144.323C69.104 144.691 69.017 145.028 68.8438 145.333C68.6707 145.63 68.4351 145.861 68.137 146.025C68.544 146.174 68.8489 146.402 69.0517 146.708C69.2546 147.006 69.3554 147.398 69.3541 147.884C69.3528 148.378 69.2381 148.808 69.01 149.176C68.7897 149.536 68.4835 149.813 68.0913 150.008C67.707 150.195 67.2798 150.288 66.8098 150.287L62.5798 150.276L62.6014 142.063ZM66.2821 145.409C66.5955 145.41 66.8424 145.332 67.023 145.176C67.2036 145.02 67.2943 144.769 67.2952 144.425C67.2962 144.049 67.2068 143.79 67.027 143.648C66.8551 143.507 66.5889 143.436 66.2286 143.435L64.3838 143.431L64.3786 145.404L66.2821 145.409ZM66.3786 148.923C66.7625 148.924 67.0525 148.85 67.2487 148.701C67.4528 148.545 67.5553 148.275 67.5564 147.891C67.5574 147.5 67.4524 147.218 67.2413 147.045C67.0381 146.872 66.7328 146.785 66.3255 146.784L64.375 146.779L64.3694 148.918L66.3786 148.923ZM70.3709 141.612L72.1452 141.616L72.1224 150.3L70.3481 150.295L70.3709 141.612ZM76.5147 150.486C75.8332 150.485 75.2343 150.362 74.7179 150.118C74.2094 149.866 73.8148 149.516 73.5339 149.069C73.261 148.614 73.1253 148.085 73.1269 147.482C73.1284 146.894 73.2669 146.374 73.5422 145.92C73.8254 145.467 74.2219 145.115 74.7317 144.866C75.2494 144.616 75.849 144.492 76.5305 144.494C77.2041 144.496 77.7952 144.622 78.3037 144.874C78.8201 145.126 79.2147 145.48 79.4877 145.935C79.7685 146.39 79.9081 146.911 79.9066 147.498C79.905 148.101 79.7626 148.63 79.4794 149.084C79.2041 149.529 78.8115 149.877 78.3017 150.126C77.7919 150.368 77.1962 150.488 76.5147 150.486ZM76.5184 149.1C76.9962 149.101 77.3765 148.957 77.6593 148.668C77.942 148.371 78.0841 147.98 78.0853 147.494C78.0867 146.993 77.9467 146.601 77.6654 146.318C77.392 146.027 77.0125 145.882 76.5268 145.88C76.0412 145.879 75.657 146.023 75.3742 146.312C75.0915 146.594 74.9494 146.985 74.9481 147.486C74.9468 147.972 75.0868 148.364 75.368 148.662C75.6571 148.953 76.0405 149.099 76.5184 149.1ZM83.8227 150.504C82.8043 150.502 81.9943 150.241 81.3924 149.723C80.7907 149.196 80.491 148.459 80.4935 147.512C80.496 146.564 80.7995 145.828 81.4041 145.305C82.0165 144.774 82.8318 144.509 83.8502 144.512C84.7745 144.514 85.5104 144.688 86.0578 145.034L86.0541 146.432C85.8039 146.251 85.5105 146.118 85.1739 146.031C84.8451 145.944 84.4967 145.9 84.1285 145.899C83.5802 145.897 83.1412 146.03 82.8115 146.295C82.4818 146.561 82.3162 146.968 82.3148 147.516C82.3133 148.064 82.4728 148.472 82.7933 148.739C83.1216 148.998 83.5599 149.129 84.1083 149.13C84.8681 149.132 85.5383 148.949 86.119 148.583L86.1153 149.969C85.5347 150.328 84.7705 150.506 83.8227 150.504ZM87.1238 141.653L88.8981 141.657L88.8838 147.085L90.9463 144.705L93.0026 144.71L90.6101 147.454L93.2815 150.351L91.2252 150.346L88.8819 147.802L88.8752 150.34L87.101 150.336L87.1238 141.653ZM96.6053 150.535C95.587 150.533 94.7769 150.272 94.1751 149.754C93.5733 149.227 93.2737 148.49 93.2762 147.542C93.2787 146.595 93.5822 145.859 94.1867 145.336C94.7991 144.804 95.6145 144.54 96.6328 144.543C97.5572 144.545 98.293 144.719 98.8405 145.065L98.8368 146.463C98.5866 146.282 98.2932 146.148 97.9566 146.062C97.6278 145.975 97.2794 145.931 96.9112 145.93C96.3629 145.928 95.9238 146.061 95.5941 146.326C95.2644 146.592 95.0989 146.999 95.0974 147.547C95.096 148.095 95.2555 148.503 95.576 148.77C95.9043 149.029 96.3426 149.16 96.8909 149.161C97.6508 149.163 98.321 148.98 98.9016 148.614L98.898 150C98.3174 150.359 97.5532 150.537 96.6053 150.535ZM99.9065 141.683L101.681 141.688L101.671 145.377C101.938 145.104 102.24 144.901 102.577 144.768C102.915 144.628 103.275 144.559 103.659 144.56C104.427 144.561 104.998 144.77 105.373 145.186C105.756 145.595 105.946 146.147 105.944 146.845L105.935 150.381L104.161 150.377L104.169 147.04C104.171 146.312 103.835 145.946 103.162 145.945C102.864 145.944 102.586 146.018 102.327 146.166C102.068 146.306 101.848 146.517 101.667 146.799L101.658 150.371L99.8837 150.367L99.9065 141.683ZM109.215 150.566C108.526 150.564 107.963 150.39 107.525 150.044C107.095 149.691 106.881 149.213 106.882 148.609C106.884 147.983 107.093 147.498 107.509 147.154C107.925 146.802 108.513 146.628 109.273 146.629C109.61 146.63 109.931 146.666 110.236 146.737C110.541 146.809 110.811 146.907 111.046 147.033L111.046 146.892C111.047 146.54 110.923 146.281 110.672 146.116C110.422 145.951 110.039 145.868 109.522 145.866C108.832 145.865 108.197 145.992 107.617 146.249L107.62 144.957C107.871 144.848 108.197 144.759 108.596 144.689C108.996 144.612 109.396 144.573 109.795 144.574C110.814 144.577 111.573 144.79 112.073 145.214C112.573 145.631 112.822 146.215 112.82 146.967L112.811 150.398L111.143 150.394L111.144 149.877C110.665 150.338 110.022 150.567 109.215 150.566ZM109.7 149.392C109.99 149.392 110.253 149.338 110.488 149.229C110.723 149.12 110.908 148.968 111.041 148.772L111.043 148.208C110.644 147.941 110.206 147.807 109.728 147.806C109.399 147.805 109.144 147.875 108.964 148.015C108.791 148.148 108.704 148.347 108.704 148.614C108.703 148.864 108.789 149.057 108.961 149.19C109.133 149.324 109.379 149.391 109.7 149.392ZM114.978 143.894C114.704 143.893 114.473 143.802 114.286 143.622C114.098 143.441 114.005 143.214 114.006 142.94C114.006 142.673 114.101 142.45 114.289 142.271C114.478 142.083 114.709 141.99 114.983 141.99C115.257 141.991 115.488 142.085 115.676 142.274C115.863 142.455 115.957 142.678 115.956 142.944C115.955 143.218 115.861 143.445 115.672 143.625C115.484 143.805 115.252 143.894 114.978 143.894ZM114.083 144.761L115.869 144.765L115.854 150.405L114.068 150.401L114.083 144.761ZM117.168 144.769L118.883 144.773L118.881 145.466C119.141 145.177 119.447 144.962 119.8 144.822C120.16 144.674 120.537 144.6 120.928 144.601C121.696 144.603 122.267 144.812 122.642 145.228C123.025 145.637 123.215 146.189 123.213 146.886L123.204 150.423L121.43 150.419L121.439 147.082C121.441 146.353 121.105 145.988 120.431 145.987C120.133 145.986 119.855 146.06 119.596 146.208C119.337 146.348 119.117 146.559 118.937 146.841L118.927 150.413L117.153 150.408L117.168 144.769ZM128.511 142.223L131.367 142.23C132.26 142.232 133.039 142.398 133.704 142.729C134.369 143.059 134.88 143.531 135.239 144.142C135.598 144.754 135.776 145.475 135.774 146.306C135.77 147.669 135.368 148.702 134.567 149.405C133.774 150.1 132.669 150.446 131.251 150.443L128.49 150.436L128.511 142.223ZM131.349 148.951C132.187 148.953 132.83 148.719 133.278 148.25C133.726 147.781 133.95 147.132 133.953 146.301C133.954 145.808 133.857 145.365 133.662 144.973C133.468 144.581 133.183 144.275 132.807 144.054C132.432 143.834 131.989 143.723 131.48 143.722L130.293 143.719L130.28 148.948L131.349 148.951ZM139.994 150.64C138.913 150.637 138.064 150.377 137.446 149.858C136.829 149.332 136.521 148.599 136.524 147.659C136.526 146.727 136.802 145.991 137.352 145.452C137.91 144.913 138.702 144.644 139.728 144.647C140.401 144.648 140.973 144.775 141.442 145.027C141.912 145.279 142.267 145.628 142.509 146.075C142.75 146.515 142.871 147.012 142.869 147.568L142.867 148.285L138.214 148.274C138.338 148.995 139.01 149.357 140.232 149.36C140.593 149.361 140.965 149.33 141.349 149.269C141.733 149.207 142.066 149.121 142.348 149.012L142.345 150.258C142.071 150.375 141.718 150.468 141.287 150.537C140.856 150.607 140.425 150.641 139.994 150.64ZM141.19 147.13C141.167 146.754 141.027 146.463 140.769 146.259C140.511 146.047 140.155 145.94 139.701 145.939C139.254 145.938 138.902 146.043 138.643 146.254C138.383 146.465 138.242 146.754 138.217 147.122L141.19 147.13ZM143.717 144.833L145.209 144.836L146.726 148.741L148.264 144.844L149.756 144.847L147.415 150.482L146.028 150.478L143.717 144.833Z" fill="#13100D"/>
<path d="M258.862 161.021C258.302 161.02 257.768 160.971 257.26 160.875C256.751 160.788 256.317 160.653 255.955 160.471L255.959 158.946C256.794 159.327 257.668 159.519 258.581 159.521C259.254 159.523 259.754 159.412 260.082 159.189C260.418 158.965 260.587 158.647 260.588 158.233C260.589 157.794 260.426 157.483 260.099 157.302C259.773 157.111 259.269 157.015 258.588 157.014L257.399 157.011L257.403 155.511L258.54 155.514C259.1 155.516 259.536 155.418 259.846 155.22C260.166 155.014 260.326 154.713 260.327 154.317C260.328 153.92 260.187 153.618 259.903 153.411C259.619 153.203 259.223 153.099 258.715 153.098C258.232 153.096 257.784 153.156 257.37 153.275C256.965 153.386 256.568 153.566 256.179 153.815L256.183 152.264C256.572 152.05 257.007 151.887 257.49 151.776C257.973 151.657 258.473 151.598 258.99 151.599C260.119 151.602 260.958 151.836 261.509 152.303C262.059 152.761 262.333 153.408 262.331 154.244C262.33 154.657 262.221 155.045 262.004 155.406C261.797 155.759 261.486 156.043 261.072 156.257C262.079 156.63 262.581 157.321 262.578 158.329C262.574 160.13 261.335 161.027 258.862 161.021Z" fill="#13100D"/>
<rect x="272.843" y="150.35" width="11.6941" height="11.3143" rx="5.65714" fill="#FFE900"/>
<line x1="275.92" y1="155.894" x2="281.479" y2="155.894" stroke="black" stroke-width="0.8225"/>
<rect x="232.837" y="150.35" width="11.6941" height="11.3143" rx="5.65714" fill="#FFE900"/>
<line x1="235.915" y1="155.894" x2="241.473" y2="155.894" stroke="black" stroke-width="0.8225"/>
<line x1="238.788" y1="153.328" x2="238.788" y2="158.706" stroke="black" stroke-width="0.8225"/>
<rect x="61.9624" y="156.725" width="72.2625" height="16.45" rx="8.225" fill="#4238A4"/>
<path d="M69.9667 161.797H71.0383V166.725H69.9667V161.797ZM71.7774 163.341H72.8067V163.757C72.9618 163.583 73.1451 163.454 73.3566 163.369C73.5728 163.28 73.7984 163.235 74.0334 163.235C74.494 163.235 74.8371 163.36 75.0627 163.609C75.293 163.853 75.4081 164.185 75.4081 164.603V166.725H74.3436V164.723C74.3436 164.286 74.1415 164.067 73.7373 164.067C73.5587 164.067 73.3918 164.112 73.2367 164.201C73.0816 164.286 72.95 164.413 72.8419 164.582V166.725H71.7774V163.341ZM77.5318 166.831C77.137 166.831 76.8362 166.723 76.6294 166.506C76.4273 166.286 76.3263 165.98 76.3263 165.59V164.109H75.8328V163.341H76.3263V162.326H77.3908V163.341H78.1875V164.109H77.3908V165.449C77.3908 165.646 77.4284 165.79 77.5036 165.879C77.5788 165.964 77.7128 166.006 77.9055 166.006C78.0606 166.006 78.2086 165.968 78.3496 165.893V166.69C78.1334 166.784 77.8608 166.831 77.5318 166.831ZM80.787 166.831C80.1384 166.831 79.6284 166.676 79.2571 166.365C78.8858 166.051 78.7002 165.611 78.7002 165.047C78.7002 164.488 78.8647 164.046 79.1937 163.722C79.5274 163.397 80.0021 163.235 80.6178 163.235C81.022 163.235 81.3651 163.31 81.6471 163.461C81.9291 163.611 82.1429 163.82 82.2886 164.088C82.4343 164.351 82.5072 164.65 82.5072 164.984V165.414H79.7154C79.7906 165.846 80.1948 166.062 80.928 166.062C81.1442 166.062 81.3674 166.043 81.5977 166.006C81.828 165.968 82.0278 165.917 82.197 165.851V166.598C82.0325 166.669 81.821 166.725 81.5625 166.767C81.304 166.81 81.0455 166.831 80.787 166.831ZM81.499 164.723C81.4849 164.497 81.4003 164.323 81.2452 164.201C81.0901 164.074 80.8763 164.011 80.6037 164.011C80.3358 164.011 80.1243 164.074 79.9692 164.201C79.8141 164.328 79.7295 164.502 79.7154 164.723H81.499ZM83.0959 163.341H84.1252V163.827C84.2615 163.663 84.4519 163.538 84.6963 163.454C84.9407 163.364 85.218 163.32 85.5282 163.32V164.131C85.2039 164.131 84.9172 164.18 84.6681 164.279C84.4237 164.377 84.2545 164.528 84.1605 164.73V166.725H83.0959V163.341ZM85.9807 163.341H86.9747V163.75C87.1204 163.585 87.2896 163.458 87.4823 163.369C87.675 163.28 87.8748 163.235 88.0816 163.235C88.3401 163.235 88.5469 163.278 88.702 163.362C88.8571 163.442 88.9793 163.562 89.0686 163.722C89.2143 163.567 89.3905 163.447 89.5973 163.362C89.8088 163.278 90.018 163.235 90.2248 163.235C90.6572 163.235 90.965 163.346 91.1483 163.567C91.3363 163.787 91.4303 164.107 91.4303 164.525V166.725H90.4151V164.673C90.4151 164.457 90.3728 164.302 90.2882 164.208C90.2036 164.114 90.0673 164.067 89.8793 164.067C89.6161 164.067 89.4046 164.171 89.2448 164.377C89.2542 164.528 89.2589 164.65 89.2589 164.744V166.725H88.2367V164.638C88.2367 164.431 88.1991 164.286 88.1239 164.201C88.0534 164.112 87.9288 164.067 87.7502 164.067C87.4729 164.067 87.2262 164.225 87.01 164.539V166.725H85.9807V163.341ZM94.0814 166.831C93.4328 166.831 92.9229 166.676 92.5516 166.365C92.1803 166.051 91.9946 165.611 91.9946 165.047C91.9946 164.488 92.1591 164.046 92.4881 163.722C92.8218 163.397 93.2965 163.235 93.9122 163.235C94.3164 163.235 94.6595 163.31 94.9415 163.461C95.2235 163.611 95.4374 163.82 95.5831 164.088C95.7288 164.351 95.8016 164.65 95.8016 164.984V165.414H93.0098C93.085 165.846 93.4892 166.062 94.2224 166.062C94.4386 166.062 94.6619 166.043 94.8922 166.006C95.1225 165.968 95.3222 165.917 95.4914 165.851V166.598C95.3269 166.669 95.1154 166.725 94.8569 166.767C94.5984 166.81 94.3399 166.831 94.0814 166.831ZM94.7935 164.723C94.7794 164.497 94.6948 164.323 94.5397 164.201C94.3846 164.074 94.1707 164.011 93.8981 164.011C93.6302 164.011 93.4187 164.074 93.2636 164.201C93.1085 164.328 93.0239 164.502 93.0098 164.723H94.7935ZM98.0401 166.831C97.6923 166.831 97.3821 166.758 97.1095 166.612C96.8416 166.462 96.6301 166.253 96.475 165.985C96.3246 165.712 96.2494 165.397 96.2494 165.04C96.2494 164.688 96.3246 164.375 96.475 164.102C96.6254 163.83 96.8369 163.618 97.1095 163.468C97.3821 163.313 97.6923 163.235 98.0401 163.235C98.2939 163.235 98.5266 163.27 98.7381 163.341C98.9496 163.411 99.1282 163.513 99.2739 163.644V161.515H100.338V166.725H99.3091V166.358C99.1352 166.523 98.9449 166.643 98.7381 166.718C98.536 166.793 98.3033 166.831 98.0401 166.831ZM98.3151 166.006C98.536 166.006 98.731 165.947 98.9002 165.83C99.0741 165.712 99.1987 165.555 99.2739 165.357V164.716C99.2081 164.523 99.0859 164.368 98.9073 164.25C98.7334 164.128 98.536 164.067 98.3151 164.067C98.0284 164.067 97.7934 164.156 97.6101 164.335C97.4315 164.514 97.3422 164.749 97.3422 165.04C97.3422 165.331 97.4315 165.566 97.6101 165.745C97.7934 165.919 98.0284 166.006 98.3151 166.006ZM101.664 162.819C101.5 162.819 101.361 162.765 101.248 162.657C101.135 162.549 101.079 162.413 101.079 162.248C101.079 162.088 101.135 161.954 101.248 161.846C101.361 161.734 101.5 161.677 101.664 161.677C101.829 161.677 101.967 161.734 102.08 161.846C102.193 161.954 102.249 162.088 102.249 162.248C102.249 162.413 102.193 162.549 102.08 162.657C101.967 162.765 101.829 162.819 101.664 162.819ZM101.128 163.341H102.2V166.725H101.128V163.341ZM104.241 166.831C103.827 166.831 103.489 166.727 103.226 166.521C102.967 166.309 102.838 166.022 102.838 165.66C102.838 165.284 102.963 164.993 103.212 164.786C103.461 164.575 103.813 164.469 104.269 164.469C104.471 164.469 104.664 164.49 104.847 164.532C105.031 164.575 105.193 164.633 105.334 164.709V164.624C105.334 164.413 105.259 164.257 105.108 164.159C104.958 164.06 104.728 164.011 104.417 164.011C104.004 164.011 103.623 164.088 103.275 164.243V163.468C103.426 163.402 103.621 163.348 103.86 163.306C104.1 163.259 104.34 163.235 104.579 163.235C105.19 163.235 105.646 163.362 105.947 163.616C106.248 163.865 106.398 164.215 106.398 164.666V166.725H105.397V166.415C105.111 166.692 104.725 166.831 104.241 166.831ZM104.53 166.126C104.704 166.126 104.861 166.093 105.002 166.027C105.143 165.961 105.254 165.87 105.334 165.752V165.414C105.094 165.254 104.831 165.174 104.544 165.174C104.347 165.174 104.194 165.216 104.086 165.301C103.983 165.381 103.931 165.501 103.931 165.66C103.931 165.811 103.983 165.926 104.086 166.006C104.189 166.086 104.337 166.126 104.53 166.126ZM108.341 166.831C107.946 166.831 107.646 166.723 107.439 166.506C107.237 166.286 107.136 165.98 107.136 165.59V164.109H106.642V163.341H107.136V162.326H108.2V163.341H108.997V164.109H108.2V165.449C108.2 165.646 108.238 165.79 108.313 165.879C108.388 165.964 108.522 166.006 108.715 166.006C108.87 166.006 109.018 165.968 109.159 165.893V166.69C108.943 166.784 108.67 166.831 108.341 166.831ZM111.596 166.831C110.948 166.831 110.438 166.676 110.066 166.365C109.695 166.051 109.509 165.611 109.509 165.047C109.509 164.488 109.674 164.046 110.003 163.722C110.337 163.397 110.811 163.235 111.427 163.235C111.831 163.235 112.174 163.31 112.456 163.461C112.738 163.611 112.952 163.82 113.098 164.088C113.244 164.351 113.316 164.65 113.316 164.984V165.414H110.525C110.6 165.846 111.004 166.062 111.737 166.062C111.953 166.062 112.177 166.043 112.407 166.006C112.637 165.968 112.837 165.917 113.006 165.851V166.598C112.842 166.669 112.63 166.725 112.372 166.767C112.113 166.81 111.855 166.831 111.596 166.831ZM112.308 164.723C112.294 164.497 112.21 164.323 112.055 164.201C111.899 164.074 111.686 164.011 111.413 164.011C111.145 164.011 110.934 164.074 110.778 164.201C110.623 164.328 110.539 164.502 110.525 164.723H112.308Z" fill="white"/>
<path d="M124.825 164.216L126.587 165.978L128.35 164.216" stroke="white" stroke-width="0.705"/>
<path d="M52.0878 54.716C51.6867 54.716 51.2888 54.6784 50.894 54.6032C50.4992 54.528 50.1765 54.4277 49.9258 54.3024V53.0428C50.2579 53.2057 50.6026 53.3279 50.9598 53.4094C51.317 53.4908 51.6585 53.5316 51.9844 53.5316C52.3479 53.5316 52.6236 53.4689 52.8116 53.3436C52.9996 53.2182 53.0936 53.0428 53.0936 52.8172C53.0936 52.6542 53.0466 52.5164 52.9526 52.4036C52.8586 52.2908 52.7207 52.1905 52.539 52.1028C52.3635 52.0088 52.0909 51.8866 51.7212 51.7362C51.1071 51.4855 50.6621 51.2066 50.3864 50.8996C50.1107 50.5862 49.9728 50.2008 49.9728 49.7434C49.9728 49.3736 50.0731 49.0478 50.2736 48.7658C50.4741 48.4775 50.7561 48.255 51.1196 48.0984C51.4831 47.9417 51.9029 47.8634 52.3792 47.8634C52.7677 47.8634 53.1124 47.8947 53.4132 47.9574C53.714 48.02 54.0085 48.1172 54.2968 48.2488V49.4708C53.7453 49.195 53.1939 49.0572 52.6424 49.0572C52.2915 49.0572 52.0157 49.1198 51.8152 49.2452C51.6147 49.3642 51.5144 49.5366 51.5144 49.7622C51.5144 49.9251 51.5614 50.0598 51.6554 50.1664C51.7494 50.2729 51.881 50.3669 52.0502 50.4484C52.2194 50.5298 52.4951 50.6489 52.8774 50.8056C53.3223 50.9936 53.6701 51.1753 53.9208 51.3508C54.1715 51.52 54.3563 51.7236 54.4754 51.9618C54.5945 52.1936 54.654 52.4819 54.654 52.8266C54.654 53.4219 54.4378 53.8856 54.0054 54.2178C53.5793 54.5499 52.9401 54.716 52.0878 54.716ZM55.4564 48.0044H60.0154V49.1982H56.8852V50.721H59.1882V51.8678H56.8852V53.3812H60.0154V54.575H55.4564V48.0044ZM60.7072 48.0044H62.136V53.3812H65.144V54.575H60.7072V48.0044ZM65.6183 48.0044H70.1773V49.1982H67.0471V50.721H69.3501V51.8678H67.0471V53.3812H70.1773V54.575H65.6183V48.0044ZM74.0966 54.716C73.3947 54.716 72.7743 54.5781 72.2354 54.3024C71.6964 54.0204 71.2797 53.6224 70.9852 53.1086C70.6906 52.5947 70.5434 51.99 70.5434 51.2944C70.5434 50.5988 70.6906 49.994 70.9852 49.4802C71.2797 48.96 71.6964 48.5621 72.2354 48.2864C72.7743 48.0044 73.3947 47.8634 74.0966 47.8634C75.0052 47.8634 75.7635 48.0702 76.3714 48.4838V49.8374C76.0956 49.6055 75.7792 49.4394 75.422 49.3392C75.071 49.2326 74.67 49.1794 74.2188 49.1794C73.5357 49.1794 72.9936 49.3705 72.5926 49.7528C72.1978 50.1288 72.0004 50.6426 72.0004 51.2944C72.0004 51.9524 72.2009 52.4725 72.602 52.8548C73.003 53.2308 73.542 53.4188 74.2188 53.4188C74.6825 53.4188 75.093 53.3655 75.4502 53.259C75.8074 53.1462 76.1395 52.9676 76.4466 52.7232V54.0768C75.87 54.5029 75.0867 54.716 74.0966 54.716ZM78.7729 49.1982H76.8553V48.0044H82.1193V49.1982H80.2017V54.575H78.7729V49.1982ZM82.7476 48.0044H87.3066V49.1982H84.1764V50.721H86.4794V51.8678H84.1764V53.3812H87.3066V54.575H82.7476V48.0044ZM87.9984 48.0044H90.2826C90.997 48.0044 91.6205 48.136 92.1532 48.3992C92.6858 48.6624 93.0963 49.0384 93.3846 49.5272C93.6728 50.016 93.817 50.5925 93.817 51.2568C93.817 52.3472 93.4974 53.1744 92.8582 53.7384C92.2252 54.2961 91.3416 54.575 90.2074 54.575H87.9984V48.0044ZM90.2826 53.3812C90.9531 53.3812 91.467 53.1932 91.8242 52.8172C92.1814 52.4412 92.36 51.921 92.36 51.2568C92.36 50.862 92.2816 50.5079 92.125 50.1946C91.9683 49.8812 91.7396 49.6368 91.4388 49.4614C91.138 49.2859 90.7839 49.1982 90.3766 49.1982H89.4272V53.3812H90.2826ZM97.8941 48.0044H100.742C101.488 48.0044 102.068 48.1924 102.481 48.5684C102.901 48.9381 103.111 49.4739 103.111 50.1758C103.111 50.6646 102.998 51.0813 102.773 51.426C102.547 51.7644 102.227 52.0119 101.814 52.1686L103.064 54.575H101.598L100.441 52.3472H99.3229V54.575H97.8941V48.0044ZM100.488 51.1534C100.852 51.1534 101.137 51.075 101.344 50.9184C101.557 50.7617 101.663 50.5142 101.663 50.1758C101.663 49.8186 101.56 49.5679 101.353 49.4238C101.146 49.2734 100.858 49.1982 100.488 49.1982H99.3229V51.1534H100.488ZM107.097 54.716C106.439 54.716 105.84 54.5718 105.301 54.2836C104.769 53.9953 104.349 53.5942 104.042 53.0804C103.735 52.5602 103.581 51.9649 103.581 51.2944C103.581 50.6238 103.735 50.0285 104.042 49.5084C104.349 48.9882 104.769 48.584 105.301 48.2958C105.84 48.0075 106.439 47.8634 107.097 47.8634C107.755 47.8634 108.347 48.0075 108.873 48.2958C109.406 48.584 109.826 48.9882 110.133 49.5084C110.44 50.0285 110.593 50.6238 110.593 51.2944C110.593 51.9649 110.44 52.5602 110.133 53.0804C109.826 53.5942 109.406 53.9953 108.873 54.2836C108.347 54.5718 107.755 54.716 107.097 54.716ZM107.097 53.4C107.473 53.4 107.814 53.3154 108.121 53.1462C108.435 52.9707 108.682 52.7263 108.864 52.413C109.046 52.0934 109.136 51.7205 109.136 51.2944C109.136 50.8745 109.046 50.5079 108.864 50.1946C108.688 49.875 108.444 49.6306 108.131 49.4614C107.824 49.2859 107.479 49.1982 107.097 49.1982C106.708 49.1982 106.357 49.2859 106.044 49.4614C105.737 49.6306 105.492 49.875 105.311 50.1946C105.129 50.5079 105.038 50.8745 105.038 51.2944C105.038 51.7205 105.129 52.0934 105.311 52.413C105.492 52.7263 105.74 52.9707 106.053 53.1462C106.367 53.3154 106.714 53.4 107.097 53.4ZM111.379 48.0044H112.808V53.3812H115.816V54.575H111.379V48.0044ZM116.29 48.0044H120.849V49.1982H117.719V50.721H120.022V51.8678H117.719V53.3812H120.849V54.575H116.29V48.0044ZM123.515 54.716C123.114 54.716 122.716 54.6784 122.321 54.6032C121.926 54.528 121.604 54.4277 121.353 54.3024V53.0428C121.685 53.2057 122.03 53.3279 122.387 53.4094C122.744 53.4908 123.086 53.5316 123.412 53.5316C123.775 53.5316 124.051 53.4689 124.239 53.3436C124.427 53.2182 124.521 53.0428 124.521 52.8172C124.521 52.6542 124.474 52.5164 124.38 52.4036C124.286 52.2908 124.148 52.1905 123.966 52.1028C123.791 52.0088 123.518 51.8866 123.148 51.7362C122.534 51.4855 122.089 51.2066 121.814 50.8996C121.538 50.5862 121.4 50.2008 121.4 49.7434C121.4 49.3736 121.5 49.0478 121.701 48.7658C121.901 48.4775 122.183 48.255 122.547 48.0984C122.91 47.9417 123.33 47.8634 123.806 47.8634C124.195 47.8634 124.54 47.8947 124.84 47.9574C125.141 48.02 125.436 48.1172 125.724 48.2488V49.4708C125.172 49.195 124.621 49.0572 124.07 49.0572C123.719 49.0572 123.443 49.1198 123.242 49.2452C123.042 49.3642 122.942 49.5366 122.942 49.7622C122.942 49.9251 122.989 50.0598 123.083 50.1664C123.177 50.2729 123.308 50.3669 123.477 50.4484C123.647 50.5298 123.922 50.6489 124.305 50.8056C124.749 50.9936 125.097 51.1753 125.348 51.3508C125.599 51.52 125.783 51.7236 125.903 51.9618C126.022 52.1936 126.081 52.4819 126.081 52.8266C126.081 53.4219 125.865 53.8856 125.433 54.2178C125.006 54.5499 124.367 54.716 123.515 54.716ZM127.41 51.3696C127.216 51.3696 127.046 51.3006 126.902 51.1628C126.764 51.0186 126.696 50.8494 126.696 50.6552C126.696 50.4609 126.764 50.2948 126.902 50.157C127.046 50.0128 127.216 49.9408 127.41 49.9408C127.61 49.9408 127.78 50.0097 127.918 50.1476C128.055 50.2854 128.124 50.4546 128.124 50.6552C128.124 50.8494 128.052 51.0186 127.908 51.1628C127.77 51.3006 127.604 51.3696 127.41 51.3696ZM127.41 54.4622C127.216 54.4622 127.046 54.3932 126.902 54.2554C126.764 54.1112 126.696 53.942 126.696 53.7478C126.696 53.5535 126.764 53.3874 126.902 53.2496C127.046 53.1054 127.216 53.0334 127.41 53.0334C127.61 53.0334 127.78 53.1023 127.918 53.2402C128.055 53.378 128.124 53.5472 128.124 53.7478C128.124 53.942 128.052 54.1112 127.908 54.2554C127.77 54.3932 127.604 54.4622 127.41 54.4622Z" fill="black"/>
</g>
<defs>
<filter id="filter0_d" x="0" y="0" width="346" height="343" filterUnits="userSpaceOnUse" color-interpolation-filters="sRGB">
<feFlood flood-opacity="0" result="BackgroundImageFix"/>
<feColorMatrix in="SourceAlpha" type="matrix" values="0 0 0 0 0 0 0 0 0 0 0 0 0 0 0 0 0 0 127 0"/>
<feOffset dy="4"/>
<feGaussianBlur stdDeviation="16"/>
<feColorMatrix type="matrix" values="0 0 0 0 0 0 0 0 0 0 0 0 0 0 0 0 0 0 0.12 0"/>
<feBlend mode="normal" in2="BackgroundImageFix" result="effect1_dropShadow"/>
<feBlend mode="normal" in="SourceGraphic" in2="effect1_dropShadow" result="shape"/>
</filter>
</defs>
</svg>
