<svg width="401" height="226" viewBox="0 0 401 226" fill="none" xmlns="http://www.w3.org/2000/svg">
<g filter="url(#filter0_d)">
<rect x="26.5" y="23.5" width="348" height="173.104" fill="white" stroke="#EAEAEA"/>
<rect x="26" y="23" width="349" height="65.6848" fill="#FFE900"/>
<path d="M104.841 63.5569H109.447V64.7725H106.284V66.3204H108.611V67.4315H106.284V70.195H104.841V63.5569ZM109.626 65.6366H111.013V66.2919C111.196 66.0703 111.453 65.9025 111.782 65.7886C112.111 65.6683 112.485 65.6082 112.903 65.6082V66.7003C112.466 66.7003 112.08 66.7667 111.744 66.8997C111.415 67.0326 111.187 67.2352 111.06 67.5075V70.195H109.626V65.6366ZM114.785 70.3375C114.228 70.3375 113.773 70.1982 113.418 69.9196C113.07 69.6347 112.896 69.2485 112.896 68.761C112.896 68.2545 113.063 67.862 113.399 67.5834C113.735 67.2985 114.209 67.1561 114.823 67.1561C115.096 67.1561 115.355 67.1846 115.602 67.2416C115.849 67.2985 116.068 67.3777 116.257 67.479V67.365C116.257 67.0801 116.156 66.8712 115.954 66.7382C115.751 66.6053 115.441 66.5388 115.023 66.5388C114.466 66.5388 113.953 66.6433 113.484 66.8522V65.8076C113.687 65.7189 113.95 65.6461 114.273 65.5892C114.596 65.5259 114.918 65.4942 115.241 65.4942C116.064 65.4942 116.678 65.6651 117.084 66.007C117.489 66.3426 117.691 66.8142 117.691 67.422V70.195H116.343V69.7772C115.957 70.1507 115.438 70.3375 114.785 70.3375ZM115.175 69.3878C115.409 69.3878 115.621 69.3435 115.811 69.2548C116.001 69.1662 116.15 69.0428 116.257 68.8845V68.4286C115.935 68.2134 115.58 68.1058 115.194 68.1058C114.928 68.1058 114.722 68.1627 114.577 68.2767C114.437 68.3843 114.368 68.5458 114.368 68.761C114.368 68.9636 114.437 69.1187 114.577 69.2264C114.716 69.334 114.915 69.3878 115.175 69.3878ZM118.641 65.6366H120.027V66.1969C120.236 65.9627 120.483 65.7886 120.768 65.6746C121.059 65.5543 121.363 65.4942 121.68 65.4942C122.3 65.4942 122.762 65.662 123.066 65.9975C123.376 66.3267 123.531 66.7731 123.531 67.3365V70.195H122.097V67.498C122.097 66.9092 121.825 66.6148 121.281 66.6148C121.04 66.6148 120.815 66.6749 120.607 66.7952C120.398 66.9092 120.22 67.0801 120.075 67.308V70.195H118.641V65.6366ZM124.483 63.177H125.917V67.5645L127.579 65.6366H129.241L127.313 67.8588L129.479 70.195H127.817L125.917 68.1437V70.195H124.483V63.177Z" fill="black"/>
<path d="M106.405 52.1082C106.078 52.1082 105.729 52.0765 105.36 52.0132C105.001 51.9499 104.727 51.8708 104.537 51.7758V49.7024C104.695 49.7762 104.896 49.8343 105.139 49.8765C105.381 49.9187 105.624 49.9398 105.867 49.9398C106.341 49.9398 106.695 49.829 106.927 49.6074C107.159 49.3858 107.275 49.0376 107.275 48.5628V40.8072H109.681V48.7844C109.681 49.8079 109.396 50.6204 108.826 51.2218C108.257 51.8127 107.449 52.1082 106.405 52.1082ZM114.124 52.1082C113.196 52.1082 112.436 51.876 111.845 51.4117C111.265 50.9369 110.975 50.2933 110.975 49.4808C110.975 48.6366 111.254 47.9824 111.813 47.5181C112.373 47.0433 113.164 46.8059 114.188 46.8059C114.641 46.8059 115.074 46.8534 115.485 46.9483C115.897 47.0433 116.261 47.1752 116.578 47.344V47.1541C116.578 46.6793 116.409 46.3311 116.071 46.1095C115.733 45.8879 115.216 45.7771 114.52 45.7771C113.591 45.7771 112.737 45.9512 111.956 46.2994V44.5584C112.293 44.4106 112.731 44.2893 113.27 44.1943C113.808 44.0888 114.346 44.0361 114.884 44.0361C116.256 44.0361 117.279 44.321 117.955 44.8908C118.63 45.45 118.967 46.2361 118.967 47.2491V51.8708H116.72V51.1743C116.076 51.7969 115.211 52.1082 114.124 52.1082ZM114.773 50.5254C115.164 50.5254 115.517 50.4515 115.834 50.3038C116.15 50.1561 116.398 49.9503 116.578 49.6865V48.9268C116.039 48.568 115.448 48.3887 114.805 48.3887C114.362 48.3887 114.019 48.4836 113.776 48.6736C113.544 48.8529 113.428 49.122 113.428 49.4808C113.428 49.8184 113.544 50.0769 113.776 50.2563C114.008 50.4357 114.341 50.5254 114.773 50.5254ZM119.649 44.2735H121.659L123.716 49.5283L125.774 44.2735H127.784L124.65 51.8708H122.783L119.649 44.2735ZM131.559 52.1082C130.631 52.1082 129.871 51.876 129.28 51.4117C128.7 50.9369 128.41 50.2933 128.41 49.4808C128.41 48.6366 128.689 47.9824 129.249 47.5181C129.808 47.0433 130.599 46.8059 131.623 46.8059C132.076 46.8059 132.509 46.8534 132.921 46.9483C133.332 47.0433 133.696 47.1752 134.013 47.344V47.1541C134.013 46.6793 133.844 46.3311 133.506 46.1095C133.169 45.8879 132.651 45.7771 131.955 45.7771C131.027 45.7771 130.172 45.9512 129.391 46.2994V44.5584C129.729 44.4106 130.167 44.2893 130.705 44.1943C131.243 44.0888 131.781 44.0361 132.319 44.0361C133.691 44.0361 134.714 44.321 135.39 44.8908C136.065 45.45 136.403 46.2361 136.403 47.2491V51.8708H134.155V51.1743C133.511 51.7969 132.646 52.1082 131.559 52.1082ZM132.208 50.5254C132.599 50.5254 132.952 50.4515 133.269 50.3038C133.585 50.1561 133.833 49.9503 134.013 49.6865V48.9268C133.475 48.568 132.884 48.3887 132.24 48.3887C131.797 48.3887 131.454 48.4836 131.211 48.6736C130.979 48.8529 130.863 49.122 130.863 49.4808C130.863 49.8184 130.979 50.0769 131.211 50.2563C131.443 50.4357 131.776 50.5254 132.208 50.5254ZM141.309 52.1082C140.633 52.1082 139.963 52.0449 139.298 51.9182C138.634 51.7916 138.09 51.6228 137.668 51.4117V49.2908C138.227 49.5652 138.808 49.7709 139.409 49.9081C140.011 50.0453 140.586 50.1139 141.134 50.1139C141.746 50.1139 142.211 50.0084 142.527 49.7973C142.844 49.5863 143.002 49.2908 143.002 48.911C143.002 48.6366 142.923 48.4045 142.765 48.2146C142.606 48.0246 142.374 47.8558 142.068 47.7081C141.773 47.5498 141.314 47.344 140.691 47.0908C139.657 46.6687 138.908 46.1992 138.444 45.6821C137.98 45.1545 137.747 44.5056 137.747 43.7353C137.747 43.1128 137.916 42.5641 138.254 42.0893C138.592 41.6039 139.066 41.2293 139.678 40.9655C140.29 40.7017 140.997 40.5698 141.799 40.5698C142.453 40.5698 143.034 40.6226 143.54 40.7281C144.047 40.8336 144.543 40.9971 145.028 41.2187V43.2763C144.1 42.8121 143.171 42.5799 142.242 42.5799C141.652 42.5799 141.187 42.6854 140.85 42.8965C140.512 43.0969 140.343 43.3871 140.343 43.767C140.343 44.0413 140.422 44.2682 140.581 44.4476C140.739 44.627 140.96 44.7852 141.245 44.9224C141.53 45.0596 141.994 45.2601 142.638 45.5239C143.387 45.8404 143.973 46.1464 144.395 46.4419C144.817 46.7268 145.128 47.0697 145.329 47.4707C145.529 47.8611 145.63 48.3465 145.63 48.9268C145.63 49.9292 145.266 50.7101 144.537 51.2693C143.82 51.8285 142.744 52.1082 141.309 52.1082ZM150.927 52.1082C149.556 52.1082 148.463 51.76 147.651 51.0635C146.838 50.3566 146.432 49.3647 146.432 48.0879C146.432 46.8112 146.838 45.8193 147.651 45.1123C148.474 44.3948 149.571 44.0361 150.943 44.0361C152.188 44.0361 153.18 44.2682 153.919 44.7325V46.616C153.581 46.3733 153.185 46.1939 152.732 46.0778C152.288 45.9618 151.819 45.9037 151.323 45.9037C150.584 45.9037 149.993 46.0831 149.55 46.4419C149.107 46.8006 148.885 47.3493 148.885 48.0879C148.885 48.8266 149.102 49.3753 149.534 49.734C149.978 50.0822 150.568 50.2563 151.307 50.2563C152.331 50.2563 153.233 50.0084 154.014 49.5124V51.3801C153.233 51.8655 152.204 52.1082 150.927 52.1082ZM155.343 44.2735H157.654V45.3656C157.96 44.9963 158.387 44.7166 158.936 44.5267C159.484 44.3262 160.107 44.226 160.803 44.226V46.0462C160.075 46.0462 159.431 46.157 158.872 46.3786C158.324 46.6001 157.944 46.9378 157.733 47.3915V51.8708H155.343V44.2735ZM163.133 43.1022C162.763 43.1022 162.452 42.9809 162.199 42.7382C161.946 42.4955 161.819 42.1895 161.819 41.8202C161.819 41.4614 161.946 41.1607 162.199 40.918C162.452 40.6648 162.763 40.5381 163.133 40.5381C163.502 40.5381 163.813 40.6648 164.067 40.918C164.32 41.1607 164.446 41.4614 164.446 41.8202C164.446 42.1895 164.32 42.4955 164.067 42.7382C163.813 42.9809 163.502 43.1022 163.133 43.1022ZM161.93 44.2735H164.336V51.8708H161.93V44.2735ZM166.085 44.2735H168.396V45.1123C169.166 44.3948 170.116 44.0361 171.245 44.0361C172.036 44.0361 172.733 44.2049 173.334 44.5425C173.946 44.8696 174.421 45.3392 174.759 45.9512C175.096 46.5527 175.265 47.2543 175.265 48.0563C175.265 48.8477 175.096 49.5494 174.759 50.1614C174.421 50.7734 173.946 51.2535 173.334 51.6017C172.733 51.9393 172.036 52.1082 171.245 52.1082C170.707 52.1082 170.195 52.029 169.71 51.8708C169.224 51.7125 168.813 51.4856 168.475 51.1902V55.337H166.085V44.2735ZM170.643 50.2405C171.287 50.2405 171.809 50.04 172.21 49.639C172.622 49.2381 172.828 48.7105 172.828 48.0563C172.828 47.4021 172.622 46.8798 172.21 46.4893C171.809 46.0989 171.287 45.9037 170.643 45.9037C170.148 45.9037 169.704 46.0356 169.314 46.2994C168.924 46.5632 168.644 46.9114 168.475 47.344V48.7844C168.633 49.2275 168.908 49.581 169.298 49.8448C169.699 50.1086 170.148 50.2405 170.643 50.2405ZM179.792 52.1082C178.906 52.1082 178.231 51.8655 177.767 51.3801C177.313 50.8842 177.086 50.1983 177.086 49.3225V45.9987H175.978V44.2735H177.086V41.9943H179.476V44.2735H181.264V45.9987H179.476V49.0059C179.476 49.4491 179.56 49.7709 179.729 49.9714C179.898 50.1614 180.199 50.2563 180.631 50.2563C180.98 50.2563 181.312 50.1719 181.628 50.0031V51.7916C181.143 52.0026 180.531 52.1082 179.792 52.1082Z" fill="black"/>
<g clip-path="url(#clip0)">
<path d="M63.5818 80.2356C76.202 80.2356 86.4327 70.0443 86.4327 57.4728C86.4327 44.9012 76.202 34.7099 63.5818 34.7099C50.9616 34.7099 40.731 44.9012 40.731 57.4728C40.731 70.0443 50.9616 80.2356 63.5818 80.2356Z" fill="white"/>
<mask id="mask0" mask-type="alpha" maskUnits="userSpaceOnUse" x="41" y="22" width="46" height="59">
<path d="M63.991 80.5073C76.6112 80.5073 86.8419 70.316 86.8419 57.7444C86.8419 45.1728 75.7204 22.4921 63.1002 22.4921C50.48 22.4921 41.1401 45.1728 41.1401 57.7444C41.1401 70.316 51.3708 80.5073 63.991 80.5073Z" fill="white"/>
</mask>
<g mask="url(#mask0)">
<path d="M73.4921 64.3691C73.4921 64.3691 70.637 63.1474 70.7204 63.2304C69.7785 65.2634 66.1286 66.2798 63.5777 67.0031C61.0414 66.2798 57.1266 65.2536 56.4496 63.2598L53.7858 64.4082C49.5865 66.1528 46.8491 70.2479 46.8491 74.7829V80.911H80.3111V74.6901C80.3111 70.204 77.6277 66.143 73.4921 64.3691Z" fill="#EFD203"/>
<path d="M69.5039 59.8976C68.8417 61.3979 69.8228 62.6147 70.7206 63.2256C69.7787 65.2585 66.639 66.9982 63.5778 66.9982C60.5166 66.9982 57.0875 65.2438 56.4351 63.2256C57.3132 62.7027 58.3287 61.4321 57.637 59.8976H69.5039Z" fill="#FFE900"/>
<g opacity="0.3">
<path opacity="0.3" d="M69.5038 59.8976H57.6369C58.0931 60.9043 57.8233 62.0918 56.9795 62.8102L58.5788 64.1589C59.4961 64.9408 60.6637 65.3709 61.8705 65.3807H65.2751C66.4819 65.3758 67.6495 64.9457 68.5668 64.1589L70.2004 62.8004C69.3517 62.0967 69.0672 60.9141 69.5038 59.8976Z" fill="#534D94"/>
</g>
<g opacity="0.3">
<path opacity="0.3" d="M73.4921 64.3691C73.4921 64.3691 70.637 63.1474 70.7204 63.2304C69.7785 65.2634 66.6388 67.0031 63.5777 67.0031C60.5165 67.0031 57.1266 65.2585 56.4496 63.2598L53.7858 64.4082C49.5865 66.1528 46.8491 70.2479 46.8491 74.7829V76.8158C46.8491 72.3786 50.3175 66.2798 55.9296 65.2634C56.6115 67.2621 60.5165 69.0311 63.5777 69.0311C66.6388 69.0311 70.2838 67.2914 71.2306 65.2585C76.8428 66.7832 80.3111 72.232 80.3111 76.723V74.6901C80.3111 70.204 77.6277 66.143 73.4921 64.3691Z" fill="white"/>
</g>
<path d="M63.5776 67.4038C60.2662 67.4038 56.7488 65.5077 56.0473 63.338C55.9982 63.162 56.0718 62.9714 56.2288 62.8786C56.9058 62.473 57.882 61.4272 57.2639 60.0638C57.1854 59.8537 57.2884 59.6191 57.4994 59.5409C57.6907 59.4676 57.9065 59.5507 58.0047 59.7315C58.6816 61.2317 57.9605 62.6196 56.9303 63.3917C57.7447 65.1021 60.7764 66.5975 63.5727 66.5975C66.261 66.5975 69.1357 65.1656 70.1905 63.3477C69.229 62.5805 68.4538 61.2562 69.1259 59.7364C69.229 59.536 69.4742 59.4529 69.6754 59.5556C69.8618 59.6484 69.9501 59.8683 69.8765 60.0638C69.1897 61.6276 70.6418 62.6929 70.946 62.9079C71.1128 63.0203 71.1765 63.2353 71.0931 63.4161C70.0482 65.6494 66.7516 67.4038 63.5776 67.4038Z" fill="black"/>
<path d="M73.7817 81.3166C73.556 81.3166 73.3745 81.1358 73.3745 80.911V73.3902C73.3745 73.1654 73.556 72.9846 73.7817 72.9846C74.0074 72.9846 74.1889 73.1654 74.1889 73.3902V80.911C74.1889 81.1358 74.0074 81.3166 73.7817 81.3166Z" fill="black"/>
<path d="M53.3789 81.3166C53.1532 81.3166 52.9717 81.1358 52.9717 80.911V73.3902C52.9717 73.1654 53.1532 72.9846 53.3789 72.9846C53.6045 72.9846 53.786 73.1654 53.786 73.3902V80.911C53.786 81.1358 53.6045 81.3166 53.3789 81.3166Z" fill="black"/>
<path d="M80.3113 81.3166C80.0856 81.3166 79.9041 81.1358 79.9041 80.911V74.6901C79.909 70.3603 77.3237 66.4509 73.3304 64.7405L70.5538 63.5188C70.3477 63.4259 70.2545 63.1865 70.3477 62.9812C70.4409 62.776 70.6813 62.6831 70.8874 62.776L73.664 63.9977C77.9516 65.84 80.7282 70.0427 80.7233 74.6901V80.911C80.7184 81.1358 80.532 81.3166 80.3113 81.3166Z" fill="black"/>
<path d="M46.8491 81.3166C46.6234 81.3166 46.4419 81.1358 46.4419 80.911V74.7829C46.4321 70.0818 49.2725 65.84 53.6288 64.0368L56.2828 62.8884C56.4938 62.8102 56.7292 62.9177 56.8077 63.1278C56.8813 63.3233 56.793 63.5432 56.6066 63.6361L53.9477 64.7796C49.8906 66.4558 47.2465 70.4043 47.2563 74.7829V80.911C47.2563 81.1358 47.0748 81.3166 46.8491 81.3166Z" fill="black"/>
<path d="M63.4796 70.5656C58.8191 70.5656 54.2176 68.1271 52.996 64.9702C52.9126 64.76 53.0206 64.5255 53.2315 64.4424C53.4425 64.3593 53.6779 64.4668 53.7613 64.677C54.8504 67.4771 59.2116 69.7544 63.4845 69.7544C68.3804 69.7544 72.1284 67.0471 73.3155 64.3789C73.4088 64.1736 73.6491 64.0808 73.8552 64.1736C74.0612 64.2665 74.1544 64.5059 74.0612 64.7112C72.5552 68.0977 68.1057 70.5656 63.4796 70.5656Z" fill="black"/>
<g opacity="0.5">
<path opacity="0.5" d="M63.4843 67.135C63.2587 67.135 63.0771 66.9542 63.0771 66.7294V63.5921C63.0771 63.3673 63.2587 63.1865 63.4843 63.1865C63.71 63.1865 63.8915 63.3673 63.8915 63.5921V66.7294C63.8915 66.9542 63.71 67.135 63.4843 67.135Z" fill="black"/>
<path opacity="0.5" d="M61.3452 66.7978C61.1195 66.7978 60.938 66.617 60.938 66.3922C60.938 66.3385 60.9478 66.2847 60.9723 66.2358C61.3206 65.4051 61.4629 64.5059 61.3795 63.6116C61.3697 63.3868 61.5414 63.1962 61.7671 63.1865C61.9927 63.1767 62.184 63.3477 62.1939 63.5725C62.2871 64.5841 62.1301 65.6054 61.7425 66.5486C61.6788 66.705 61.5169 66.8076 61.3452 66.7978Z" fill="black"/>
<path opacity="0.5" d="M59.4619 66.1626C59.2362 66.1626 59.0547 65.9769 59.0547 65.7521C59.0547 65.6446 59.0988 65.5371 59.1773 65.4589C59.5845 65.0826 59.6924 64.6232 59.7219 63.3038C59.7219 63.079 59.9034 62.8982 60.129 62.8982C60.3547 62.8982 60.5362 63.079 60.5362 63.3038C60.5068 64.4864 60.4283 65.3709 59.7219 66.0257C59.6581 66.1088 59.5649 66.1528 59.4619 66.1626Z" fill="black"/>
<path opacity="0.5" d="M57.6073 64.9653C57.3816 64.9751 57.1903 64.7991 57.1805 64.5743C57.1756 64.4473 57.2295 64.3251 57.3277 64.242L57.4209 64.1541C57.936 63.7631 58.2499 63.1718 58.2843 62.5268C58.3137 62.302 58.5247 62.1456 58.7503 62.1749C58.976 62.2042 59.133 62.4144 59.1035 62.6392C59.0398 63.4601 58.6326 64.2176 57.985 64.7307L57.8673 64.848C57.7937 64.9213 57.7005 64.9604 57.6073 64.9653Z" fill="black"/>
<path opacity="0.5" d="M65.6184 66.7978C65.4565 66.7978 65.3044 66.7001 65.2406 66.5486C64.858 65.6055 64.7059 64.5841 64.7991 63.5725C64.8089 63.3477 65.0003 63.1718 65.2259 63.1865C65.4516 63.1962 65.6282 63.3868 65.6135 63.6116C65.5301 64.5059 65.6723 65.41 66.0206 66.2359C66.1089 66.4411 66.0059 66.6806 65.7999 66.7685C65.7459 66.793 65.6822 66.8027 65.6184 66.7978Z" fill="black"/>
<path opacity="0.5" d="M67.561 66.1088C67.458 66.1088 67.3549 66.0697 67.2813 66.0013C66.5995 65.3611 66.467 64.5988 66.4229 63.3282C66.4229 63.1034 66.6044 62.9226 66.83 62.9226C67.0557 62.9226 67.2372 63.1034 67.2372 63.3282C67.2666 64.5499 67.4089 65.0288 67.8357 65.4295C68.0025 65.581 68.0074 65.84 67.8553 66.0062C67.7768 66.0892 67.6689 66.1332 67.5561 66.1332L67.561 66.1088Z" fill="black"/>
<path opacity="0.5" d="M69.3174 64.9115C69.2144 64.9115 69.1163 64.8724 69.0378 64.804L68.9396 64.7161C68.3166 64.2176 67.9291 63.4797 67.88 62.6831C67.8506 62.4583 68.0076 62.2531 68.2332 62.2189C68.4589 62.1847 68.6649 62.3459 68.6993 62.5707C68.7238 63.1816 69.023 63.7534 69.5136 64.1247L69.6117 64.2176C69.7785 64.3691 69.7834 64.6281 69.6314 64.7942C69.5529 64.8773 69.4449 64.9213 69.337 64.9213L69.3174 64.9115Z" fill="black"/>
</g>
<path d="M53.3785 51.6438V47.9836C53.3785 46.7618 52.471 46.3562 51.9117 46.7618C51.0189 47.3825 52.157 50.0116 52.157 50.0116C51.4898 50.427 52.2404 51.9468 53.3785 51.6438Z" fill="#FFE900"/>
<path d="M53.0745 52.0934C52.4368 52.0738 51.8726 51.6829 51.6273 51.0965C51.436 50.7251 51.4556 50.2804 51.6764 49.9236C51.3575 49.1124 50.7001 47.1088 51.6764 46.4295C52.059 46.1608 52.5594 46.1314 52.9715 46.3562C53.5307 46.7032 53.8447 47.3287 53.7858 47.9836V51.6438C53.7907 51.8344 53.6632 52.0005 53.4817 52.0494C53.3492 52.0836 53.2119 52.0934 53.0745 52.0934ZM52.3681 47.0257C52.2847 47.0257 52.2062 47.0502 52.1375 47.099C51.7745 47.3532 52.0492 48.7557 52.5251 49.8552C52.6036 50.036 52.5398 50.251 52.3681 50.3586C52.2798 50.4172 52.2994 50.6127 52.3681 50.7642C52.476 51.0134 52.6968 51.1991 52.9617 51.2626V47.9836C53.0009 47.6317 52.8439 47.2847 52.5545 47.0795C52.5005 47.0453 52.4368 47.0306 52.3681 47.0257Z" fill="black"/>
<path d="M52.1523 50.4269C51.9266 50.4269 51.7451 50.2461 51.7451 50.0213C51.7451 49.8845 51.8138 49.7575 51.9315 49.6793L52.0885 49.5815C52.27 49.4496 52.5251 49.4936 52.6576 49.6744C52.79 49.8552 52.7459 50.1093 52.5644 50.2412C52.5546 50.251 52.5398 50.2559 52.53 50.2657L52.378 50.3634C52.3093 50.4025 52.2308 50.4269 52.1523 50.4269Z" fill="black"/>
<path d="M73.7812 51.6438V47.9836C73.7812 46.7618 74.6888 46.3562 75.2481 46.7618C76.1409 47.3825 75.0028 50.0116 75.0028 50.0116C75.67 50.427 74.9194 51.9468 73.7812 51.6438Z" fill="#FFE900"/>
<path d="M64.8529 62.214H62.3068C60.8351 62.214 59.4223 61.6276 58.3872 60.5867L55.012 57.2245C53.9671 56.1885 53.3833 54.786 53.3784 53.32V43.3508C53.3784 33.2742 73.7813 33.2742 73.7813 43.3508V53.32C73.7813 54.786 73.1927 56.1934 72.1477 57.2245L68.7726 60.5867C67.7326 61.6276 66.3246 62.2091 64.8529 62.214Z" fill="#FFE900"/>
<g opacity="0.3">
<path opacity="0.3" d="M68.7726 58.5538C67.7326 59.5946 66.3246 60.1762 64.8529 60.1811H62.3068C60.8351 60.1811 59.4223 59.5946 58.3872 58.5538L55.012 55.1916C53.9671 54.1556 53.3833 52.7531 53.3784 51.287V53.32C53.3784 54.786 53.9671 56.1934 55.012 57.2245L58.3872 60.5867C59.4272 61.6276 60.8351 62.2091 62.3068 62.214H64.8578C66.3295 62.214 67.7424 61.6276 68.7775 60.5867L72.1477 57.2245C73.1927 56.1885 73.7764 54.786 73.7813 53.32V51.287C73.7813 52.7531 73.1927 54.1605 72.1477 55.1916L68.7726 58.5538Z" fill="#CC7E54"/>
</g>
<path d="M74.0806 52.0934C73.9432 52.0934 73.8059 52.0738 73.6734 52.0396C73.4968 51.9907 73.3693 51.8295 73.3693 51.6438V47.9835C73.3104 47.3336 73.6293 46.7032 74.1836 46.3562C74.5908 46.1412 75.0814 46.1656 75.4591 46.4295C76.4402 47.1088 75.778 49.1173 75.4591 49.9236C75.6798 50.2804 75.6995 50.7202 75.5081 51.0965C75.2678 51.6731 74.7134 52.064 74.0806 52.0934ZM74.7821 47.0257C74.7085 47.0257 74.6398 47.0453 74.5761 47.0795C74.2915 47.2896 74.1395 47.6366 74.1836 47.9835V51.2626C74.4485 51.1991 74.6693 51.0134 74.7772 50.7641C74.8459 50.6078 74.8655 50.4123 74.7772 50.3585C74.6104 50.251 74.5417 50.036 74.6202 49.8552C75.0961 48.7557 75.3708 47.3531 75.0078 47.099C74.9489 47.055 74.8704 47.0257 74.7821 47.0257Z" fill="black"/>
<path d="M75.0031 50.427C74.9246 50.427 74.8461 50.4025 74.7823 50.3634L74.6303 50.2657C74.434 50.1533 74.3653 49.9041 74.4782 49.7135C74.591 49.518 74.8412 49.4496 75.0325 49.562C75.0472 49.5669 75.0571 49.5766 75.0669 49.5864L75.2238 49.6842C75.4152 49.8063 75.4691 50.0556 75.3465 50.2461C75.2729 50.3537 75.1454 50.427 75.0031 50.427Z" fill="black"/>
<path d="M64.8534 62.6196H62.3073C60.7277 62.6245 59.2118 61.999 58.0982 60.8848L54.7133 57.5129C53.5899 56.4035 52.9619 54.8935 52.9668 53.32V43.3508C52.9668 40.8732 54.1344 38.7963 56.3371 37.3449C58.2699 36.0841 60.8258 35.3902 63.5779 35.3902C66.33 35.3902 68.881 36.0841 70.8188 37.3449C73.0215 38.8012 74.189 40.8781 74.189 43.3508V53.32C74.1939 54.8935 73.566 56.4035 72.4475 57.5129L69.0625 60.8848C67.9489 61.999 66.4331 62.6245 64.8534 62.6196ZM63.5779 36.1965C58.8586 36.1965 53.7861 38.4347 53.7861 43.3459V53.3151C53.7861 54.6687 54.3257 55.9686 55.2921 56.9264L58.682 60.3032C59.6386 61.2659 60.9435 61.8035 62.3073 61.8035H64.8583C66.2172 61.8035 67.5221 61.2659 68.4787 60.3032L71.8686 56.9264C72.835 55.9735 73.3747 54.6736 73.3747 53.3151V43.3459C73.3747 41.1713 72.2365 39.1482 70.3724 38.0193C68.5818 36.8465 66.1731 36.1965 63.5779 36.1965Z" fill="black"/>
<g opacity="0.3">
<path opacity="0.3" d="M73.7816 45.1394V43.1505C73.811 39.847 71.1521 37.1446 67.8358 37.1152C67.8211 37.1152 67.8015 37.1152 67.7868 37.1152H59.4961C56.1504 37.1152 53.4375 39.8128 53.4375 43.1456C53.4375 43.1505 53.4375 43.1505 53.4375 43.1554V44.9293C54.4579 43.7076 55.4783 42.7107 55.9885 41.186C61.6006 44.7338 68.7385 42.8915 72.148 43.258C73.551 43.4095 73.7423 44.2842 73.7816 45.1394Z" fill="#CC7E54"/>
</g>
<path d="M70.2691 34.0658C73.8944 35.7371 76.3277 37.6235 74.9737 44.2256C74.7873 45.1345 73.7767 44.7289 73.7767 44.7289C73.7767 44.7289 74.0416 41.7431 72.1431 41.5378C68.7483 41.1713 60.5852 43.2042 54.9779 38.6301C54.9779 40.6631 54.4677 41.6795 53.4473 43.2042C53.4473 43.2042 52.0296 43.2042 51.9168 42.1878C51.4066 37.6137 52.9371 35.5808 54.9779 36.089C60.0701 31.0213 68.4736 33.2351 70.2691 34.0658Z" fill="white"/>
<g opacity="0.3">
<path opacity="0.3" d="M54.9682 38.0388C60.0702 32.9468 68.4737 35.1752 70.2692 36.0059C72.9625 37.2521 75.0032 38.635 75.3025 41.9874C75.7097 37.1641 73.4432 35.5319 70.2692 34.0707C68.459 33.2351 60.0702 31.0214 54.9682 36.1037C53.0305 35.6199 51.5538 37.4427 51.8531 41.5525C52.0837 38.8159 53.3788 37.643 54.9682 38.0388Z" fill="white"/>
</g>
<path d="M74.2621 45.2371C74.0413 45.2323 73.8255 45.1932 73.6194 45.1101C73.4575 45.0417 73.3545 44.8804 73.3692 44.7045C73.3692 44.68 73.5753 42.1096 72.0889 41.9532C70.9998 41.8897 69.9107 41.8994 68.8265 41.9874C64.8921 42.1878 59.5743 42.4565 55.3358 39.4414C55.218 41.01 54.7177 42.0167 53.766 43.4388C53.6924 43.561 53.5648 43.6294 53.4226 43.6196C52.8044 43.6196 51.6123 43.3264 51.4897 42.2415C51.1659 39.3534 51.6221 37.213 52.7799 36.2112C53.3392 35.7225 54.0897 35.5172 54.8207 35.659C60.1238 30.5962 68.5911 32.8588 70.4209 33.7042C73.9726 35.3315 76.7983 37.2667 75.3512 44.3184C75.307 44.6605 75.101 44.9635 74.7968 45.1296C74.63 45.2078 74.4436 45.2469 74.2621 45.2371ZM74.1983 44.4259C74.2768 44.4357 74.3602 44.4259 74.4338 44.3917C74.4583 44.3917 74.5319 44.338 74.5711 44.1523C75.8957 37.6772 73.4428 35.9815 70.0824 34.4421C68.0956 33.67 65.9812 33.2742 63.8472 33.2742H63.7246C61.2766 33.2742 57.8328 33.8264 55.2573 36.392C55.1543 36.4946 55.0071 36.5337 54.8697 36.4995C54.335 36.3382 53.7512 36.4604 53.3293 36.8269C52.3973 37.6381 52.0293 39.5782 52.3188 42.1536C52.3727 42.608 52.9222 42.7449 53.2361 42.7937C54.1682 41.3619 54.5607 40.4236 54.5607 38.635C54.5607 38.4102 54.7471 38.2294 54.9728 38.2294C55.066 38.2294 55.1543 38.2636 55.2279 38.3223C59.3094 41.6551 64.7989 41.3766 68.7971 41.1664C69.9205 41.0736 71.0537 41.0638 72.1821 41.1322C74.0462 41.3375 74.213 43.5414 74.1934 44.421H74.1983V44.4259Z" fill="black"/>
<path d="M56.4989 37.0126C56.4401 37.0126 56.3812 37.0028 56.3272 36.9784C55.8857 36.7536 55.4148 36.5923 54.9291 36.5093C54.7034 36.4848 54.5416 36.2845 54.5612 36.0646C54.5857 35.8398 54.7868 35.6785 55.0076 35.698C55.5865 35.7909 56.1457 35.9766 56.6706 36.2405C56.8767 36.3333 56.965 36.5728 56.8718 36.778C56.808 36.9198 56.6608 37.0126 56.4989 37.0126Z" fill="black"/>
<path d="M70.0581 43.1065C66.3837 43.0674 63.6855 41.7919 61.0806 41.357L70.0581 43.1065Z" fill="white"/>
<path d="M70.0583 43.517C67.9243 43.4388 65.8099 43.0674 63.774 42.4223C62.8714 42.1535 61.9491 41.9336 61.0219 41.7577C60.7962 41.7186 60.6442 41.5085 60.6834 41.2837C60.7227 41.0589 60.9336 40.9074 61.1593 40.9465C62.111 41.1273 63.0529 41.3521 63.985 41.6258C65.9522 42.2562 67.9979 42.6227 70.0632 42.7058C70.2888 42.7058 70.4703 42.8866 70.4703 43.1114C70.4703 43.3362 70.2888 43.517 70.0632 43.517H70.0583Z" fill="black"/>
<path d="M53.3789 45.9555C53.1532 45.9555 52.9717 45.7747 52.9717 45.5499V43.1554C52.9717 42.9306 53.1532 42.7497 53.3789 42.7497C53.6045 42.7497 53.786 42.9306 53.786 43.1554V45.5499C53.786 45.7698 53.6045 45.9555 53.3789 45.9555Z" fill="black"/>
<path d="M70.9213 47.1723C70.8428 47.1723 70.7643 47.1479 70.6956 47.1039C70.0137 46.6543 69.0326 46.8156 67.9975 46.9866C67.448 47.0941 66.8937 47.1577 66.3344 47.1723C66.1088 47.1723 65.9272 46.9915 65.9272 46.7667C65.9272 46.5419 66.1088 46.3611 66.3344 46.3611C66.8495 46.3416 67.3597 46.2829 67.865 46.1852C69.0179 45.9946 70.2001 45.7796 71.1518 46.4295C71.3383 46.5566 71.3873 46.8058 71.2647 46.9915C71.1862 47.1039 71.0586 47.1723 70.9213 47.1723Z" fill="black"/>
<path d="M60.7224 47.3776C60.6145 47.3776 60.5115 47.3336 60.433 47.2603C59.8247 46.6592 57.2099 46.3807 56.3122 46.8302C56.1062 46.9231 55.8658 46.8351 55.7726 46.6299C55.6843 46.4344 55.7628 46.2047 55.9492 46.1021C57.0824 45.5352 60.0945 45.7747 61.007 46.6885C61.164 46.8498 61.164 47.1039 61.0021 47.2652C60.9285 47.3336 60.8255 47.3727 60.7224 47.3776Z" fill="black"/>
<path d="M58.4809 49.8161C58.8196 49.8161 59.0941 49.5426 59.0941 49.2052C59.0941 48.8679 58.8196 48.5944 58.4809 48.5944C58.1422 48.5944 57.8677 48.8679 57.8677 49.2052C57.8677 49.5426 58.1422 49.8161 58.4809 49.8161Z" fill="black"/>
<path d="M58.4804 50.2217C57.9162 50.2217 57.46 49.7672 57.46 49.2052C57.46 48.6433 57.9162 48.1888 58.4804 48.1888C59.0445 48.1888 59.5007 48.6433 59.5007 49.2052C59.5007 49.7672 59.0396 50.2217 58.4804 50.2217ZM58.4804 49C58.3675 49 58.2743 49.0928 58.2743 49.2052C58.2743 49.3176 58.3675 49.4105 58.4804 49.4105C58.5932 49.4105 58.6864 49.3176 58.6864 49.2052C58.6864 49.0928 58.5883 49 58.4804 49Z" fill="black"/>
<path d="M60.3155 48.7996H56.6411C56.4154 48.7996 56.2339 48.6188 56.2339 48.394C56.2339 48.1692 56.4154 47.9884 56.6411 47.9884H60.3155C60.5411 47.9884 60.7226 48.1692 60.7226 48.394C60.7226 48.6188 60.5411 48.7996 60.3155 48.7996Z" fill="black"/>
<path d="M63.5776 52.8655C63.1999 52.8313 62.8418 52.6993 62.5278 52.4892C62.3463 52.3524 62.3119 52.0983 62.4493 51.9223C62.5719 51.7562 62.8025 51.7122 62.984 51.8148C63.1606 51.937 63.3667 52.0201 63.5776 52.0543C63.7935 52.0201 63.9946 51.937 64.1712 51.8148C64.3674 51.7024 64.6176 51.766 64.7305 51.9565C64.8384 52.1325 64.7893 52.3621 64.6225 52.4892C64.3184 52.6993 63.9554 52.8313 63.5776 52.8655Z" fill="black"/>
<path d="M68.7387 49.8161C69.0774 49.8161 69.3519 49.5426 69.3519 49.2052C69.3519 48.8679 69.0774 48.5944 68.7387 48.5944C68.4 48.5944 68.1255 48.8679 68.1255 49.2052C68.1255 49.5426 68.4 49.8161 68.7387 49.8161Z" fill="black"/>
<path d="M68.7386 50.2217C68.1745 50.2217 67.7183 49.7672 67.7183 49.2052C67.7183 48.6433 68.1745 48.1888 68.7386 48.1888C69.3028 48.1888 69.759 48.6433 69.759 49.2052C69.759 49.7672 69.2979 50.2217 68.7386 50.2217ZM68.7386 49C68.6258 49 68.5326 49.0928 68.5326 49.2052C68.5326 49.3176 68.6258 49.4105 68.7386 49.4105C68.8515 49.4105 68.9447 49.3176 68.9447 49.2052C68.9447 49.0928 68.8515 49 68.7386 49Z" fill="black"/>
<path d="M70.5142 48.7996H66.8398C66.6141 48.7996 66.4326 48.6188 66.4326 48.394C66.4326 48.1692 66.6141 47.9884 66.8398 47.9884H70.5142C70.7399 47.9884 70.9214 48.1692 70.9214 48.394C70.9214 48.6188 70.7399 48.7996 70.5142 48.7996Z" fill="black"/>
<path d="M73.7813 52.0494V56.6039C73.7813 57.5813 73.3496 58.5098 72.604 59.1402L68.5813 62.5365C67.6639 63.3184 66.4963 63.7485 65.2895 63.7582H61.88C60.6732 63.7533 59.5057 63.3233 58.5883 62.5365L54.5656 59.1402C53.815 58.5098 53.3833 57.5813 53.3833 56.6039V52.0494L56.5132 55.5581C57.043 56.1494 57.9407 56.2179 58.5539 55.7145L59.2996 55.0988C60.0894 54.4439 61.0853 54.0823 62.1155 54.0823H65.0491C66.0744 54.0823 67.0703 54.4439 67.8601 55.0988L68.6009 55.7096C69.2141 56.213 70.1118 56.1445 70.6417 55.5532L73.7813 52.0494Z" fill="white"/>
<g opacity="0.3">
<path opacity="0.3" d="M72.5991 57.1121L68.5764 60.5085C67.659 61.2904 66.4914 61.7204 65.2846 61.7302H61.8751C60.6683 61.7253 59.5008 61.2953 58.5834 60.5085L54.5607 57.1121C53.8101 56.4817 53.3784 55.5532 53.3784 54.5759V56.6088C53.3784 57.5862 53.8101 58.5147 54.5558 59.1451L58.5785 62.5414C59.4959 63.3233 60.6634 63.7533 61.8702 63.7631H65.2748C66.4816 63.7582 67.6492 63.3282 68.5666 62.5414L72.5892 59.1451C73.3398 58.5147 73.7764 57.5862 73.7764 56.6088V54.5759C73.7813 55.5532 73.3496 56.4817 72.5991 57.1121Z" fill="#CC7E54"/>
</g>
<g opacity="0.3">
<path opacity="0.3" d="M70.6515 55.5581C70.1217 56.1494 69.2239 56.2179 68.6107 55.7145L67.865 55.0988C67.0752 54.4439 66.0794 54.0823 65.0491 54.0823H62.1106C61.0853 54.0823 60.0895 54.4439 59.2996 55.0988L58.5589 55.7096C57.9457 56.213 57.0479 56.1445 56.5181 55.5532L53.3784 52.0494V53.5741L56.5083 57.0828C57.0381 57.6741 57.9358 57.7425 58.5491 57.2392L59.2898 56.6235C60.0796 55.9686 61.0755 55.607 62.1008 55.607H65.0393C66.0646 55.607 67.0605 55.9686 67.8503 56.6235L68.5911 57.2392C69.2043 57.7425 70.102 57.6741 70.6319 57.0828L73.7863 53.5741V52.0494L70.6515 55.5581Z" fill="white"/>
</g>
<path d="M65.2802 64.1443H61.8756C60.5707 64.1443 59.3148 63.6849 58.3189 62.8493L54.2962 59.4529C53.4524 58.7443 52.9717 57.7034 52.9717 56.6088V52.0543C52.9717 51.8295 53.1532 51.6487 53.3789 51.6487C53.4966 51.6487 53.6094 51.6975 53.683 51.7855L56.8129 55.304C57.1955 55.734 57.8529 55.7829 58.2944 55.4115L59.0352 54.7958C59.8986 54.0725 60.9876 53.6767 62.1111 53.6718H65.0496C66.173 53.6718 67.2621 54.0628 68.1255 54.7811L68.8859 55.3969C69.3225 55.7585 69.9651 55.7145 70.3478 55.2991L73.4776 51.7904C73.6248 51.6242 73.8848 51.6047 74.0516 51.7562C74.135 51.8295 74.184 51.937 74.189 52.0494V56.6039C74.189 57.6986 73.7033 58.7443 72.8644 59.448L68.8417 62.8444C67.8458 63.6849 66.5851 64.1443 65.2802 64.1443ZM53.786 53.1196V56.6088C53.786 57.464 54.1638 58.2801 54.8211 58.8323L58.8438 62.214C59.6925 62.9275 60.7669 63.3184 61.8756 63.3184H65.2802C66.3888 63.3184 67.4632 62.9275 68.3119 62.214L72.3346 58.8176C72.9871 58.2654 73.3697 57.4591 73.3697 56.6088V53.1196L70.9512 55.8318C70.2791 56.5941 69.1164 56.6821 68.3413 56.0273L67.6006 55.4115C66.8843 54.8153 65.9817 54.4879 65.0447 54.4879H62.1061C61.1741 54.4879 60.2714 54.8153 59.5552 55.4066L58.8193 56.0224C58.0393 56.6723 56.8815 56.5844 56.2095 55.8269L53.786 53.1196Z" fill="black"/>
<path d="M63.5778 57.3125C62.9744 57.3467 62.366 57.2294 61.8215 56.9606C61.6351 56.8385 61.5811 56.5844 61.7087 56.3938C61.8313 56.2081 62.0864 56.1543 62.2777 56.2814C62.6898 56.4475 63.1362 56.5257 63.5827 56.4964C64.0291 56.5208 64.4755 56.4475 64.8876 56.2814C65.074 56.1592 65.3291 56.2081 65.4567 56.3938C65.5793 56.5795 65.5302 56.8336 65.3438 56.9606C64.7944 57.2294 64.1861 57.3467 63.5778 57.3125Z" fill="black"/>
</g>
</g>
<path d="M254.583 126.97H255.99V133.551H259.713V134.714H254.583V126.97ZM263.147 134.88C262.157 134.88 261.374 134.633 260.798 134.138C260.222 133.643 259.934 132.953 259.934 132.066C259.934 131.195 260.189 130.504 260.698 129.994C261.208 129.485 261.935 129.23 262.881 129.23C263.501 129.23 264.029 129.348 264.465 129.585C264.908 129.821 265.241 130.146 265.462 130.56C265.684 130.966 265.795 131.431 265.795 131.956V132.598H261.263C261.359 133.388 262.046 133.784 263.324 133.784C263.664 133.784 264.011 133.754 264.366 133.695C264.72 133.636 265.03 133.555 265.296 133.451V134.526C265.045 134.629 264.72 134.714 264.321 134.781C263.93 134.847 263.538 134.88 263.147 134.88ZM264.476 131.645C264.462 131.224 264.31 130.899 264.022 130.67C263.741 130.441 263.354 130.327 262.859 130.327C262.371 130.327 261.987 130.445 261.706 130.681C261.426 130.918 261.278 131.239 261.263 131.645H264.476ZM268.857 134.88C268.222 134.88 267.701 134.714 267.295 134.382C266.888 134.042 266.685 133.588 266.685 133.019C266.685 132.428 266.877 131.967 267.261 131.634C267.645 131.302 268.185 131.136 268.879 131.136C269.551 131.136 270.131 131.272 270.618 131.546V131.402C270.618 131.025 270.5 130.752 270.264 130.582C270.035 130.412 269.662 130.327 269.145 130.327C268.82 130.327 268.499 130.36 268.181 130.427C267.863 130.486 267.583 130.571 267.339 130.681V129.585C267.561 129.481 267.856 129.396 268.225 129.33C268.602 129.263 268.964 129.23 269.311 129.23C270.234 129.23 270.918 129.429 271.361 129.828C271.804 130.22 272.026 130.766 272.026 131.468V134.714H270.707V134.194C270.478 134.415 270.216 134.585 269.92 134.703C269.632 134.821 269.278 134.88 268.857 134.88ZM269.2 133.861C269.51 133.861 269.791 133.802 270.042 133.684C270.293 133.558 270.485 133.388 270.618 133.174V132.587C270.212 132.299 269.747 132.155 269.222 132.155C268.476 132.155 268.103 132.443 268.103 133.019C268.103 133.3 268.196 133.51 268.38 133.651C268.572 133.791 268.846 133.861 269.2 133.861ZM275.883 134.88C275.344 134.88 274.86 134.766 274.431 134.537C274.01 134.301 273.678 133.972 273.434 133.551C273.198 133.123 273.08 132.628 273.08 132.066C273.08 131.512 273.198 131.021 273.434 130.593C273.678 130.164 274.01 129.832 274.431 129.596C274.86 129.352 275.344 129.23 275.883 129.23C276.754 129.23 277.441 129.459 277.944 129.917V126.527H279.34V134.714H277.988V134.094C277.685 134.375 277.371 134.578 277.046 134.703C276.721 134.821 276.333 134.88 275.883 134.88ZM276.226 133.784C276.625 133.784 276.98 133.677 277.29 133.462C277.6 133.248 277.818 132.96 277.944 132.598V131.523C277.825 131.162 277.607 130.873 277.29 130.659C276.98 130.438 276.625 130.327 276.226 130.327C275.724 130.327 275.31 130.489 274.985 130.814C274.66 131.139 274.498 131.557 274.498 132.066C274.498 132.576 274.66 132.99 274.985 133.307C275.31 133.625 275.724 133.784 276.226 133.784ZM283.661 134.88C282.671 134.88 281.888 134.633 281.312 134.138C280.736 133.643 280.448 132.953 280.448 132.066C280.448 131.195 280.703 130.504 281.212 129.994C281.722 129.485 282.45 129.23 283.395 129.23C284.015 129.23 284.544 129.348 284.979 129.585C285.423 129.821 285.755 130.146 285.977 130.56C286.198 130.966 286.309 131.431 286.309 131.956V132.598H281.777C281.873 133.388 282.56 133.784 283.838 133.784C284.178 133.784 284.525 133.754 284.88 133.695C285.234 133.636 285.544 133.555 285.81 133.451V134.526C285.559 134.629 285.234 134.714 284.835 134.781C284.444 134.847 284.052 134.88 283.661 134.88ZM284.99 131.645C284.976 131.224 284.824 130.899 284.536 130.67C284.256 130.441 283.868 130.327 283.373 130.327C282.885 130.327 282.501 130.445 282.221 130.681C281.94 130.918 281.792 131.239 281.777 131.645H284.99ZM287.421 129.396H288.773V130.249C288.987 129.961 289.29 129.747 289.681 129.607C290.08 129.466 290.534 129.396 291.044 129.396V130.46C290.505 130.46 290.036 130.545 289.637 130.715C289.245 130.877 288.972 131.136 288.817 131.49V134.714H287.421V129.396ZM293.842 134.88C293.458 134.88 293.048 134.836 292.613 134.748C292.177 134.659 291.837 134.537 291.593 134.382V133.196C291.881 133.374 292.225 133.518 292.624 133.629C293.022 133.732 293.399 133.784 293.754 133.784C294.108 133.784 294.367 133.754 294.529 133.695C294.692 133.629 294.773 133.51 294.773 133.34C294.773 133.207 294.729 133.1 294.64 133.019C294.559 132.931 294.422 132.853 294.23 132.786C294.045 132.713 293.757 132.624 293.366 132.521C292.923 132.395 292.572 132.266 292.313 132.133C292.062 132 291.87 131.834 291.737 131.634C291.612 131.427 291.549 131.162 291.549 130.837C291.549 130.305 291.759 129.906 292.18 129.64C292.601 129.367 293.17 129.23 293.887 129.23C294.256 129.23 294.622 129.267 294.984 129.341C295.353 129.407 295.641 129.503 295.848 129.629V130.77C295.626 130.637 295.357 130.53 295.039 130.449C294.721 130.367 294.396 130.327 294.064 130.327C293.702 130.327 293.429 130.364 293.244 130.438C293.059 130.504 292.967 130.637 292.967 130.837C292.967 130.969 293.015 131.077 293.111 131.158C293.215 131.232 293.347 131.298 293.51 131.357C293.672 131.409 293.968 131.49 294.396 131.601C294.854 131.727 295.212 131.863 295.471 132.011C295.73 132.159 295.914 132.336 296.025 132.543C296.136 132.75 296.191 133.008 296.191 133.318C296.191 133.791 295.988 134.171 295.582 134.459C295.183 134.74 294.603 134.88 293.842 134.88ZM297.299 126.527H298.695V130.072C299.198 129.511 299.848 129.23 300.645 129.23C301.362 129.23 301.897 129.426 302.252 129.817C302.606 130.201 302.784 130.715 302.784 131.357V134.714H301.388V131.49C301.388 130.715 301.026 130.327 300.302 130.327C299.984 130.327 299.685 130.404 299.404 130.56C299.124 130.707 298.887 130.933 298.695 131.235V134.714H297.299V126.527ZM304.848 128.466C304.627 128.466 304.438 128.392 304.283 128.244C304.136 128.096 304.062 127.912 304.062 127.69C304.062 127.468 304.136 127.284 304.283 127.136C304.438 126.981 304.627 126.903 304.848 126.903C305.07 126.903 305.258 126.981 305.413 127.136C305.568 127.284 305.646 127.468 305.646 127.69C305.646 127.912 305.568 128.096 305.413 128.244C305.258 128.392 305.07 128.466 304.848 128.466ZM304.139 129.396H305.557V134.714H304.139V129.396ZM306.972 129.396H308.324V130.039C308.612 129.766 308.926 129.562 309.266 129.429C309.605 129.296 309.993 129.23 310.429 129.23C310.968 129.23 311.448 129.348 311.869 129.585C312.298 129.814 312.63 130.142 312.866 130.571C313.11 130.992 313.232 131.483 313.232 132.044C313.232 132.598 313.11 133.089 312.866 133.518C312.63 133.946 312.298 134.282 311.869 134.526C311.448 134.762 310.968 134.88 310.429 134.88C310.023 134.88 309.639 134.825 309.277 134.714C308.922 134.596 308.619 134.423 308.368 134.194V137.141H306.972V129.396ZM310.085 133.784C310.588 133.784 311.001 133.621 311.326 133.296C311.651 132.971 311.814 132.554 311.814 132.044C311.814 131.535 311.651 131.121 311.326 130.803C311.001 130.486 310.588 130.327 310.085 130.327C309.687 130.327 309.332 130.434 309.022 130.648C308.712 130.862 308.494 131.15 308.368 131.512V132.587C308.486 132.949 308.701 133.241 309.011 133.462C309.328 133.677 309.687 133.784 310.085 133.784ZM257.464 144.97H258.827L261.918 152.714H260.489L259.779 150.931H256.5L255.802 152.714H254.362L257.464 144.97ZM259.392 149.767L258.14 146.477L256.888 149.767H259.392ZM265.837 155.263C265.482 155.263 265.128 155.229 264.773 155.163C264.419 155.096 264.123 155.008 263.887 154.897V153.789C264.463 154.04 265.113 154.166 265.837 154.166C266.487 154.166 266.952 154.029 267.233 153.756C267.521 153.482 267.665 153.076 267.665 152.537V152.194C267.414 152.423 267.115 152.596 266.767 152.714C266.42 152.825 266.047 152.88 265.648 152.88C265.109 152.88 264.622 152.762 264.186 152.526C263.75 152.282 263.41 151.946 263.167 151.518C262.923 151.089 262.801 150.598 262.801 150.044C262.801 149.483 262.919 148.992 263.156 148.571C263.399 148.142 263.732 147.814 264.153 147.585C264.581 147.348 265.065 147.23 265.604 147.23C266.055 147.23 266.442 147.293 266.767 147.418C267.092 147.537 267.406 147.736 267.709 148.017V147.396H269.061V152.393C269.061 153.309 268.795 154.014 268.263 154.509C267.739 155.011 266.93 155.263 265.837 155.263ZM265.948 151.784C266.346 151.784 266.701 151.677 267.011 151.462C267.329 151.241 267.547 150.949 267.665 150.587V149.512C267.539 149.15 267.321 148.862 267.011 148.648C266.701 148.434 266.346 148.327 265.948 148.327C265.445 148.327 265.032 148.486 264.707 148.803C264.382 149.121 264.219 149.535 264.219 150.044C264.219 150.554 264.382 150.971 264.707 151.296C265.032 151.621 265.445 151.784 265.948 151.784ZM271.177 146.466C270.956 146.466 270.767 146.392 270.612 146.244C270.465 146.096 270.391 145.912 270.391 145.69C270.391 145.468 270.465 145.284 270.612 145.136C270.767 144.981 270.956 144.903 271.177 144.903C271.399 144.903 271.587 144.981 271.742 145.136C271.898 145.284 271.975 145.468 271.975 145.69C271.975 145.912 271.898 146.096 271.742 146.244C271.587 146.392 271.399 146.466 271.177 146.466ZM270.468 147.396H271.887V152.714H270.468V147.396ZM273.301 144.527H274.697V152.714H273.301V144.527ZM279.019 152.88C278.03 152.88 277.247 152.633 276.67 152.138C276.094 151.643 275.806 150.953 275.806 150.066C275.806 149.195 276.061 148.504 276.571 147.994C277.08 147.485 277.808 147.23 278.753 147.23C279.374 147.23 279.902 147.348 280.338 147.585C280.781 147.821 281.113 148.146 281.335 148.56C281.556 148.966 281.667 149.431 281.667 149.956V150.598H277.136C277.232 151.388 277.919 151.784 279.197 151.784C279.536 151.784 279.883 151.754 280.238 151.695C280.593 151.636 280.903 151.555 281.169 151.451V152.526C280.918 152.629 280.593 152.714 280.194 152.781C279.802 152.847 279.411 152.88 279.019 152.88ZM280.349 149.645C280.334 149.224 280.183 148.899 279.895 148.67C279.614 148.441 279.226 148.327 278.731 148.327C278.244 148.327 277.86 148.445 277.579 148.681C277.298 148.918 277.151 149.239 277.136 149.645H280.349ZM254.583 163.97H257.685C258.535 163.97 259.214 164.195 259.724 164.646C260.241 165.096 260.5 165.713 260.5 166.496C260.5 167.308 260.245 167.929 259.735 168.357C259.225 168.778 258.539 168.989 257.674 168.989H255.99V171.714H254.583V163.97ZM257.508 167.825C258.564 167.825 259.093 167.382 259.093 166.496C259.093 165.587 258.564 165.133 257.508 165.133H255.99V167.825H257.508ZM261.389 166.396H262.74V167.249C262.955 166.961 263.258 166.747 263.649 166.607C264.048 166.466 264.502 166.396 265.012 166.396V167.46C264.473 167.46 264.004 167.545 263.605 167.715C263.213 167.877 262.94 168.136 262.785 168.49V171.714H261.389V166.396ZM268.63 171.88C268.01 171.88 267.463 171.77 266.99 171.548C266.525 171.319 266.163 170.994 265.905 170.573C265.646 170.145 265.517 169.639 265.517 169.055C265.517 168.486 265.642 167.992 265.893 167.571C266.152 167.142 266.518 166.814 266.99 166.585C267.463 166.348 268.01 166.23 268.63 166.23C269.25 166.23 269.793 166.348 270.259 166.585C270.731 166.814 271.097 167.142 271.356 167.571C271.614 167.992 271.743 168.486 271.743 169.055C271.743 169.639 271.614 170.145 271.356 170.573C271.097 170.994 270.731 171.319 270.259 171.548C269.793 171.77 269.25 171.88 268.63 171.88ZM268.63 170.784C269.14 170.784 269.546 170.625 269.849 170.307C270.152 169.982 270.303 169.565 270.303 169.055C270.303 168.516 270.152 168.095 269.849 167.792C269.553 167.482 269.147 167.327 268.63 167.327C268.113 167.327 267.703 167.482 267.4 167.792C267.105 168.095 266.957 168.516 266.957 169.055C266.957 169.565 267.108 169.982 267.411 170.307C267.714 170.625 268.12 170.784 268.63 170.784ZM276.141 171.88C275.691 171.88 275.303 171.821 274.978 171.703C274.653 171.578 274.339 171.375 274.036 171.094V171.714H272.685V163.527H274.081V166.917C274.332 166.688 274.635 166.518 274.989 166.407C275.351 166.289 275.735 166.23 276.141 166.23C276.681 166.23 277.161 166.352 277.582 166.596C278.01 166.832 278.342 167.164 278.579 167.593C278.823 168.021 278.944 168.512 278.944 169.066C278.944 169.628 278.823 170.123 278.579 170.551C278.342 170.972 278.01 171.301 277.582 171.537C277.161 171.766 276.681 171.88 276.141 171.88ZM275.798 170.784C276.3 170.784 276.714 170.625 277.039 170.307C277.364 169.99 277.526 169.576 277.526 169.066C277.526 168.557 277.364 168.139 277.039 167.814C276.714 167.489 276.3 167.327 275.798 167.327C275.399 167.327 275.041 167.438 274.723 167.659C274.413 167.873 274.199 168.162 274.081 168.523V169.598C274.206 169.96 274.424 170.248 274.734 170.462C275.044 170.677 275.399 170.784 275.798 170.784ZM280.053 163.527H281.449V171.714H280.053V163.527ZM285.771 171.88C284.781 171.88 283.998 171.633 283.422 171.138C282.846 170.643 282.558 169.953 282.558 169.066C282.558 168.195 282.813 167.504 283.322 166.994C283.832 166.485 284.559 166.23 285.505 166.23C286.125 166.23 286.653 166.348 287.089 166.585C287.532 166.821 287.865 167.146 288.086 167.56C288.308 167.966 288.419 168.431 288.419 168.956V169.598H283.887C283.983 170.388 284.67 170.784 285.948 170.784C286.288 170.784 286.635 170.754 286.989 170.695C287.344 170.636 287.654 170.555 287.92 170.451V171.526C287.669 171.629 287.344 171.714 286.945 171.781C286.554 171.847 286.162 171.88 285.771 171.88ZM287.1 168.645C287.086 168.224 286.934 167.899 286.646 167.67C286.365 167.441 285.978 167.327 285.483 167.327C284.995 167.327 284.611 167.445 284.33 167.681C284.05 167.918 283.902 168.239 283.887 168.645H287.1ZM289.531 166.396H290.838V167.094C291.075 166.814 291.352 166.599 291.669 166.452C291.987 166.304 292.308 166.23 292.633 166.23C293.047 166.23 293.379 166.3 293.63 166.441C293.881 166.573 294.07 166.777 294.195 167.05C294.432 166.784 294.716 166.581 295.048 166.441C295.388 166.3 295.724 166.23 296.057 166.23C296.721 166.23 297.198 166.396 297.486 166.729C297.774 167.061 297.918 167.548 297.918 168.191V171.714H296.577V168.379C296.577 168.003 296.5 167.733 296.345 167.571C296.197 167.408 295.957 167.327 295.624 167.327C295.388 167.327 295.17 167.375 294.971 167.471C294.779 167.56 294.601 167.715 294.439 167.936C294.454 168.173 294.461 168.365 294.461 168.512V171.714H293.109V168.357C293.109 167.973 293.047 167.707 292.921 167.56C292.796 167.404 292.567 167.327 292.234 167.327C291.732 167.327 291.281 167.611 290.883 168.18V171.714H289.531V166.396ZM305.257 171.88C304.873 171.88 304.463 171.836 304.027 171.748C303.592 171.659 303.252 171.537 303.008 171.382V170.196C303.296 170.374 303.64 170.518 304.038 170.629C304.437 170.732 304.814 170.784 305.168 170.784C305.523 170.784 305.782 170.754 305.944 170.695C306.107 170.629 306.188 170.51 306.188 170.34C306.188 170.207 306.143 170.1 306.055 170.019C305.974 169.931 305.837 169.853 305.645 169.786C305.46 169.713 305.172 169.624 304.781 169.521C304.338 169.395 303.987 169.266 303.728 169.133C303.477 169 303.285 168.834 303.152 168.634C303.026 168.427 302.964 168.162 302.964 167.837C302.964 167.305 303.174 166.906 303.595 166.64C304.016 166.367 304.585 166.23 305.301 166.23C305.671 166.23 306.036 166.267 306.398 166.341C306.768 166.407 307.056 166.503 307.262 166.629V167.77C307.041 167.637 306.771 167.53 306.454 167.449C306.136 167.367 305.811 167.327 305.479 167.327C305.117 167.327 304.843 167.364 304.659 167.438C304.474 167.504 304.382 167.637 304.382 167.837C304.382 167.969 304.43 168.077 304.526 168.158C304.629 168.232 304.762 168.298 304.925 168.357C305.087 168.409 305.383 168.49 305.811 168.601C306.269 168.727 306.627 168.863 306.886 169.011C307.144 169.159 307.329 169.336 307.44 169.543C307.551 169.75 307.606 170.008 307.606 170.318C307.606 170.791 307.403 171.171 306.997 171.459C306.598 171.74 306.018 171.88 305.257 171.88ZM311.444 171.88C310.823 171.88 310.277 171.77 309.804 171.548C309.338 171.319 308.977 170.994 308.718 170.573C308.46 170.145 308.33 169.639 308.33 169.055C308.33 168.486 308.456 167.992 308.707 167.571C308.965 167.142 309.331 166.814 309.804 166.585C310.277 166.348 310.823 166.23 311.444 166.23C312.064 166.23 312.607 166.348 313.072 166.585C313.545 166.814 313.911 167.142 314.169 167.571C314.428 167.992 314.557 168.486 314.557 169.055C314.557 169.639 314.428 170.145 314.169 170.573C313.911 170.994 313.545 171.319 313.072 171.548C312.607 171.77 312.064 171.88 311.444 171.88ZM311.444 170.784C311.953 170.784 312.359 170.625 312.662 170.307C312.965 169.982 313.117 169.565 313.117 169.055C313.117 168.516 312.965 168.095 312.662 167.792C312.367 167.482 311.961 167.327 311.444 167.327C310.927 167.327 310.517 167.482 310.214 167.792C309.918 168.095 309.771 168.516 309.771 169.055C309.771 169.565 309.922 169.982 310.225 170.307C310.528 170.625 310.934 170.784 311.444 170.784ZM315.66 163.527H317.056V171.714H315.66V163.527ZM318.165 166.396H319.572L321.013 170.075L322.453 166.396H323.86L321.666 171.714H320.359L318.165 166.396ZM325.752 165.466C325.53 165.466 325.342 165.392 325.187 165.244C325.039 165.096 324.965 164.912 324.965 164.69C324.965 164.468 325.039 164.284 325.187 164.136C325.342 163.981 325.53 163.903 325.752 163.903C325.974 163.903 326.162 163.981 326.317 164.136C326.472 164.284 326.55 164.468 326.55 164.69C326.55 164.912 326.472 165.096 326.317 165.244C326.162 165.392 325.974 165.466 325.752 165.466ZM325.043 166.396H326.461V171.714H325.043V166.396ZM327.876 166.396H329.227V167.116C329.479 166.814 329.778 166.592 330.125 166.452C330.472 166.304 330.838 166.23 331.222 166.23C331.938 166.23 332.474 166.426 332.828 166.817C333.183 167.201 333.36 167.715 333.36 168.357V171.714H331.964V168.49C331.964 167.715 331.602 167.327 330.878 167.327C330.561 167.327 330.262 167.404 329.981 167.56C329.7 167.707 329.464 167.933 329.272 168.235V171.714H327.876V166.396ZM337.452 174.263C337.098 174.263 336.743 174.229 336.389 174.163C336.034 174.096 335.739 174.008 335.502 173.897V172.789C336.078 173.04 336.728 173.166 337.452 173.166C338.102 173.166 338.568 173.029 338.848 172.756C339.136 172.482 339.28 172.076 339.28 171.537V171.194C339.029 171.423 338.73 171.596 338.383 171.714C338.036 171.825 337.663 171.88 337.264 171.88C336.725 171.88 336.237 171.762 335.801 171.526C335.366 171.282 335.026 170.946 334.782 170.518C334.538 170.089 334.417 169.598 334.417 169.044C334.417 168.483 334.535 167.992 334.771 167.571C335.015 167.142 335.347 166.814 335.768 166.585C336.197 166.348 336.68 166.23 337.22 166.23C337.67 166.23 338.058 166.293 338.383 166.418C338.708 166.537 339.022 166.736 339.325 167.017V166.396H340.676V171.393C340.676 172.309 340.41 173.014 339.879 173.509C339.354 174.011 338.545 174.263 337.452 174.263ZM337.563 170.784C337.962 170.784 338.316 170.677 338.627 170.462C338.944 170.241 339.162 169.949 339.28 169.587V168.512C339.155 168.15 338.937 167.862 338.627 167.648C338.316 167.434 337.962 167.327 337.563 167.327C337.061 167.327 336.647 167.486 336.322 167.803C335.997 168.121 335.835 168.535 335.835 169.044C335.835 169.554 335.997 169.971 336.322 170.296C336.647 170.621 337.061 170.784 337.563 170.784Z" fill="black"/>
<path d="M43.2839 131.135H46.9623C47.6713 131.135 48.2216 131.313 48.6131 131.667C49.0119 132.022 49.2114 132.539 49.2114 133.218C49.2114 133.58 49.1227 133.909 48.9455 134.204C48.7756 134.492 48.5466 134.714 48.2585 134.869C49.0636 135.135 49.4662 135.73 49.4662 136.653C49.4662 137.111 49.3628 137.51 49.156 137.849C48.9492 138.182 48.6685 138.437 48.3139 138.614C47.9668 138.791 47.579 138.88 47.1506 138.88H43.2839V131.135ZM46.7407 134.359C47.0583 134.359 47.3131 134.274 47.5051 134.105C47.6972 133.927 47.7932 133.661 47.7932 133.307C47.7932 132.901 47.6972 132.624 47.5051 132.476C47.3205 132.321 47.0435 132.243 46.6742 132.243H44.6799V134.359H46.7407ZM46.8293 137.772C47.2208 137.772 47.5199 137.691 47.7267 137.528C47.9409 137.366 48.048 137.078 48.048 136.664C48.048 136.25 47.9372 135.951 47.7156 135.767C47.4941 135.582 47.1728 135.49 46.7517 135.49H44.6799V137.772H46.8293ZM52.5263 139.046C51.8911 139.046 51.3704 138.88 50.9642 138.547C50.5579 138.208 50.3548 137.753 50.3548 137.185C50.3548 136.594 50.5468 136.132 50.9309 135.8C51.315 135.467 51.8542 135.301 52.5485 135.301C53.2207 135.301 53.8005 135.438 54.288 135.711V135.567C54.288 135.19 54.1698 134.917 53.9334 134.747C53.7044 134.577 53.3314 134.492 52.8144 134.492C52.4894 134.492 52.1681 134.526 51.8505 134.592C51.5329 134.651 51.2522 134.736 51.0085 134.847V133.75C51.2301 133.647 51.5255 133.562 51.8948 133.495C52.2715 133.429 52.6334 133.396 52.9806 133.396C53.9039 133.396 54.5871 133.595 55.0303 133.994C55.4735 134.385 55.695 134.932 55.695 135.634V138.88H54.3766V138.359C54.1476 138.581 53.8854 138.751 53.59 138.869C53.3019 138.987 52.9474 139.046 52.5263 139.046ZM52.8698 138.027C53.18 138.027 53.4607 137.968 53.7118 137.849C53.963 137.724 54.155 137.554 54.288 137.34V136.753C53.8817 136.465 53.4164 136.32 52.892 136.32C52.146 136.32 51.7729 136.609 51.7729 137.185C51.7729 137.465 51.8653 137.676 52.0499 137.816C52.242 137.957 52.5153 138.027 52.8698 138.027ZM56.9708 133.562H58.3225V134.282C58.5736 133.979 58.8728 133.757 59.2199 133.617C59.5671 133.469 59.9327 133.396 60.3168 133.396C61.0332 133.396 61.5687 133.591 61.9233 133.983C62.2778 134.367 62.4551 134.88 62.4551 135.523V138.88H61.0591V135.656C61.0591 134.88 60.6972 134.492 59.9733 134.492C59.6557 134.492 59.3566 134.57 59.0759 134.725C58.7952 134.873 58.5589 135.098 58.3668 135.401V138.88H56.9708V133.562ZM63.7331 130.692H65.1291V135.899L67.2453 133.562H68.885L66.514 136.165L69.1509 138.88H67.5112L65.1291 136.42V138.88H63.7331V130.692ZM71.044 132.631C70.8224 132.631 70.6341 132.557 70.479 132.409C70.3313 132.262 70.2574 132.077 70.2574 131.855C70.2574 131.634 70.3313 131.449 70.479 131.302C70.6341 131.146 70.8224 131.069 71.044 131.069C71.2656 131.069 71.454 131.146 71.6091 131.302C71.7642 131.449 71.8417 131.634 71.8417 131.855C71.8417 132.077 71.7642 132.262 71.6091 132.409C71.454 132.557 71.2656 132.631 71.044 132.631ZM70.3349 133.562H71.7531V138.88H70.3349V133.562ZM73.1679 133.562H74.5196V134.282C74.7707 133.979 75.0698 133.757 75.417 133.617C75.7642 133.469 76.1298 133.396 76.5139 133.396C77.2303 133.396 77.7658 133.591 78.1204 133.983C78.4749 134.367 78.6522 134.88 78.6522 135.523V138.88H77.2562V135.656C77.2562 134.88 76.8943 134.492 76.1704 134.492C75.8528 134.492 75.5536 134.57 75.273 134.725C74.9923 134.873 74.7559 135.098 74.5639 135.401V138.88H73.1679V133.562ZM82.7444 141.428C82.3898 141.428 82.0353 141.395 81.6807 141.328C81.3262 141.262 81.0308 141.173 80.7944 141.062V139.955C81.3705 140.206 82.0205 140.331 82.7444 140.331C83.3943 140.331 83.8597 140.195 84.1404 139.921C84.4284 139.648 84.5725 139.242 84.5725 138.703V138.359C84.3213 138.588 84.0222 138.762 83.675 138.88C83.3279 138.991 82.9549 139.046 82.556 139.046C82.0168 139.046 81.5293 138.928 81.0935 138.691C80.6577 138.448 80.318 138.112 80.0742 137.683C79.8305 137.255 79.7086 136.764 79.7086 136.21C79.7086 135.648 79.8268 135.157 80.0632 134.736C80.3069 134.308 80.6393 133.979 81.0603 133.75C81.4887 133.514 81.9725 133.396 82.5117 133.396C82.9623 133.396 83.35 133.458 83.675 133.584C84 133.702 84.3139 133.901 84.6168 134.182V133.562H85.9685V138.559C85.9685 139.474 85.7025 140.18 85.1707 140.675C84.6463 141.177 83.8375 141.428 82.7444 141.428ZM82.8552 137.949C83.254 137.949 83.6085 137.842 83.9188 137.628C84.2364 137.406 84.4543 137.115 84.5725 136.753V135.678C84.4469 135.316 84.229 135.028 83.9188 134.814C83.6085 134.599 83.254 134.492 82.8552 134.492C82.3529 134.492 81.9393 134.651 81.6143 134.969C81.2893 135.286 81.1268 135.7 81.1268 136.21C81.1268 136.719 81.2893 137.137 81.6143 137.462C81.9393 137.787 82.3529 137.949 82.8552 137.949ZM46.1645 149.135H47.5273L50.6184 156.88H49.1892L48.4801 155.096H45.2006L44.5026 156.88H43.0623L46.1645 149.135ZM48.0923 153.933L46.8404 150.642L45.5884 153.933H48.0923ZM53.4167 157.046C52.7002 157.046 52.1647 156.854 51.8102 156.47C51.4556 156.078 51.2784 155.561 51.2784 154.919V151.562H52.6744V154.786C52.6744 155.561 53.0363 155.949 53.7601 155.949C54.0777 155.949 54.3769 155.875 54.6576 155.728C54.9382 155.572 55.1746 155.343 55.3666 155.041V151.562H56.7626V156.88H55.411V156.16C55.1598 156.462 54.8607 156.688 54.5135 156.835C54.1664 156.976 53.8008 157.046 53.4167 157.046ZM60.2344 157.046C59.6509 157.046 59.2077 156.884 58.9049 156.559C58.602 156.234 58.4506 155.776 58.4506 155.185V152.625H57.6529V151.562H58.4506V149.966H59.8466V151.562H61.1207V152.625H59.8466V155.007C59.8466 155.347 59.9094 155.591 60.035 155.739C60.1605 155.879 60.3895 155.949 60.7219 155.949C60.9508 155.949 61.1761 155.897 61.3977 155.794V156.858C61.0801 156.983 60.6923 157.046 60.2344 157.046ZM65.2291 157.046C64.6087 157.046 64.0621 156.935 63.5893 156.714C63.124 156.485 62.7621 156.16 62.5036 155.739C62.2451 155.31 62.1158 154.804 62.1158 154.221C62.1158 153.652 62.2414 153.157 62.4925 152.736C62.751 152.308 63.1166 151.979 63.5893 151.75C64.0621 151.514 64.6087 151.396 65.2291 151.396C65.8495 151.396 66.3924 151.514 66.8578 151.75C67.3305 151.979 67.6961 152.308 67.9546 152.736C68.2131 153.157 68.3424 153.652 68.3424 154.221C68.3424 154.804 68.2131 155.31 67.9546 155.739C67.6961 156.16 67.3305 156.485 66.8578 156.714C66.3924 156.935 65.8495 157.046 65.2291 157.046ZM65.2291 155.949C65.7387 155.949 66.145 155.79 66.4478 155.473C66.7507 155.148 66.9021 154.73 66.9021 154.221C66.9021 153.682 66.7507 153.261 66.4478 152.958C66.1524 152.647 65.7461 152.492 65.2291 152.492C64.7121 152.492 64.3021 152.647 63.9993 152.958C63.7038 153.261 63.5561 153.682 63.5561 154.221C63.5561 154.73 63.7075 155.148 64.0104 155.473C64.3132 155.79 64.7194 155.949 65.2291 155.949ZM69.4459 151.562H70.7533V152.26C70.9896 151.979 71.2666 151.765 71.5842 151.617C71.9018 151.469 72.2231 151.396 72.5481 151.396C72.9618 151.396 73.2942 151.466 73.5453 151.606C73.7964 151.739 73.9848 151.942 74.1103 152.215C74.3467 151.949 74.6311 151.746 74.9634 151.606C75.3032 151.466 75.6393 151.396 75.9717 151.396C76.6364 151.396 77.1128 151.562 77.4009 151.894C77.689 152.226 77.833 152.714 77.833 153.357V156.88H76.4924V153.545C76.4924 153.168 76.4148 152.899 76.2597 152.736C76.112 152.574 75.872 152.492 75.5396 152.492C75.3032 152.492 75.0853 152.54 74.8859 152.636C74.6938 152.725 74.5166 152.88 74.3541 153.102C74.3688 153.338 74.3762 153.53 74.3762 153.678V156.88H73.0246V153.523C73.0246 153.139 72.9618 152.873 72.8362 152.725C72.7106 152.57 72.4817 152.492 72.1493 152.492C71.647 152.492 71.1965 152.777 70.7976 153.345V156.88H69.4459V151.562ZM81.8373 157.046C81.2169 157.046 80.6703 156.935 80.1976 156.714C79.7322 156.485 79.3703 156.16 79.1118 155.739C78.8533 155.31 78.724 154.804 78.724 154.221C78.724 153.652 78.8496 153.157 79.1007 152.736C79.3592 152.308 79.7249 151.979 80.1976 151.75C80.6703 151.514 81.2169 151.396 81.8373 151.396C82.4578 151.396 83.0007 151.514 83.466 151.75C83.9387 151.979 84.3043 152.308 84.5628 152.736C84.8214 153.157 84.9506 153.652 84.9506 154.221C84.9506 154.804 84.8214 155.31 84.5628 155.739C84.3043 156.16 83.9387 156.485 83.466 156.714C83.0007 156.935 82.4578 157.046 81.8373 157.046ZM81.8373 155.949C82.347 155.949 82.7532 155.79 83.0561 155.473C83.3589 155.148 83.5103 154.73 83.5103 154.221C83.5103 153.682 83.3589 153.261 83.0561 152.958C82.7606 152.647 82.3544 152.492 81.8373 152.492C81.3203 152.492 80.9103 152.647 80.6075 152.958C80.3121 153.261 80.1643 153.682 80.1643 154.221C80.1643 154.73 80.3158 155.148 80.6186 155.473C80.9214 155.79 81.3277 155.949 81.8373 155.949ZM88.0302 157.046C87.4467 157.046 87.0035 156.884 86.7006 156.559C86.3978 156.234 86.2464 155.776 86.2464 155.185V152.625H85.4487V151.562H86.2464V149.966H87.6424V151.562H88.9165V152.625H87.6424V155.007C87.6424 155.347 87.7052 155.591 87.8307 155.739C87.9563 155.879 88.1853 155.949 88.5177 155.949C88.7466 155.949 88.9719 155.897 89.1935 155.794V156.858C88.8759 156.983 88.4881 157.046 88.0302 157.046ZM90.9739 150.631C90.7523 150.631 90.564 150.557 90.4089 150.409C90.2611 150.262 90.1873 150.077 90.1873 149.855C90.1873 149.634 90.2611 149.449 90.4089 149.302C90.564 149.146 90.7523 149.069 90.9739 149.069C91.1955 149.069 91.3838 149.146 91.539 149.302C91.6941 149.449 91.7716 149.634 91.7716 149.855C91.7716 150.077 91.6941 150.262 91.539 150.409C91.3838 150.557 91.1955 150.631 90.9739 150.631ZM90.2648 151.562H91.683V156.88H90.2648V151.562ZM92.8762 151.562H94.2833L95.7236 155.24L97.1639 151.562H98.571L96.3773 156.88H95.0699L92.8762 151.562ZM102.224 157.046C101.234 157.046 100.451 156.799 99.8751 156.304C99.299 155.809 99.0109 155.118 99.0109 154.232C99.0109 153.36 99.2658 152.67 99.7754 152.16C100.285 151.65 101.013 151.396 101.958 151.396C102.578 151.396 103.107 151.514 103.542 151.75C103.986 151.986 104.318 152.311 104.54 152.725C104.761 153.131 104.872 153.597 104.872 154.121V154.764H100.34C100.436 155.554 101.123 155.949 102.401 155.949C102.741 155.949 103.088 155.92 103.443 155.861C103.797 155.801 104.107 155.72 104.373 155.617V156.691C104.122 156.795 103.797 156.88 103.398 156.946C103.007 157.013 102.615 157.046 102.224 157.046ZM103.553 153.811C103.539 153.39 103.387 153.065 103.099 152.836C102.819 152.607 102.431 152.492 101.936 152.492C101.448 152.492 101.064 152.611 100.784 152.847C100.503 153.083 100.355 153.405 100.34 153.811H103.553Z" fill="black"/>
<line x1="200.5" y1="110.052" x2="200.5" y2="177.32" stroke="#DCDCDC" stroke-width="0.791383"/>
<rect x="91.6846" y="127.463" width="49.5097" height="15.8277" rx="7.91383" fill="#35DFA1"/>
<path d="M100.316 138.538C99.9891 138.538 99.6725 138.512 99.3665 138.459C99.0658 138.406 98.8046 138.327 98.5831 138.222V137.454C99.0843 137.681 99.6171 137.794 100.182 137.794C100.63 137.794 100.965 137.715 101.187 137.557C101.414 137.393 101.527 137.161 101.527 136.86C101.527 136.549 101.416 136.33 101.195 136.204C100.978 136.072 100.641 136.006 100.182 136.006H99.4932V135.23H100.158C100.527 135.23 100.82 135.162 101.036 135.024C101.253 134.882 101.361 134.668 101.361 134.383C101.361 134.099 101.263 133.882 101.068 133.735C100.878 133.587 100.609 133.513 100.261 133.513C99.9601 133.513 99.6884 133.55 99.4457 133.624C99.2083 133.692 98.9656 133.803 98.7176 133.956V133.181C99.1924 132.906 99.7517 132.769 100.395 132.769C101.05 132.769 101.543 132.909 101.875 133.188C102.208 133.463 102.374 133.848 102.374 134.344C102.374 134.618 102.3 134.866 102.152 135.088C102.01 135.309 101.796 135.483 101.511 135.61C101.849 135.71 102.105 135.871 102.279 136.093C102.453 136.309 102.54 136.581 102.54 136.908C102.54 137.42 102.363 137.821 102.01 138.111C101.656 138.396 101.092 138.538 100.316 138.538ZM104.084 136.449H103.174V135.65H104.084V134.74H104.883V135.65H105.801V136.449H104.883V137.367H104.084V136.449ZM111.297 136.314L109.287 132.888H110.355L111.78 135.349L113.244 132.888H114.304L112.255 136.314V138.419H111.297V136.314ZM115.095 132.888H118.838V133.719H116.1V135.238H118.133V136.069H116.1V137.589H118.838V138.419H115.095V132.888ZM121.611 132.888H122.585L124.793 138.419H123.772L123.265 137.145H120.923L120.424 138.419H119.396L121.611 132.888ZM122.988 136.314L122.094 133.964L121.2 136.314H122.988ZM125.582 132.888H127.893C128.505 132.888 128.977 133.038 129.309 133.339C129.642 133.64 129.808 134.075 129.808 134.645C129.808 135.051 129.708 135.396 129.507 135.681C129.307 135.966 129.022 136.169 128.652 136.291L129.776 138.419H128.747L127.679 136.394H126.587V138.419H125.582V132.888ZM127.711 135.563C128.038 135.563 128.302 135.486 128.502 135.333C128.703 135.18 128.803 134.951 128.803 134.645C128.803 134.027 128.439 133.719 127.711 133.719H126.587V135.563H127.711ZM132.196 138.538C131.869 138.538 131.545 138.507 131.223 138.443C130.906 138.385 130.645 138.306 130.439 138.206V137.343C130.703 137.47 130.98 137.565 131.27 137.628C131.56 137.691 131.845 137.723 132.125 137.723C132.478 137.723 132.748 137.657 132.932 137.525C133.117 137.393 133.209 137.211 133.209 136.979C133.209 136.816 133.167 136.681 133.083 136.576C132.998 136.465 132.874 136.37 132.711 136.291C132.547 136.206 132.296 136.098 131.959 135.966C131.442 135.755 131.067 135.52 130.835 135.262C130.603 135.003 130.487 134.682 130.487 134.296C130.487 133.996 130.569 133.729 130.732 133.497C130.896 133.265 131.125 133.086 131.421 132.959C131.716 132.832 132.056 132.769 132.442 132.769C132.758 132.769 133.038 132.795 133.28 132.848C133.528 132.896 133.771 132.972 134.008 133.078V133.917C133.549 133.695 133.085 133.584 132.616 133.584C132.278 133.584 132.017 133.647 131.832 133.774C131.648 133.895 131.555 134.07 131.555 134.296C131.555 134.46 131.597 134.594 131.682 134.7C131.766 134.8 131.877 134.887 132.014 134.961C132.157 135.03 132.41 135.141 132.774 135.294C133.143 135.447 133.433 135.597 133.644 135.745C133.861 135.892 134.022 136.066 134.127 136.267C134.238 136.462 134.293 136.702 134.293 136.987C134.293 137.478 134.117 137.86 133.763 138.135C133.41 138.404 132.887 138.538 132.196 138.538Z" fill="black"/>
<rect x="109.887" y="147.247" width="49.5097" height="15.8277" rx="7.91383" fill="#00C1B5"/>
<path d="M118.387 158.323C118.092 158.323 117.801 158.291 117.516 158.228C117.232 158.165 116.992 158.077 116.796 157.967V157.12C117.018 157.257 117.269 157.365 117.548 157.444C117.828 157.518 118.094 157.555 118.347 157.555C119.26 157.555 119.717 157.194 119.717 156.471C119.717 156.123 119.603 155.856 119.376 155.672C119.155 155.487 118.841 155.395 118.434 155.395C118.25 155.395 118.055 155.413 117.849 155.45C117.643 155.487 117.461 155.537 117.303 155.6L116.883 155.363L117.097 152.672H120.342V153.503H118.007L117.904 154.769C118.194 154.706 118.516 154.675 118.87 154.675C119.455 154.675 119.912 154.835 120.239 155.157C120.566 155.479 120.729 155.917 120.729 156.471C120.729 157.072 120.534 157.531 120.144 157.848C119.753 158.165 119.168 158.323 118.387 158.323ZM122.274 156.234H121.364V155.434H122.274V154.524H123.073V155.434H123.991V156.234H123.073V157.152H122.274V156.234ZM129.487 156.099L127.477 152.672H128.545L129.97 155.134L131.434 152.672H132.494L130.445 156.099V158.204H129.487V156.099ZM133.285 152.672H137.028V153.503H134.29V155.023H136.324V155.854H134.29V157.373H137.028V158.204H133.285V152.672ZM139.801 152.672H140.775L142.983 158.204H141.962L141.455 156.93H139.113L138.614 158.204H137.586L139.801 152.672ZM141.178 156.099L140.284 153.749L139.39 156.099H141.178ZM143.772 152.672H146.083C146.695 152.672 147.167 152.823 147.499 153.123C147.832 153.424 147.998 153.859 147.998 154.429C147.998 154.835 147.898 155.181 147.697 155.466C147.497 155.751 147.212 155.954 146.843 156.075L147.966 158.204H146.938L145.869 156.178H144.777V158.204H143.772V152.672ZM145.901 155.347C146.228 155.347 146.492 155.271 146.692 155.118C146.893 154.965 146.993 154.735 146.993 154.429C146.993 153.812 146.629 153.503 145.901 153.503H144.777V155.347H145.901ZM150.386 158.323C150.059 158.323 149.735 158.291 149.413 158.228C149.096 158.17 148.835 158.091 148.629 157.99V157.128C148.893 157.254 149.17 157.349 149.46 157.413C149.751 157.476 150.035 157.508 150.315 157.508C150.669 157.508 150.938 157.442 151.122 157.31C151.307 157.178 151.399 156.996 151.399 156.764C151.399 156.6 151.357 156.466 151.273 156.36C151.188 156.249 151.064 156.154 150.901 156.075C150.737 155.991 150.487 155.883 150.149 155.751C149.632 155.54 149.257 155.305 149.025 155.046C148.793 154.788 148.677 154.466 148.677 154.081C148.677 153.78 148.759 153.514 148.922 153.282C149.086 153.05 149.315 152.87 149.611 152.744C149.906 152.617 150.246 152.554 150.632 152.554C150.948 152.554 151.228 152.58 151.47 152.633C151.718 152.68 151.961 152.757 152.199 152.862V153.701C151.74 153.48 151.275 153.369 150.806 153.369C150.468 153.369 150.207 153.432 150.022 153.559C149.838 153.68 149.745 153.854 149.745 154.081C149.745 154.245 149.787 154.379 149.872 154.485C149.956 154.585 150.067 154.672 150.204 154.746C150.347 154.814 150.6 154.925 150.964 155.078C151.333 155.231 151.623 155.381 151.834 155.529C152.051 155.677 152.212 155.851 152.317 156.052C152.428 156.247 152.483 156.487 152.483 156.772C152.483 157.262 152.307 157.645 151.953 157.919C151.6 158.188 151.077 158.323 150.386 158.323Z" fill="black"/>
<path d="M218.006 116.797C217.668 116.797 217.333 116.765 217 116.702C216.668 116.638 216.396 116.554 216.185 116.449V115.388C216.465 115.525 216.755 115.628 217.056 115.697C217.357 115.765 217.644 115.8 217.919 115.8C218.225 115.8 218.457 115.747 218.615 115.641C218.773 115.536 218.852 115.388 218.852 115.198C218.852 115.061 218.813 114.945 218.734 114.85C218.654 114.755 218.538 114.671 218.385 114.597C218.238 114.518 218.008 114.415 217.697 114.288C217.18 114.077 216.805 113.842 216.573 113.584C216.341 113.32 216.225 112.995 216.225 112.61C216.225 112.299 216.309 112.025 216.478 111.787C216.647 111.545 216.884 111.357 217.19 111.225C217.496 111.093 217.85 111.028 218.251 111.028C218.578 111.028 218.868 111.054 219.121 111.107C219.375 111.159 219.623 111.241 219.865 111.352V112.381C219.401 112.149 218.937 112.033 218.472 112.033C218.177 112.033 217.945 112.085 217.776 112.191C217.607 112.291 217.523 112.436 217.523 112.626C217.523 112.763 217.562 112.877 217.642 112.966C217.721 113.056 217.831 113.135 217.974 113.204C218.116 113.272 218.348 113.373 218.67 113.505C219.045 113.663 219.338 113.816 219.549 113.964C219.76 114.106 219.915 114.277 220.016 114.478C220.116 114.673 220.166 114.916 220.166 115.206C220.166 115.707 219.984 116.098 219.62 116.377C219.261 116.657 218.723 116.797 218.006 116.797ZM220.842 111.146H222.044V113.552L224.134 111.146H225.566L223.224 113.845L225.724 116.678H224.292L222.044 114.138V116.678H220.842V111.146ZM226.391 111.146H227.593V116.678H226.391V111.146ZM228.423 111.146H229.626V115.673H232.158V116.678H228.423V111.146ZM232.674 111.146H233.877V115.673H236.409V116.678H232.674V111.146ZM238.586 116.797C238.248 116.797 237.913 116.765 237.581 116.702C237.249 116.638 236.977 116.554 236.766 116.449V115.388C237.046 115.525 237.336 115.628 237.636 115.697C237.937 115.765 238.225 115.8 238.499 115.8C238.805 115.8 239.037 115.747 239.196 115.641C239.354 115.536 239.433 115.388 239.433 115.198C239.433 115.061 239.393 114.945 239.314 114.85C239.235 114.755 239.119 114.671 238.966 114.597C238.818 114.518 238.589 114.415 238.278 114.288C237.76 114.077 237.386 113.842 237.154 113.584C236.922 113.32 236.806 112.995 236.806 112.61C236.806 112.299 236.89 112.025 237.059 111.787C237.228 111.545 237.465 111.357 237.771 111.225C238.077 111.093 238.431 111.028 238.831 111.028C239.159 111.028 239.449 111.054 239.702 111.107C239.955 111.159 240.203 111.241 240.446 111.352V112.381C239.982 112.149 239.517 112.033 239.053 112.033C238.758 112.033 238.525 112.085 238.357 112.191C238.188 112.291 238.103 112.436 238.103 112.626C238.103 112.763 238.143 112.877 238.222 112.966C238.301 113.056 238.412 113.135 238.554 113.204C238.697 113.272 238.929 113.373 239.251 113.505C239.626 113.663 239.918 113.816 240.129 113.964C240.34 114.106 240.496 114.277 240.596 114.478C240.697 114.673 240.747 114.916 240.747 115.206C240.747 115.707 240.565 116.098 240.201 116.377C239.842 116.657 239.304 116.797 238.586 116.797Z" fill="#ADADAD"/>
<path d="M41.4477 111.146H42.6506V113.552L44.7398 111.146H46.1722L43.8297 113.845L46.3305 116.678H44.8981L42.6506 114.138V116.678H41.4477V111.146ZM46.9966 111.146H50.8348V112.151H48.1995V113.433H50.1384V114.399H48.1995V115.673H50.8348V116.678H46.9966V111.146ZM53.084 114.573L51.058 111.146H52.3401L53.6775 113.449L55.0624 111.146H56.3365L54.2631 114.573V116.678H53.084V114.573ZM59.7793 111.146H63.6175V112.151H60.9822V113.433H62.9211V114.399H60.9822V115.673H63.6175V116.678H59.7793V111.146ZM66.0289 113.892L64.0347 111.146H65.4117L66.7174 112.951L68.0311 111.146H69.4081L67.4059 113.892L69.4319 116.678H68.0549L66.7174 114.842L65.38 116.678H64.003L66.0289 113.892ZM70.0967 111.146H72.4233C73.0511 111.146 73.5524 111.312 73.9269 111.645C74.3015 111.972 74.4888 112.428 74.4888 113.014C74.4888 113.615 74.3015 114.077 73.9269 114.399C73.5576 114.721 73.0564 114.882 72.4233 114.882H71.2996V116.678H70.0967V111.146ZM72.2492 113.877C72.9298 113.877 73.2701 113.589 73.2701 113.014C73.2701 112.692 73.1778 112.468 72.9931 112.341C72.8137 112.215 72.5658 112.151 72.2492 112.151H71.2996V113.877H72.2492ZM75.0428 111.146H78.881V112.151H76.2457V113.433H78.1846V114.399H76.2457V115.673H78.881V116.678H75.0428V111.146ZM79.4634 111.146H81.8613C82.4891 111.146 82.9772 111.305 83.3254 111.621C83.6788 111.932 83.8556 112.383 83.8556 112.974C83.8556 113.386 83.7606 113.737 83.5707 114.027C83.3808 114.312 83.1117 114.52 82.7635 114.652L83.816 116.678H82.5815L81.6081 114.802H80.6663V116.678H79.4634V111.146ZM81.6476 113.797C81.9536 113.797 82.1937 113.731 82.3678 113.6C82.5472 113.468 82.6369 113.259 82.6369 112.974C82.6369 112.674 82.5498 112.463 82.3757 112.341C82.2016 112.215 81.9589 112.151 81.6476 112.151H80.6663V113.797H81.6476ZM84.5255 111.146H85.7284V116.678H84.5255V111.146ZM86.558 111.146H90.3963V112.151H87.7609V113.433H89.6998V114.399H87.7609V115.673H90.3963V116.678H86.558V111.146ZM90.9787 111.146H92.1499L94.4607 114.723V111.146H95.6636V116.678H94.5003L92.1816 113.101V116.678H90.9787V111.146ZM99.3221 116.797C98.7312 116.797 98.2089 116.681 97.7552 116.449C97.3015 116.211 96.9506 115.876 96.7026 115.443C96.4547 115.011 96.3307 114.502 96.3307 113.916C96.3307 113.33 96.4547 112.821 96.7026 112.389C96.9506 111.951 97.3015 111.616 97.7552 111.384C98.2089 111.146 98.7312 111.028 99.3221 111.028C100.087 111.028 100.726 111.202 101.237 111.55V112.689C101.005 112.494 100.739 112.354 100.438 112.27C100.143 112.18 99.8049 112.135 99.425 112.135C98.8499 112.135 98.3936 112.296 98.0559 112.618C97.7235 112.935 97.5573 113.367 97.5573 113.916C97.5573 114.47 97.7262 114.908 98.0638 115.23C98.4015 115.546 98.8552 115.705 99.425 115.705C99.8154 115.705 100.161 115.66 100.462 115.57C100.762 115.475 101.042 115.325 101.301 115.119V116.259C100.815 116.617 100.156 116.797 99.3221 116.797ZM101.976 111.146H105.814V112.151H103.179V113.433H105.118V114.399H103.179V115.673H105.814V116.678H101.976V111.146Z" fill="#ADADAD"/>
<rect x="284.782" y="45.9501" width="33.2381" height="33.2381" fill="black"/>
<path d="M300.942 67.9314C300.351 67.9314 299.853 67.8681 299.448 67.7415V66.1461C299.828 66.3233 300.275 66.412 300.79 66.412C301.516 66.412 302.103 66.2052 302.55 65.7915C302.997 65.3695 303.268 64.7575 303.36 63.9555C303.116 64.2088 302.808 64.4029 302.436 64.538C302.073 64.6646 301.668 64.7279 301.221 64.7279C300.638 64.7279 300.123 64.6097 299.676 64.3734C299.228 64.137 298.878 63.7994 298.625 63.3604C298.38 62.913 298.258 62.3896 298.258 61.7903C298.258 61.1994 298.393 60.6718 298.663 60.2075C298.933 59.7348 299.33 59.3676 299.853 59.1059C300.376 58.8358 301.009 58.7007 301.752 58.7007C302.47 58.7007 303.099 58.8611 303.639 59.1819C304.179 59.4942 304.597 59.9501 304.893 60.5494C305.188 61.1403 305.336 61.8494 305.336 62.6766C305.336 63.7909 305.154 64.7448 304.791 65.5383C304.428 66.3233 303.918 66.9185 303.259 67.3236C302.601 67.7288 301.828 67.9314 300.942 67.9314ZM301.752 63.2844C302.191 63.2844 302.558 63.1367 302.854 62.8413C303.149 62.5458 303.297 62.1744 303.297 61.727C303.297 61.2965 303.149 60.9293 302.854 60.6254C302.567 60.3215 302.2 60.1695 301.752 60.1695C301.305 60.1695 300.934 60.3173 300.638 60.6127C300.351 60.8997 300.208 61.2711 300.208 61.727C300.208 62.1744 300.351 62.5458 300.638 62.8413C300.934 63.1367 301.305 63.2844 301.752 63.2844Z" fill="white"/>
<rect x="325.934" y="45.9501" width="33.2381" height="33.2381" fill="black"/>
<path d="M342.094 67.9314C341.503 67.9314 341.005 67.8681 340.6 67.7415V66.1461C340.98 66.3233 341.427 66.412 341.942 66.412C342.668 66.412 343.255 66.2052 343.702 65.7915C344.15 65.3695 344.42 64.7575 344.513 63.9555C344.268 64.2088 343.96 64.4029 343.588 64.538C343.225 64.6646 342.82 64.7279 342.373 64.7279C341.79 64.7279 341.275 64.6097 340.828 64.3734C340.381 64.137 340.03 63.7994 339.777 63.3604C339.532 62.913 339.41 62.3896 339.41 61.7903C339.41 61.1994 339.545 60.6718 339.815 60.2075C340.085 59.7348 340.482 59.3676 341.005 59.1059C341.529 58.8358 342.162 58.7007 342.905 58.7007C343.622 58.7007 344.251 58.8611 344.791 59.1819C345.331 59.4942 345.749 59.9501 346.045 60.5494C346.34 61.1403 346.488 61.8494 346.488 62.6766C346.488 63.7909 346.306 64.7448 345.943 65.5383C345.58 66.3233 345.07 66.9185 344.411 67.3236C343.753 67.7288 342.981 67.9314 342.094 67.9314ZM342.905 63.2844C343.344 63.2844 343.711 63.1367 344.006 62.8413C344.302 62.5458 344.449 62.1744 344.449 61.727C344.449 61.2965 344.302 60.9293 344.006 60.6254C343.719 60.3215 343.352 60.1695 342.905 60.1695C342.457 60.1695 342.086 60.3173 341.79 60.6127C341.503 60.8997 341.36 61.2711 341.36 61.727C341.36 62.1744 341.503 62.5458 341.79 62.8413C342.086 63.1367 342.457 63.2844 342.905 63.2844Z" fill="white"/>
<path d="M293.296 36.1785H291.681V35.1734H296.113V36.1785H294.499V40.7052H293.296V36.1785ZM296.642 35.1734H300.48V36.1785H297.845V37.4605H299.784V38.426H297.845V39.7002H300.48V40.7052H296.642V35.1734ZM303.78 40.8239C303.189 40.8239 302.667 40.7079 302.213 40.4757C301.759 40.2383 301.408 39.9033 301.16 39.4707C300.912 39.038 300.788 38.5289 300.788 37.9433C300.788 37.3577 300.912 36.8485 301.16 36.4159C301.408 35.978 301.759 35.643 302.213 35.4109C302.667 35.1734 303.189 35.0547 303.78 35.0547C304.545 35.0547 305.183 35.2288 305.695 35.5771V36.7166C305.463 36.5214 305.196 36.3816 304.896 36.2972C304.6 36.2075 304.263 36.1627 303.883 36.1627C303.308 36.1627 302.851 36.3236 302.514 36.6454C302.181 36.962 302.015 37.3946 302.015 37.9433C302.015 38.4973 302.184 38.9352 302.522 39.257C302.859 39.5735 303.313 39.7318 303.883 39.7318C304.273 39.7318 304.619 39.687 304.919 39.5973C305.22 39.5023 305.5 39.352 305.758 39.1462V40.2858C305.273 40.6445 304.613 40.8239 303.78 40.8239ZM306.434 35.1734H307.637V37.3893H310.05V35.1734H311.253V40.7052H310.05V38.3865H307.637V40.7052H306.434V35.1734Z" fill="black"/>
<path d="M335.964 40.8239C335.626 40.8239 335.291 40.7923 334.959 40.729C334.626 40.6656 334.354 40.5812 334.143 40.4757V39.4153C334.423 39.5524 334.713 39.6553 335.014 39.7239C335.315 39.7925 335.602 39.8268 335.877 39.8268C336.183 39.8268 336.415 39.774 336.573 39.6685C336.731 39.563 336.81 39.4153 336.81 39.2253C336.81 39.0882 336.771 38.9721 336.692 38.8771C336.613 38.7822 336.496 38.6977 336.343 38.6239C336.196 38.5447 335.966 38.4419 335.655 38.3152C335.138 38.1042 334.763 37.8694 334.531 37.6109C334.299 37.3471 334.183 37.0226 334.183 36.6375C334.183 36.3262 334.267 36.0519 334.436 35.8145C334.605 35.5718 334.842 35.3845 335.148 35.2526C335.454 35.1207 335.808 35.0547 336.209 35.0547C336.536 35.0547 336.826 35.0811 337.079 35.1339C337.333 35.1866 337.581 35.2684 337.823 35.3792V36.408C337.359 36.1759 336.895 36.0598 336.431 36.0598C336.135 36.0598 335.903 36.1126 335.734 36.2181C335.565 36.3183 335.481 36.4634 335.481 36.6533C335.481 36.7905 335.52 36.9039 335.6 36.9936C335.679 37.0833 335.789 37.1625 335.932 37.231C336.074 37.2996 336.307 37.3999 336.628 37.5318C337.003 37.69 337.296 37.843 337.507 37.9908C337.718 38.1332 337.873 38.3047 337.974 38.5052C338.074 38.7004 338.124 38.9431 338.124 39.2332C338.124 39.7345 337.942 40.1249 337.578 40.4045C337.219 40.6841 336.681 40.8239 335.964 40.8239ZM341.601 40.8239C341.047 40.8239 340.543 40.7026 340.09 40.4599C339.641 40.2172 339.288 39.8795 339.029 39.4469C338.771 39.009 338.641 38.5078 338.641 37.9433C338.641 37.3788 338.771 36.8776 339.029 36.4397C339.288 36.0018 339.641 35.6615 340.09 35.4188C340.543 35.1761 341.047 35.0547 341.601 35.0547C342.155 35.0547 342.654 35.1761 343.097 35.4188C343.545 35.6615 343.899 36.0018 344.157 36.4397C344.416 36.8776 344.545 37.3788 344.545 37.9433C344.545 38.5078 344.416 39.009 344.157 39.4469C343.899 39.8795 343.545 40.2172 343.097 40.4599C342.654 40.7026 342.155 40.8239 341.601 40.8239ZM341.601 39.716C341.918 39.716 342.205 39.6448 342.464 39.5023C342.727 39.3546 342.936 39.1488 343.089 38.885C343.242 38.616 343.318 38.302 343.318 37.9433C343.318 37.5898 343.242 37.2812 343.089 37.0174C342.941 36.7483 342.735 36.5425 342.472 36.4001C342.213 36.2524 341.923 36.1785 341.601 36.1785C341.274 36.1785 340.979 36.2524 340.715 36.4001C340.456 36.5425 340.25 36.7483 340.097 37.0174C339.944 37.2812 339.868 37.5898 339.868 37.9433C339.868 38.302 339.944 38.616 340.097 38.885C340.25 39.1488 340.459 39.3546 340.723 39.5023C340.986 39.6448 341.279 39.716 341.601 39.716ZM345.206 35.1734H349.045V36.1864H346.409V37.4764H348.348V38.4023H346.409V40.7052H345.206V35.1734ZM350.871 36.1785H349.257V35.1734H353.689V36.1785H352.074V40.7052H350.871V36.1785Z" fill="black"/>
<circle cx="221.076" cy="131.815" r="2.76984" fill="black"/>
<circle cx="228.199" cy="131.815" r="2.76984" fill="black"/>
<circle cx="235.321" cy="131.815" r="2.76984" fill="#C4C4C4"/>
<circle cx="221.076" cy="150.808" r="2.76984" fill="black"/>
<circle cx="228.199" cy="150.808" r="2.76984" fill="black"/>
<circle cx="235.321" cy="150.808" r="2.76984" fill="black"/>
<circle cx="221.076" cy="168.219" r="2.76984" fill="black"/>
<circle cx="228.199" cy="168.219" r="2.76984" fill="black"/>
<circle cx="235.321" cy="168.219" r="2.76984" fill="black"/>
<rect x="134.419" y="59.4036" width="47.483" height="15.8277" rx="7.91383" fill="#1D1578"/>
<path d="M145.743 64.7925H149.582V65.7976H146.946V67.0796H148.885V68.0451H146.946V69.3192H149.582V70.3243H145.743V64.7925ZM151.435 68.3616L149.916 66.5256H151.253L152.1 67.5544L152.954 66.5256H154.292L152.764 68.3616L154.395 70.3243H153.073L152.1 69.1609L151.134 70.3243H149.805L151.435 68.3616ZM155.064 66.5256H156.219V66.9451C156.604 66.5863 157.079 66.4069 157.644 66.4069C158.039 66.4069 158.388 66.4913 158.688 66.6602C158.994 66.8237 159.232 67.0585 159.4 67.3645C159.569 67.6652 159.654 68.0161 159.654 68.417C159.654 68.8127 159.569 69.1636 159.4 69.4696C159.232 69.7756 158.994 70.0156 158.688 70.1897C158.388 70.3586 158.039 70.443 157.644 70.443C157.375 70.443 157.119 70.4034 156.876 70.3243C156.633 70.2451 156.428 70.1317 156.259 69.984V72.0574H155.064V66.5256ZM157.343 69.5091C157.665 69.5091 157.926 69.4089 158.126 69.2084C158.332 69.0079 158.435 68.7441 158.435 68.417C158.435 68.0899 158.332 67.8288 158.126 67.6336C157.926 67.4384 157.665 67.3407 157.343 67.3407C157.095 67.3407 156.873 67.4067 156.678 67.5386C156.483 67.6705 156.343 67.8446 156.259 68.0609V68.7811C156.338 69.0027 156.475 69.1794 156.67 69.3113C156.871 69.4432 157.095 69.5091 157.343 69.5091ZM162.511 70.443C161.783 70.443 161.21 70.2689 160.794 69.9207C160.377 69.5672 160.168 69.0739 160.168 68.4408C160.168 67.8129 160.353 67.317 160.722 66.953C161.097 66.5889 161.63 66.4069 162.321 66.4069C162.775 66.4069 163.16 66.4913 163.476 66.6602C163.793 66.829 164.033 67.0638 164.197 67.3645C164.36 67.6599 164.442 67.995 164.442 68.3695V68.8523H161.308C161.392 69.3377 161.846 69.5804 162.669 69.5804C162.912 69.5804 163.162 69.5593 163.421 69.5171C163.68 69.4748 163.904 69.4168 164.094 69.3429V70.1818C163.909 70.261 163.672 70.3243 163.381 70.3717C163.091 70.4192 162.801 70.443 162.511 70.443ZM163.31 68.0767C163.294 67.8235 163.199 67.6283 163.025 67.4911C162.851 67.3487 162.611 67.2774 162.305 67.2774C162.004 67.2774 161.767 67.3487 161.593 67.4911C161.419 67.6336 161.324 67.8288 161.308 68.0767H163.31ZM165.103 66.5256H166.258V67.0717C166.411 66.887 166.625 66.7472 166.899 66.6522C167.174 66.552 167.485 66.5019 167.833 66.5019V67.412C167.469 67.412 167.147 67.4674 166.868 67.5782C166.593 67.689 166.403 67.8578 166.298 68.0846V70.3243H165.103V66.5256ZM169.932 70.443C169.489 70.443 169.151 70.3216 168.919 70.0789C168.692 69.831 168.578 69.488 168.578 69.0501V67.3882H168.024V66.5256H168.578V65.386H169.773V66.5256H170.668V67.3882H169.773V68.8919C169.773 69.1134 169.816 69.2744 169.9 69.3746C169.984 69.4696 170.135 69.5171 170.351 69.5171C170.525 69.5171 170.691 69.4748 170.85 69.3904V70.2847C170.607 70.3902 170.301 70.443 169.932 70.443Z" fill="white"/>
<rect x="185.068" y="59.4036" width="68.8503" height="15.8277" rx="7.91383" fill="black"/>
<path d="M194.66 64.4546H195.839L198.047 69.9864H196.82L196.345 68.7835H194.153L193.678 69.9864H192.444L194.66 64.4546ZM196.029 67.8259L195.245 65.7208L194.462 67.8259H196.029ZM197.948 66.1878H198.953L199.982 68.8151L201.01 66.1878H202.015L200.449 69.9864H199.515L197.948 66.1878ZM203.903 70.1051C203.439 70.1051 203.059 69.989 202.763 69.7569C202.473 69.5195 202.328 69.1976 202.328 68.7914C202.328 68.3693 202.468 68.0422 202.748 67.8101C203.027 67.5727 203.423 67.454 203.935 67.454C204.162 67.454 204.378 67.4777 204.584 67.5252C204.789 67.5727 204.971 67.6386 205.13 67.723V67.6281C205.13 67.3907 205.045 67.2166 204.876 67.1058C204.708 66.995 204.449 66.9396 204.101 66.9396C203.637 66.9396 203.209 67.0266 202.819 67.2007V66.3302C202.988 66.2563 203.207 66.1957 203.476 66.1482C203.745 66.0954 204.014 66.069 204.283 66.069C204.969 66.069 205.481 66.2115 205.818 66.4964C206.156 66.776 206.325 67.1691 206.325 67.6756V69.9864H205.201V69.6382C204.879 69.9495 204.447 70.1051 203.903 70.1051ZM204.228 69.3137C204.423 69.3137 204.6 69.2768 204.758 69.2029C204.916 69.1291 205.04 69.0262 205.13 68.8943V68.5144C204.861 68.335 204.565 68.2453 204.243 68.2453C204.022 68.2453 203.85 68.2928 203.729 68.3878C203.613 68.4775 203.555 68.612 203.555 68.7914C203.555 68.9602 203.613 69.0895 203.729 69.1792C203.845 69.2689 204.011 69.3137 204.228 69.3137ZM207.773 65.6021C207.588 65.6021 207.432 65.5415 207.306 65.4201C207.179 65.2988 207.116 65.1458 207.116 64.9611C207.116 64.7817 207.179 64.6314 207.306 64.51C207.432 64.3834 207.588 64.3201 207.773 64.3201C207.957 64.3201 208.113 64.3834 208.24 64.51C208.366 64.6314 208.429 64.7817 208.429 64.9611C208.429 65.1458 208.366 65.2988 208.24 65.4201C208.113 65.5415 207.957 65.6021 207.773 65.6021ZM207.171 66.1878H208.374V69.9864H207.171V66.1878ZM209.249 64.1381H210.444V69.9864H209.249V64.1381ZM212.69 70.1051C212.226 70.1051 211.846 69.989 211.551 69.7569C211.26 69.5195 211.115 69.1976 211.115 68.7914C211.115 68.3693 211.255 68.0422 211.535 67.8101C211.814 67.5727 212.21 67.454 212.722 67.454C212.949 67.454 213.165 67.4777 213.371 67.5252C213.577 67.5727 213.759 67.6386 213.917 67.723V67.6281C213.917 67.3907 213.832 67.2166 213.664 67.1058C213.495 66.995 213.236 66.9396 212.888 66.9396C212.424 66.9396 211.996 67.0266 211.606 67.2007V66.3302C211.775 66.2563 211.994 66.1957 212.263 66.1482C212.532 66.0954 212.801 66.069 213.07 66.069C213.756 66.069 214.268 66.2115 214.605 66.4964C214.943 66.776 215.112 67.1691 215.112 67.6756V69.9864H213.988V69.6382C213.666 69.9495 213.234 70.1051 212.69 70.1051ZM213.015 69.3137C213.21 69.3137 213.387 69.2768 213.545 69.2029C213.703 69.1291 213.827 69.0262 213.917 68.8943V68.5144C213.648 68.335 213.352 68.2453 213.031 68.2453C212.809 68.2453 212.637 68.2928 212.516 68.3878C212.4 68.4775 212.342 68.612 212.342 68.7914C212.342 68.9602 212.4 69.0895 212.516 69.1792C212.632 69.2689 212.798 69.3137 213.015 69.3137ZM218.483 70.1051C218.187 70.1051 217.924 70.0629 217.691 69.9785C217.465 69.8941 217.254 69.7595 217.058 69.5749V69.9864H215.903V64.1381H217.098V66.528C217.267 66.3803 217.473 66.2669 217.715 66.1878C217.958 66.1086 218.214 66.069 218.483 66.069C218.879 66.069 219.227 66.1561 219.527 66.3302C219.833 66.499 220.071 66.7364 220.24 67.0424C220.409 67.3484 220.493 67.6993 220.493 68.095C220.493 68.496 220.409 68.8494 220.24 69.1554C220.071 69.4562 219.833 69.6909 219.527 69.8598C219.227 70.0233 218.879 70.1051 218.483 70.1051ZM218.182 69.1792C218.504 69.1792 218.765 69.0816 218.966 68.8864C219.171 68.6859 219.274 68.4221 219.274 68.095C219.274 67.7679 219.171 67.5041 218.966 67.3036C218.765 67.1031 218.504 67.0029 218.182 67.0029C217.934 67.0029 217.71 67.0715 217.509 67.2086C217.314 67.3405 217.177 67.5146 217.098 67.731V68.4511C217.182 68.6727 217.322 68.8494 217.517 68.9813C217.713 69.1132 217.934 69.1792 218.182 69.1792ZM221.166 64.1381H222.361V69.9864H221.166V64.1381ZM225.375 70.1051C224.647 70.1051 224.074 69.931 223.658 69.5828C223.241 69.2293 223.032 68.736 223.032 68.1029C223.032 67.4751 223.217 66.9791 223.586 66.6151C223.961 66.2511 224.494 66.069 225.185 66.069C225.639 66.069 226.024 66.1535 226.34 66.3223C226.657 66.4911 226.897 66.7259 227.061 67.0266C227.224 67.3221 227.306 67.6571 227.306 68.0317V68.5144H224.172C224.256 68.9998 224.71 69.2425 225.533 69.2425C225.776 69.2425 226.027 69.2214 226.285 69.1792C226.544 69.137 226.768 69.0789 226.958 69.0051V69.8439C226.773 69.9231 226.536 69.9864 226.246 70.0339C225.955 70.0814 225.665 70.1051 225.375 70.1051ZM226.174 67.7389C226.158 67.4856 226.063 67.2904 225.889 67.1532C225.715 67.0108 225.475 66.9396 225.169 66.9396C224.868 66.9396 224.631 67.0108 224.457 67.1532C224.283 67.2957 224.188 67.4909 224.172 67.7389H226.174ZM230.734 64.4546H231.905L234.216 68.0317V64.4546H235.419V69.9864H234.255L231.937 66.4093V69.9864H230.734V64.4546ZM238.373 70.1051C237.914 70.1051 237.51 70.0233 237.162 69.8598C236.819 69.6909 236.553 69.4562 236.363 69.1554C236.178 68.8494 236.086 68.4933 236.086 68.0871C236.086 67.6914 236.178 67.3405 236.363 67.0345C236.553 66.7285 236.819 66.4911 237.162 66.3223C237.51 66.1535 237.914 66.069 238.373 66.069C238.826 66.069 239.225 66.1535 239.568 66.3223C239.916 66.4911 240.182 66.7285 240.367 67.0345C240.557 67.3405 240.652 67.6914 240.652 68.0871C240.652 68.4933 240.557 68.8494 240.367 69.1554C240.182 69.4562 239.919 69.6909 239.576 69.8598C239.233 70.0233 238.832 70.1051 238.373 70.1051ZM238.373 69.1713C238.695 69.1713 238.95 69.0737 239.14 68.8785C239.33 68.678 239.425 68.4142 239.425 68.0871C239.425 67.7494 239.33 67.4856 239.14 67.2957C238.956 67.1005 238.7 67.0029 238.373 67.0029C238.046 67.0029 237.787 67.1005 237.597 67.2957C237.407 67.4856 237.312 67.7494 237.312 68.0871C237.312 68.4142 237.407 68.678 237.597 68.8785C237.792 69.0737 238.051 69.1713 238.373 69.1713ZM240.645 66.1878H241.84L242.537 68.5619L243.217 66.1878H244.215L244.903 68.5619L245.592 66.1878H246.787L245.528 69.9864H244.444L243.716 67.6281L242.988 69.9864H241.904L240.645 66.1878Z" fill="white"/>
</g>
<defs>
<filter id="filter0_d" x="0.675737" y="0.84127" width="399.649" height="224.753" filterUnits="userSpaceOnUse" color-interpolation-filters="sRGB">
<feFlood flood-opacity="0" result="BackgroundImageFix"/>
<feColorMatrix in="SourceAlpha" type="matrix" values="0 0 0 0 0 0 0 0 0 0 0 0 0 0 0 0 0 0 127 0"/>
<feOffset dy="3.16553"/>
<feGaussianBlur stdDeviation="12.6621"/>
<feColorMatrix type="matrix" values="0 0 0 0 0 0 0 0 0 0 0 0 0 0 0 0 0 0 0.12 0"/>
<feBlend mode="normal" in2="BackgroundImageFix" result="effect1_dropShadow"/>
<feBlend mode="normal" in="SourceGraphic" in2="effect1_dropShadow" result="shape"/>
</filter>
<clipPath id="clip0">
<rect width="52.2313" height="54.6054" fill="white" transform="translate(37.8706 30.9138)"/>
</clipPath>
</defs>
</svg>
